<svg width="370" height="355" viewBox="0 0 370 355" fill="none" xmlns="http://www.w3.org/2000/svg">
<g filter="url(#filter0_f_701_3)">
<ellipse cx="185" cy="177.5" rx="89" ry="82.5" fill="#FF54A6" fill-opacity="0.35"/>
</g>
<g filter="url(#filter1_b_701_3)">
<rect y="95" width="370" height="201" rx="30" fill="#838396" fill-opacity="0.08"/>
</g>
<g filter="url(#filter2_b_701_3)">
<rect y="95" width="370" height="238" rx="30" fill="#838396" fill-opacity="0.08"/>
</g>
<path d="M167.198 178.024V181.524H163.726V196H158.826V181.524H155.382V178.024H167.198ZM172.284 182.028H175.84C177.259 182.028 178.276 182.327 178.892 182.924C179.508 183.521 179.816 184.38 179.816 185.5V192.528C179.816 193.648 179.508 194.507 178.892 195.104C178.276 195.701 177.259 196 175.84 196H172.284C170.865 196 169.848 195.701 169.232 195.104C168.616 194.507 168.308 193.648 168.308 192.528V185.5C168.308 184.38 168.616 183.521 169.232 182.924C169.848 182.327 170.865 182.028 172.284 182.028ZM175.14 192.08V185.948C175.14 185.537 174.907 185.332 174.44 185.332H173.684C173.217 185.332 172.984 185.537 172.984 185.948V192.08C172.984 192.491 173.217 192.696 173.684 192.696H174.44C174.907 192.696 175.14 192.491 175.14 192.08ZM185.765 182.028H189.321C190.739 182.028 191.757 182.327 192.373 182.924C192.989 183.521 193.297 184.38 193.297 185.5V192.528C193.297 193.648 192.989 194.507 192.373 195.104C191.757 195.701 190.739 196 189.321 196H185.765C184.346 196 183.329 195.701 182.713 195.104C182.097 194.507 181.789 193.648 181.789 192.528V185.5C181.789 184.38 182.097 183.521 182.713 182.924C183.329 182.327 184.346 182.028 185.765 182.028ZM188.621 192.08V185.948C188.621 185.537 188.387 185.332 187.921 185.332H187.165C186.698 185.332 186.465 185.537 186.465 185.948V192.08C186.465 192.491 186.698 192.696 187.165 192.696H187.921C188.387 192.696 188.621 192.491 188.621 192.08ZM200.169 196H195.409V177.268H200.169V196ZM208.429 192.304V191.184C208.429 190.773 208.196 190.568 207.729 190.568H206.021C203.333 190.568 201.989 189.42 201.989 187.124V185.5C201.989 183.185 203.361 182.028 206.105 182.028H208.709C211.453 182.028 212.825 183.185 212.825 185.5V186.676H208.289V185.724C208.289 185.313 208.056 185.108 207.589 185.108H207.309C206.842 185.108 206.609 185.313 206.609 185.724V186.956C206.609 187.367 206.842 187.572 207.309 187.572H209.017C210.454 187.572 211.481 187.871 212.097 188.468C212.732 189.047 213.049 189.887 213.049 190.988V192.528C213.049 194.843 211.677 196 208.933 196H206.189C203.445 196 202.073 194.843 202.073 192.528V191.38H206.693V192.304C206.693 192.715 206.926 192.92 207.393 192.92H207.729C208.196 192.92 208.429 192.715 208.429 192.304Z" fill="white"/>
<path d="M89.9677 240.248H93.6877V242H87.8077V226.976H89.9677V240.248ZM97.0424 230.288H99.6104C101.098 230.288 101.842 231 101.842 232.424V239.888C101.842 241.296 101.098 242 99.6104 242H97.0424C95.5704 242 94.8344 241.296 94.8344 239.888V232.424C94.8344 231 95.5704 230.288 97.0424 230.288ZM99.7064 239.576V232.712C99.7064 232.424 99.6584 232.232 99.5624 232.136C99.4664 232.04 99.2744 231.992 98.9864 231.992H97.6664C97.3784 231.992 97.1864 232.04 97.0904 232.136C97.0104 232.232 96.9704 232.424 96.9704 232.712V239.576C96.9704 239.864 97.0104 240.056 97.0904 240.152C97.1864 240.248 97.3784 240.296 97.6664 240.296H98.9864C99.2744 240.296 99.4664 240.248 99.5624 240.152C99.6584 240.056 99.7064 239.864 99.7064 239.576ZM108.013 230.264H108.493V232.136H107.629C106.621 232.136 106.117 232.728 106.117 233.912V242H103.957V230.288H106.117V231.728C106.245 231.312 106.469 230.968 106.789 230.696C107.125 230.408 107.533 230.264 108.013 230.264ZM111.98 230.288H114.332C115.836 230.288 116.588 231 116.588 232.424V236.816H111.86V239.6C111.86 239.872 111.908 240.056 112.004 240.152C112.1 240.248 112.292 240.296 112.58 240.296H113.684C113.972 240.296 114.164 240.248 114.26 240.152C114.356 240.056 114.404 239.864 114.404 239.576V238.616H116.516V239.888C116.516 241.296 115.772 242 114.284 242H111.98C110.492 242 109.748 241.296 109.748 239.888V232.424C109.748 231 110.492 230.288 111.98 230.288ZM111.86 235.232H114.452V232.688C114.452 232.416 114.404 232.232 114.308 232.136C114.228 232.04 114.044 231.992 113.756 231.992H112.58C112.292 231.992 112.1 232.04 112.004 232.136C111.908 232.232 111.86 232.416 111.86 232.688V235.232ZM126.724 230.288H127.564C129.004 230.288 129.724 231 129.724 232.424V242H127.564V232.736C127.564 232.448 127.516 232.264 127.42 232.184C127.34 232.088 127.156 232.04 126.868 232.04H126.004C125.492 232.04 125.236 232.32 125.236 232.88V242H123.076V232.736C123.076 232.448 123.028 232.264 122.932 232.184C122.836 232.088 122.644 232.04 122.356 232.04H121.516C121.228 232.04 121.02 232.104 120.892 232.232C120.78 232.36 120.724 232.576 120.724 232.88V242H118.564V230.288H120.724V231.224C120.932 230.6 121.428 230.288 122.212 230.288H123.052C124.076 230.288 124.74 230.648 125.044 231.368C125.236 230.648 125.796 230.288 126.724 230.288ZM135.374 228.056V225.92H137.63V228.056H135.374ZM137.582 242H135.422V230.288H137.582V242ZM143.455 230.288H144.295C145.751 230.288 146.479 231 146.479 232.424V239.888C146.479 241.296 145.751 242 144.295 242H143.455C142.671 242 142.175 241.688 141.967 241.064V245.312H139.807V230.288H141.967V231.224C142.175 230.6 142.671 230.288 143.455 230.288ZM144.319 239.552V232.736C144.319 232.448 144.271 232.264 144.175 232.184C144.079 232.088 143.887 232.04 143.599 232.04H142.759C142.471 232.04 142.263 232.104 142.135 232.232C142.023 232.36 141.967 232.576 141.967 232.88V239.408C141.967 239.712 142.023 239.928 142.135 240.056C142.263 240.184 142.471 240.248 142.759 240.248H143.599C143.887 240.248 144.079 240.208 144.175 240.128C144.271 240.032 144.319 239.84 144.319 239.552ZM152.488 239.648V237.704C152.488 237.416 152.44 237.232 152.344 237.152C152.248 237.056 152.056 237.008 151.768 237.008H150.544C149.056 237.008 148.312 236.304 148.312 234.896V232.424C148.312 231 149.056 230.288 150.544 230.288H152.296C153.8 230.288 154.552 231 154.552 232.424V233.552H152.44V232.64C152.44 232.352 152.392 232.168 152.296 232.088C152.2 231.992 152.008 231.944 151.72 231.944H151.144C150.856 231.944 150.664 231.992 150.568 232.088C150.472 232.168 150.424 232.352 150.424 232.64V234.656C150.424 234.944 150.472 235.136 150.568 235.232C150.664 235.312 150.856 235.352 151.144 235.352H152.392C153.864 235.352 154.6 236.064 154.6 237.488V239.888C154.6 241.296 153.856 242 152.368 242H150.592C149.104 242 148.36 241.296 148.36 239.888V238.736H150.472V239.648C150.472 239.936 150.52 240.128 150.616 240.224C150.712 240.304 150.904 240.344 151.192 240.344H151.768C152.056 240.344 152.248 240.304 152.344 240.224C152.44 240.128 152.488 239.936 152.488 239.648ZM161.059 230.288H163.219V242H161.059V241.064C160.851 241.688 160.355 242 159.571 242H158.707C157.267 242 156.547 241.296 156.547 239.888V230.288H158.707V239.552C158.707 239.84 158.755 240.032 158.851 240.128C158.947 240.208 159.139 240.248 159.427 240.248H160.267C160.555 240.248 160.755 240.184 160.867 240.056C160.995 239.928 161.059 239.712 161.059 239.408V230.288ZM173.616 230.288H174.456C175.896 230.288 176.616 231 176.616 232.424V242H174.456V232.736C174.456 232.448 174.408 232.264 174.312 232.184C174.232 232.088 174.048 232.04 173.76 232.04H172.896C172.384 232.04 172.128 232.32 172.128 232.88V242H169.968V232.736C169.968 232.448 169.92 232.264 169.824 232.184C169.728 232.088 169.536 232.04 169.248 232.04H168.408C168.12 232.04 167.912 232.104 167.784 232.232C167.672 232.36 167.616 232.576 167.616 232.88V242H165.456V230.288H167.616V231.224C167.824 230.6 168.32 230.288 169.104 230.288H169.944C170.968 230.288 171.632 230.648 171.936 231.368C172.128 230.648 172.688 230.288 173.616 230.288ZM186.681 225.944H188.842V242H186.681V241.064C186.474 241.688 185.977 242 185.193 242H184.329C182.889 242 182.169 241.296 182.169 239.888V232.4C182.169 230.976 182.889 230.264 184.329 230.264H185.193C185.977 230.264 186.474 230.576 186.681 231.2V225.944ZM185.049 240.248H185.889C186.177 240.248 186.377 240.184 186.489 240.056C186.617 239.928 186.681 239.712 186.681 239.408V232.856C186.681 232.552 186.617 232.336 186.489 232.208C186.377 232.08 186.177 232.016 185.889 232.016H185.049C184.761 232.016 184.569 232.064 184.473 232.16C184.377 232.256 184.329 232.44 184.329 232.712V239.552C184.329 239.84 184.377 240.032 184.473 240.128C184.569 240.208 184.761 240.248 185.049 240.248ZM193.17 230.288H195.738C197.226 230.288 197.97 231 197.97 232.424V239.888C197.97 241.296 197.226 242 195.738 242H193.17C191.698 242 190.962 241.296 190.962 239.888V232.424C190.962 231 191.698 230.288 193.17 230.288ZM195.834 239.576V232.712C195.834 232.424 195.786 232.232 195.69 232.136C195.594 232.04 195.402 231.992 195.114 231.992H193.794C193.506 231.992 193.314 232.04 193.218 232.136C193.138 232.232 193.098 232.424 193.098 232.712V239.576C193.098 239.864 193.138 240.056 193.218 240.152C193.314 240.248 193.506 240.296 193.794 240.296H195.114C195.402 240.296 195.594 240.248 195.69 240.152C195.786 240.056 195.834 239.864 195.834 239.576ZM202.245 242H200.085V225.944H202.245V242ZM206.558 230.288H209.126C210.614 230.288 211.358 231 211.358 232.424V239.888C211.358 241.296 210.614 242 209.126 242H206.558C205.086 242 204.35 241.296 204.35 239.888V232.424C204.35 231 205.086 230.288 206.558 230.288ZM209.222 239.576V232.712C209.222 232.424 209.174 232.232 209.078 232.136C208.982 232.04 208.79 231.992 208.502 231.992H207.182C206.894 231.992 206.702 232.04 206.606 232.136C206.526 232.232 206.486 232.424 206.486 232.712V239.576C206.486 239.864 206.526 240.056 206.606 240.152C206.702 240.248 206.894 240.296 207.182 240.296H208.502C208.79 240.296 208.982 240.248 209.078 240.152C209.174 240.056 209.222 239.864 209.222 239.576ZM217.529 230.264H218.009V232.136H217.145C216.137 232.136 215.633 232.728 215.633 233.912V242H213.473V230.288H215.633V231.728C215.761 231.312 215.985 230.968 216.305 230.696C216.641 230.408 217.049 230.264 217.529 230.264ZM226.813 239.648V237.704C226.813 237.416 226.765 237.232 226.669 237.152C226.573 237.056 226.381 237.008 226.093 237.008H224.869C223.381 237.008 222.637 236.304 222.637 234.896V232.424C222.637 231 223.381 230.288 224.869 230.288H226.621C228.125 230.288 228.877 231 228.877 232.424V233.552H226.765V232.64C226.765 232.352 226.717 232.168 226.621 232.088C226.525 231.992 226.333 231.944 226.045 231.944H225.469C225.181 231.944 224.989 231.992 224.893 232.088C224.797 232.168 224.749 232.352 224.749 232.64V234.656C224.749 234.944 224.797 235.136 224.893 235.232C224.989 235.312 225.181 235.352 225.469 235.352H226.717C228.189 235.352 228.925 236.064 228.925 237.488V239.888C228.925 241.296 228.181 242 226.693 242H224.917C223.429 242 222.685 241.296 222.685 239.888V238.736H224.797V239.648C224.797 239.936 224.845 240.128 224.941 240.224C225.037 240.304 225.229 240.344 225.517 240.344H226.093C226.381 240.344 226.573 240.304 226.669 240.224C226.765 240.128 226.813 239.936 226.813 239.648ZM230.848 228.056V225.92H233.104V228.056H230.848ZM233.056 242H230.896V230.288H233.056V242ZM239.241 232.04H237.633V239.456C237.633 239.744 237.673 239.936 237.753 240.032C237.849 240.112 238.041 240.152 238.329 240.152H239.241V242H237.705C236.201 242 235.449 241.296 235.449 239.888V232.04H234.345V230.288H235.449V228.296H237.633V230.288H239.241V232.04ZM248.608 230.288H250.768V242H248.608V241.064C248.4 241.688 247.904 242 247.12 242H246.256C244.816 242 244.096 241.296 244.096 239.888V232.424C244.096 231 244.816 230.288 246.256 230.288H247.12C247.904 230.288 248.4 230.6 248.608 231.224V230.288ZM246.976 240.248H247.816C248.104 240.248 248.304 240.184 248.416 240.056C248.544 239.928 248.608 239.712 248.608 239.408V232.88C248.608 232.576 248.544 232.36 248.416 232.232C248.304 232.104 248.104 232.04 247.816 232.04H246.976C246.688 232.04 246.496 232.088 246.4 232.184C246.304 232.264 246.256 232.448 246.256 232.736V239.552C246.256 239.84 246.304 240.032 246.4 240.128C246.496 240.208 246.688 240.248 246.976 240.248ZM261.168 230.288H262.008C263.448 230.288 264.168 231 264.168 232.424V242H262.008V232.736C262.008 232.448 261.96 232.264 261.864 232.184C261.784 232.088 261.6 232.04 261.312 232.04H260.448C259.936 232.04 259.68 232.32 259.68 232.88V242H257.52V232.736C257.52 232.448 257.472 232.264 257.376 232.184C257.28 232.088 257.088 232.04 256.8 232.04H255.96C255.672 232.04 255.464 232.104 255.336 232.232C255.224 232.36 255.168 232.576 255.168 232.88V242H253.008V230.288H255.168V231.224C255.376 230.6 255.872 230.288 256.656 230.288H257.496C258.52 230.288 259.184 230.648 259.488 231.368C259.68 230.648 260.24 230.288 261.168 230.288ZM268.461 230.288H270.813C272.317 230.288 273.069 231 273.069 232.424V236.816H268.341V239.6C268.341 239.872 268.389 240.056 268.485 240.152C268.581 240.248 268.773 240.296 269.061 240.296H270.165C270.453 240.296 270.645 240.248 270.741 240.152C270.837 240.056 270.885 239.864 270.885 239.576V238.616H272.997V239.888C272.997 241.296 272.253 242 270.765 242H268.461C266.973 242 266.229 241.296 266.229 239.888V232.424C266.229 231 266.973 230.288 268.461 230.288ZM268.341 235.232H270.933V232.688C270.933 232.416 270.885 232.232 270.789 232.136C270.709 232.04 270.525 231.992 270.237 231.992H269.061C268.773 231.992 268.581 232.04 268.485 232.136C268.389 232.232 268.341 232.416 268.341 232.688V235.232ZM279.005 232.04H277.397V239.456C277.397 239.744 277.437 239.936 277.517 240.032C277.613 240.112 277.805 240.152 278.093 240.152H279.005V242H277.469C275.965 242 275.213 241.296 275.213 239.888V232.04H274.109V230.288H275.213V228.296H277.397V230.288H279.005V232.04ZM280.127 239.048H282.551V240.608L280.895 245.36H280.127V239.048ZM95.7969 269.984H93.6609V268.736C93.6609 268.448 93.6129 268.264 93.5169 268.184C93.4209 268.088 93.2289 268.04 92.9409 268.04H91.9089C91.6209 268.04 91.4289 268.088 91.3329 268.184C91.2369 268.264 91.1889 268.448 91.1889 268.736V275.552C91.1889 275.84 91.2369 276.032 91.3329 276.128C91.4289 276.208 91.6209 276.248 91.9089 276.248H92.9409C93.2289 276.248 93.4209 276.208 93.5169 276.128C93.6129 276.032 93.6609 275.84 93.6609 275.552V274.304H95.7969V275.888C95.7969 277.296 95.0449 278 93.5409 278H91.2609C89.7729 278 89.0289 277.296 89.0289 275.888V268.424C89.0289 267 89.7729 266.288 91.2609 266.288H93.5409C95.0449 266.288 95.7969 267 95.7969 268.424V269.984ZM99.7949 266.288H102.363C103.851 266.288 104.595 267 104.595 268.424V275.888C104.595 277.296 103.851 278 102.363 278H99.7949C98.3229 278 97.5869 277.296 97.5869 275.888V268.424C97.5869 267 98.3229 266.288 99.7949 266.288ZM102.459 275.576V268.712C102.459 268.424 102.411 268.232 102.315 268.136C102.219 268.04 102.027 267.992 101.739 267.992H100.419C100.131 267.992 99.9389 268.04 99.8429 268.136C99.7629 268.232 99.7229 268.424 99.7229 268.712V275.576C99.7229 275.864 99.7629 276.056 99.8429 276.152C99.9389 276.248 100.131 276.296 100.419 276.296H101.739C102.027 276.296 102.219 276.248 102.315 276.152C102.411 276.056 102.459 275.864 102.459 275.576ZM110.358 266.288H111.198C112.654 266.288 113.382 267 113.382 268.424V278H111.222V268.736C111.222 268.448 111.174 268.264 111.078 268.184C110.982 268.088 110.79 268.04 110.502 268.04H109.662C109.374 268.04 109.166 268.104 109.038 268.232C108.926 268.36 108.87 268.576 108.87 268.88V278H106.71V266.288H108.87V267.224C109.078 266.6 109.574 266.288 110.358 266.288ZM119.507 275.648V273.704C119.507 273.416 119.459 273.232 119.363 273.152C119.267 273.056 119.075 273.008 118.787 273.008H117.563C116.075 273.008 115.331 272.304 115.331 270.896V268.424C115.331 267 116.075 266.288 117.563 266.288H119.315C120.819 266.288 121.571 267 121.571 268.424V269.552H119.459V268.64C119.459 268.352 119.411 268.168 119.315 268.088C119.219 267.992 119.027 267.944 118.739 267.944H118.163C117.875 267.944 117.683 267.992 117.587 268.088C117.491 268.168 117.443 268.352 117.443 268.64V270.656C117.443 270.944 117.491 271.136 117.587 271.232C117.683 271.312 117.875 271.352 118.163 271.352H119.411C120.883 271.352 121.619 272.064 121.619 273.488V275.888C121.619 277.296 120.875 278 119.387 278H117.611C116.123 278 115.379 277.296 115.379 275.888V274.736H117.491V275.648C117.491 275.936 117.539 276.128 117.635 276.224C117.731 276.304 117.923 276.344 118.211 276.344H118.787C119.075 276.344 119.267 276.304 119.363 276.224C119.459 276.128 119.507 275.936 119.507 275.648ZM125.774 266.288H128.126C129.63 266.288 130.382 267 130.382 268.424V272.816H125.654V275.6C125.654 275.872 125.702 276.056 125.798 276.152C125.894 276.248 126.086 276.296 126.374 276.296H127.478C127.766 276.296 127.958 276.248 128.054 276.152C128.15 276.056 128.198 275.864 128.198 275.576V274.616H130.31V275.888C130.31 277.296 129.566 278 128.078 278H125.774C124.286 278 123.542 277.296 123.542 275.888V268.424C123.542 267 124.286 266.288 125.774 266.288ZM125.654 271.232H128.246V268.688C128.246 268.416 128.198 268.232 128.102 268.136C128.022 268.04 127.838 267.992 127.55 267.992H126.374C126.086 267.992 125.894 268.04 125.798 268.136C125.702 268.232 125.654 268.416 125.654 268.688V271.232ZM138.983 269.984H136.847V268.736C136.847 268.448 136.799 268.264 136.703 268.184C136.607 268.088 136.415 268.04 136.127 268.04H135.095C134.807 268.04 134.615 268.088 134.519 268.184C134.423 268.264 134.375 268.448 134.375 268.736V275.552C134.375 275.84 134.423 276.032 134.519 276.128C134.615 276.208 134.807 276.248 135.095 276.248H136.127C136.415 276.248 136.607 276.208 136.703 276.128C136.799 276.032 136.847 275.84 136.847 275.552V274.304H138.983V275.888C138.983 277.296 138.231 278 136.727 278H134.447C132.959 278 132.215 277.296 132.215 275.888V268.424C132.215 267 132.959 266.288 134.447 266.288H136.727C138.231 266.288 138.983 267 138.983 268.424V269.984ZM144.853 268.04H143.245V275.456C143.245 275.744 143.285 275.936 143.365 276.032C143.461 276.112 143.653 276.152 143.941 276.152H144.853V278H143.317C141.813 278 141.061 277.296 141.061 275.888V268.04H139.957V266.288H141.061V264.296H143.245V266.288H144.853V268.04ZM148.447 266.288H150.799C152.303 266.288 153.055 267 153.055 268.424V272.816H148.327V275.6C148.327 275.872 148.375 276.056 148.471 276.152C148.567 276.248 148.759 276.296 149.047 276.296H150.151C150.439 276.296 150.631 276.248 150.727 276.152C150.823 276.056 150.871 275.864 150.871 275.576V274.616H152.983V275.888C152.983 277.296 152.239 278 150.751 278H148.447C146.959 278 146.215 277.296 146.215 275.888V268.424C146.215 267 146.959 266.288 148.447 266.288ZM148.327 271.232H150.919V268.688C150.919 268.416 150.871 268.232 150.775 268.136C150.695 268.04 150.511 267.992 150.223 267.992H149.047C148.759 267.992 148.567 268.04 148.471 268.136C148.375 268.232 148.327 268.416 148.327 268.688V271.232ZM158.991 268.04H157.383V275.456C157.383 275.744 157.423 275.936 157.503 276.032C157.599 276.112 157.791 276.152 158.079 276.152H158.991V278H157.455C155.951 278 155.199 277.296 155.199 275.888V268.04H154.095V266.288H155.199V264.296H157.383V266.288H158.991V268.04ZM164.889 266.288H167.049V278H164.889V277.064C164.681 277.688 164.185 278 163.401 278H162.537C161.097 278 160.377 277.296 160.377 275.888V266.288H162.537V275.552C162.537 275.84 162.585 276.032 162.681 276.128C162.777 276.208 162.969 276.248 163.257 276.248H164.097C164.385 276.248 164.585 276.184 164.697 276.056C164.825 275.928 164.889 275.712 164.889 275.408V266.288ZM173.343 266.264H173.823V268.136H172.959C171.951 268.136 171.447 268.728 171.447 269.912V278H169.287V266.288H171.447V267.728C171.575 267.312 171.799 266.968 172.119 266.696C172.455 266.408 172.863 266.264 173.343 266.264ZM183.082 266.288H185.242V278H183.082V277.064C182.874 277.688 182.378 278 181.594 278H180.73C179.29 278 178.57 277.296 178.57 275.888V268.424C178.57 267 179.29 266.288 180.73 266.288H181.594C182.378 266.288 182.874 266.6 183.082 267.224V266.288ZM181.45 276.248H182.29C182.578 276.248 182.778 276.184 182.89 276.056C183.018 275.928 183.082 275.712 183.082 275.408V268.88C183.082 268.576 183.018 268.36 182.89 268.232C182.778 268.104 182.578 268.04 182.29 268.04H181.45C181.162 268.04 180.97 268.088 180.874 268.184C180.778 268.264 180.73 268.448 180.73 268.736V275.552C180.73 275.84 180.778 276.032 180.874 276.128C180.97 276.208 181.162 276.248 181.45 276.248ZM191.851 261.944H194.011V278H191.851V277.064C191.643 277.688 191.147 278 190.363 278H189.499C188.059 278 187.339 277.296 187.339 275.888V268.4C187.339 266.976 188.059 266.264 189.499 266.264H190.363C191.147 266.264 191.643 266.576 191.851 267.2V261.944ZM190.219 276.248H191.059C191.347 276.248 191.547 276.184 191.659 276.056C191.787 275.928 191.851 275.712 191.851 275.408V268.856C191.851 268.552 191.787 268.336 191.659 268.208C191.547 268.08 191.347 268.016 191.059 268.016H190.219C189.931 268.016 189.739 268.064 189.643 268.16C189.547 268.256 189.499 268.44 189.499 268.712V275.552C189.499 275.84 189.547 276.032 189.643 276.128C189.739 276.208 189.931 276.248 190.219 276.248ZM196.203 264.056V261.92H198.459V264.056H196.203ZM198.411 278H196.251V266.288H198.411V278ZM204.285 266.288H205.125C206.581 266.288 207.309 267 207.309 268.424V275.888C207.309 277.296 206.581 278 205.125 278H204.285C203.501 278 203.005 277.688 202.797 277.064V281.312H200.637V266.288H202.797V267.224C203.005 266.6 203.501 266.288 204.285 266.288ZM205.149 275.552V268.736C205.149 268.448 205.101 268.264 205.005 268.184C204.909 268.088 204.717 268.04 204.429 268.04H203.589C203.301 268.04 203.093 268.104 202.965 268.232C202.853 268.36 202.797 268.576 202.797 268.88V275.408C202.797 275.712 202.853 275.928 202.965 276.056C203.093 276.184 203.301 276.248 203.589 276.248H204.429C204.717 276.248 204.909 276.208 205.005 276.128C205.101 276.032 205.149 275.84 205.149 275.552ZM209.357 264.056V261.92H211.613V264.056H209.357ZM211.565 278H209.405V266.288H211.565V278ZM217.703 275.648V273.704C217.703 273.416 217.655 273.232 217.559 273.152C217.463 273.056 217.271 273.008 216.983 273.008H215.759C214.271 273.008 213.527 272.304 213.527 270.896V268.424C213.527 267 214.271 266.288 215.759 266.288H217.511C219.015 266.288 219.767 267 219.767 268.424V269.552H217.655V268.64C217.655 268.352 217.607 268.168 217.511 268.088C217.415 267.992 217.223 267.944 216.935 267.944H216.359C216.071 267.944 215.879 267.992 215.783 268.088C215.687 268.168 215.639 268.352 215.639 268.64V270.656C215.639 270.944 215.687 271.136 215.783 271.232C215.879 271.312 216.071 271.352 216.359 271.352H217.607C219.079 271.352 219.815 272.064 219.815 273.488V275.888C219.815 277.296 219.071 278 217.583 278H215.807C214.319 278 213.575 277.296 213.575 275.888V274.736H215.687V275.648C215.687 275.936 215.735 276.128 215.831 276.224C215.927 276.304 216.119 276.344 216.407 276.344H216.983C217.271 276.344 217.463 276.304 217.559 276.224C217.655 276.128 217.703 275.936 217.703 275.648ZM228.41 269.984H226.274V268.736C226.274 268.448 226.226 268.264 226.13 268.184C226.034 268.088 225.842 268.04 225.554 268.04H224.522C224.234 268.04 224.042 268.088 223.946 268.184C223.85 268.264 223.802 268.448 223.802 268.736V275.552C223.802 275.84 223.85 276.032 223.946 276.128C224.042 276.208 224.234 276.248 224.522 276.248H225.554C225.842 276.248 226.034 276.208 226.13 276.128C226.226 276.032 226.274 275.84 226.274 275.552V274.304H228.41V275.888C228.41 277.296 227.658 278 226.154 278H223.874C222.386 278 221.642 277.296 221.642 275.888V268.424C221.642 267 222.386 266.288 223.874 266.288H226.154C227.658 266.288 228.41 267 228.41 268.424V269.984ZM230.272 264.056V261.92H232.528V264.056H230.272ZM232.48 278H230.32V266.288H232.48V278ZM238.354 266.288H239.194C240.65 266.288 241.378 267 241.378 268.424V278H239.218V268.736C239.218 268.448 239.17 268.264 239.074 268.184C238.978 268.088 238.786 268.04 238.498 268.04H237.658C237.37 268.04 237.162 268.104 237.034 268.232C236.922 268.36 236.866 268.576 236.866 268.88V278H234.706V266.288H236.866V267.224C237.074 266.6 237.57 266.288 238.354 266.288ZM247.959 266.288H250.119V279.2C250.119 280.608 249.367 281.312 247.863 281.312H243.855V279.608H247.239C247.527 279.608 247.719 279.56 247.815 279.464C247.911 279.368 247.959 279.184 247.959 278.912V276.92C247.751 277.544 247.255 277.856 246.471 277.856H245.607C244.167 277.856 243.447 277.144 243.447 275.72V268.424C243.447 267 244.167 266.288 245.607 266.288H246.471C247.255 266.288 247.751 266.6 247.959 267.224V266.288ZM246.327 276.104H247.167C247.455 276.104 247.655 276.04 247.767 275.912C247.895 275.784 247.959 275.568 247.959 275.264V268.88C247.959 268.576 247.895 268.36 247.767 268.232C247.655 268.104 247.455 268.04 247.167 268.04H246.327C246.039 268.04 245.847 268.088 245.751 268.184C245.655 268.264 245.607 268.448 245.607 268.736V275.408C245.607 275.68 245.655 275.864 245.751 275.96C245.847 276.056 246.039 276.104 246.327 276.104ZM258.132 266.288H260.484C261.988 266.288 262.74 267 262.74 268.424V272.816H258.012V275.6C258.012 275.872 258.06 276.056 258.156 276.152C258.252 276.248 258.444 276.296 258.732 276.296H259.836C260.124 276.296 260.316 276.248 260.412 276.152C260.508 276.056 260.556 275.864 260.556 275.576V274.616H262.668V275.888C262.668 277.296 261.924 278 260.436 278H258.132C256.644 278 255.9 277.296 255.9 275.888V268.424C255.9 267 256.644 266.288 258.132 266.288ZM258.012 271.232H260.604V268.688C260.604 268.416 260.556 268.232 260.46 268.136C260.38 268.04 260.196 267.992 259.908 267.992H258.732C258.444 267.992 258.252 268.04 258.156 268.136C258.06 268.232 258.012 268.416 258.012 268.688V271.232ZM266.877 278H264.717V261.944H266.877V278ZM269.055 264.056V261.92H271.311V264.056H269.055ZM271.263 278H269.103V266.288H271.263V278ZM277.448 268.04H275.84V275.456C275.84 275.744 275.88 275.936 275.96 276.032C276.056 276.112 276.248 276.152 276.536 276.152H277.448V278H275.912C274.408 278 273.656 277.296 273.656 275.888V268.04H272.552V266.288H273.656V264.296H275.84V266.288H277.448V268.04ZM278.57 275.048H280.994V276.608L279.338 281.36H278.57V275.048ZM109.867 311.648V309.704C109.867 309.416 109.819 309.232 109.723 309.152C109.627 309.056 109.435 309.008 109.147 309.008H107.923C106.435 309.008 105.691 308.304 105.691 306.896V304.424C105.691 303 106.435 302.288 107.923 302.288H109.675C111.179 302.288 111.931 303 111.931 304.424V305.552H109.819V304.64C109.819 304.352 109.771 304.168 109.675 304.088C109.579 303.992 109.387 303.944 109.099 303.944H108.523C108.235 303.944 108.043 303.992 107.947 304.088C107.851 304.168 107.803 304.352 107.803 304.64V306.656C107.803 306.944 107.851 307.136 107.947 307.232C108.043 307.312 108.235 307.352 108.523 307.352H109.771C111.243 307.352 111.979 308.064 111.979 309.488V311.888C111.979 313.296 111.235 314 109.747 314H107.971C106.483 314 105.739 313.296 105.739 311.888V310.736H107.851V311.648C107.851 311.936 107.899 312.128 107.995 312.224C108.091 312.304 108.283 312.344 108.571 312.344H109.147C109.435 312.344 109.627 312.304 109.723 312.224C109.819 312.128 109.867 311.936 109.867 311.648ZM116.134 302.288H118.486C119.99 302.288 120.742 303 120.742 304.424V308.816H116.014V311.6C116.014 311.872 116.062 312.056 116.158 312.152C116.254 312.248 116.446 312.296 116.734 312.296H117.838C118.126 312.296 118.318 312.248 118.414 312.152C118.51 312.056 118.558 311.864 118.558 311.576V310.616H120.67V311.888C120.67 313.296 119.926 314 118.438 314H116.134C114.646 314 113.902 313.296 113.902 311.888V304.424C113.902 303 114.646 302.288 116.134 302.288ZM116.014 307.232H118.606V304.688C118.606 304.416 118.558 304.232 118.462 304.136C118.382 304.04 118.198 303.992 117.91 303.992H116.734C116.446 303.992 116.254 304.04 116.158 304.136C116.062 304.232 116.014 304.416 116.014 304.688V307.232ZM127.086 297.944H129.246V314H127.086V313.064C126.878 313.688 126.382 314 125.598 314H124.734C123.294 314 122.574 313.296 122.574 311.888V304.4C122.574 302.976 123.294 302.264 124.734 302.264H125.598C126.382 302.264 126.878 302.576 127.086 303.2V297.944ZM125.454 312.248H126.294C126.582 312.248 126.782 312.184 126.894 312.056C127.022 311.928 127.086 311.712 127.086 311.408V304.856C127.086 304.552 127.022 304.336 126.894 304.208C126.782 304.08 126.582 304.016 126.294 304.016H125.454C125.166 304.016 124.974 304.064 124.878 304.16C124.782 304.256 124.734 304.44 124.734 304.712V311.552C124.734 311.84 124.782 312.032 124.878 312.128C124.974 312.208 125.166 312.248 125.454 312.248ZM139.444 297.944H141.604V314H139.444V313.064C139.236 313.688 138.74 314 137.956 314H137.092C135.652 314 134.932 313.296 134.932 311.888V304.4C134.932 302.976 135.652 302.264 137.092 302.264H137.956C138.74 302.264 139.236 302.576 139.444 303.2V297.944ZM137.812 312.248H138.652C138.94 312.248 139.14 312.184 139.252 312.056C139.38 311.928 139.444 311.712 139.444 311.408V304.856C139.444 304.552 139.38 304.336 139.252 304.208C139.14 304.08 138.94 304.016 138.652 304.016H137.812C137.524 304.016 137.332 304.064 137.236 304.16C137.14 304.256 137.092 304.44 137.092 304.712V311.552C137.092 311.84 137.14 312.032 137.236 312.128C137.332 312.208 137.524 312.248 137.812 312.248ZM145.932 302.288H148.5C149.988 302.288 150.732 303 150.732 304.424V311.888C150.732 313.296 149.988 314 148.5 314H145.932C144.46 314 143.724 313.296 143.724 311.888V304.424C143.724 303 144.46 302.288 145.932 302.288ZM148.596 311.576V304.712C148.596 304.424 148.548 304.232 148.452 304.136C148.356 304.04 148.164 303.992 147.876 303.992H146.556C146.268 303.992 146.076 304.04 145.98 304.136C145.9 304.232 145.86 304.424 145.86 304.712V311.576C145.86 311.864 145.9 312.056 145.98 312.152C146.076 312.248 146.268 312.296 146.556 312.296H147.876C148.164 312.296 148.356 312.248 148.452 312.152C148.548 312.056 148.596 311.864 148.596 311.576ZM158.62 302.288H160.972C162.476 302.288 163.228 303 163.228 304.424V308.816H158.5V311.6C158.5 311.872 158.548 312.056 158.644 312.152C158.74 312.248 158.932 312.296 159.22 312.296H160.324C160.612 312.296 160.804 312.248 160.9 312.152C160.996 312.056 161.044 311.864 161.044 311.576V310.616H163.156V311.888C163.156 313.296 162.412 314 160.924 314H158.62C157.132 314 156.388 313.296 156.388 311.888V304.424C156.388 303 157.132 302.288 158.62 302.288ZM158.5 307.232H161.092V304.688C161.092 304.416 161.044 304.232 160.948 304.136C160.868 304.04 160.684 303.992 160.396 303.992H159.22C158.932 303.992 158.74 304.04 158.644 304.136C158.548 304.232 158.5 304.416 158.5 304.688V307.232ZM165.156 300.056V297.92H167.412V300.056H165.156ZM167.364 314H165.204V302.288H167.364V314ZM174.078 302.288H176.238V314H174.078V313.064C173.87 313.688 173.374 314 172.59 314H171.726C170.286 314 169.566 313.296 169.566 311.888V302.288H171.726V311.552C171.726 311.84 171.774 312.032 171.87 312.128C171.966 312.208 172.158 312.248 172.446 312.248H173.286C173.574 312.248 173.774 312.184 173.886 312.056C174.014 311.928 174.078 311.712 174.078 311.408V302.288ZM182.387 311.648V309.704C182.387 309.416 182.339 309.232 182.243 309.152C182.147 309.056 181.955 309.008 181.667 309.008H180.443C178.955 309.008 178.211 308.304 178.211 306.896V304.424C178.211 303 178.955 302.288 180.443 302.288H182.195C183.699 302.288 184.451 303 184.451 304.424V305.552H182.339V304.64C182.339 304.352 182.291 304.168 182.195 304.088C182.099 303.992 181.907 303.944 181.619 303.944H181.043C180.755 303.944 180.563 303.992 180.467 304.088C180.371 304.168 180.323 304.352 180.323 304.64V306.656C180.323 306.944 180.371 307.136 180.467 307.232C180.563 307.312 180.755 307.352 181.043 307.352H182.291C183.763 307.352 184.499 308.064 184.499 309.488V311.888C184.499 313.296 183.755 314 182.267 314H180.491C179.003 314 178.259 313.296 178.259 311.888V310.736H180.371V311.648C180.371 311.936 180.419 312.128 180.515 312.224C180.611 312.304 180.803 312.344 181.091 312.344H181.667C181.955 312.344 182.147 312.304 182.243 312.224C182.339 312.128 182.387 311.936 182.387 311.648ZM194.63 302.288H195.47C196.91 302.288 197.63 303 197.63 304.424V314H195.47V304.736C195.47 304.448 195.422 304.264 195.326 304.184C195.246 304.088 195.062 304.04 194.774 304.04H193.91C193.398 304.04 193.142 304.32 193.142 304.88V314H190.982V304.736C190.982 304.448 190.934 304.264 190.838 304.184C190.742 304.088 190.55 304.04 190.262 304.04H189.422C189.134 304.04 188.926 304.104 188.798 304.232C188.686 304.36 188.63 304.576 188.63 304.88V314H186.47V302.288H188.63V303.224C188.838 302.6 189.334 302.288 190.118 302.288H190.958C191.982 302.288 192.646 302.648 192.95 303.368C193.142 302.648 193.702 302.288 194.63 302.288ZM201.827 302.288H204.395C205.883 302.288 206.627 303 206.627 304.424V311.888C206.627 313.296 205.883 314 204.395 314H201.827C200.355 314 199.619 313.296 199.619 311.888V304.424C199.619 303 200.355 302.288 201.827 302.288ZM204.491 311.576V304.712C204.491 304.424 204.443 304.232 204.347 304.136C204.251 304.04 204.059 303.992 203.771 303.992H202.451C202.163 303.992 201.971 304.04 201.875 304.136C201.795 304.232 201.755 304.424 201.755 304.712V311.576C201.755 311.864 201.795 312.056 201.875 312.152C201.971 312.248 202.163 312.296 202.451 312.296H203.771C204.059 312.296 204.251 312.248 204.347 312.152C204.443 312.056 204.491 311.864 204.491 311.576ZM213.11 297.944H215.27V314H213.11V313.064C212.902 313.688 212.406 314 211.622 314H210.758C209.318 314 208.598 313.296 208.598 311.888V304.4C208.598 302.976 209.318 302.264 210.758 302.264H211.622C212.406 302.264 212.902 302.576 213.11 303.2V297.944ZM211.478 312.248H212.318C212.606 312.248 212.806 312.184 212.918 312.056C213.046 311.928 213.11 311.712 213.11 311.408V304.856C213.11 304.552 213.046 304.336 212.918 304.208C212.806 304.08 212.606 304.016 212.318 304.016H211.478C211.19 304.016 210.998 304.064 210.902 304.16C210.806 304.256 210.758 304.44 210.758 304.712V311.552C210.758 311.84 210.806 312.032 210.902 312.128C210.998 312.208 211.19 312.248 211.478 312.248ZM225.059 304.04H223.451V311.456C223.451 311.744 223.491 311.936 223.571 312.032C223.667 312.112 223.859 312.152 224.147 312.152H225.059V314H223.523C222.019 314 221.267 313.296 221.267 311.888V304.04H220.163V302.288H221.267V300.296H223.451V302.288H225.059V304.04ZM228.653 302.288H231.005C232.509 302.288 233.261 303 233.261 304.424V308.816H228.533V311.6C228.533 311.872 228.581 312.056 228.677 312.152C228.773 312.248 228.965 312.296 229.253 312.296H230.357C230.645 312.296 230.837 312.248 230.933 312.152C231.029 312.056 231.077 311.864 231.077 311.576V310.616H233.189V311.888C233.189 313.296 232.445 314 230.957 314H228.653C227.165 314 226.421 313.296 226.421 311.888V304.424C226.421 303 227.165 302.288 228.653 302.288ZM228.533 307.232H231.125V304.688C231.125 304.416 231.077 304.232 230.981 304.136C230.901 304.04 230.717 303.992 230.429 303.992H229.253C228.965 303.992 228.773 304.04 228.677 304.136C228.581 304.232 228.533 304.416 228.533 304.688V307.232ZM243.397 302.288H244.237C245.677 302.288 246.397 303 246.397 304.424V314H244.237V304.736C244.237 304.448 244.189 304.264 244.093 304.184C244.013 304.088 243.829 304.04 243.541 304.04H242.677C242.165 304.04 241.909 304.32 241.909 304.88V314H239.749V304.736C239.749 304.448 239.701 304.264 239.605 304.184C239.509 304.088 239.317 304.04 239.029 304.04H238.189C237.901 304.04 237.693 304.104 237.565 304.232C237.453 304.36 237.397 304.576 237.397 304.88V314H235.237V302.288H237.397V303.224C237.605 302.6 238.101 302.288 238.885 302.288H239.725C240.749 302.288 241.413 302.648 241.717 303.368C241.909 302.648 242.469 302.288 243.397 302.288ZM252.154 302.288H252.994C254.45 302.288 255.178 303 255.178 304.424V311.888C255.178 313.296 254.45 314 252.994 314H252.154C251.37 314 250.874 313.688 250.666 313.064V317.312H248.506V302.288H250.666V303.224C250.874 302.6 251.37 302.288 252.154 302.288ZM253.018 311.552V304.736C253.018 304.448 252.97 304.264 252.874 304.184C252.778 304.088 252.586 304.04 252.298 304.04H251.458C251.17 304.04 250.962 304.104 250.834 304.232C250.722 304.36 250.666 304.576 250.666 304.88V311.408C250.666 311.712 250.722 311.928 250.834 312.056C250.962 312.184 251.17 312.248 251.458 312.248H252.298C252.586 312.248 252.778 312.208 252.874 312.128C252.97 312.032 253.018 311.84 253.018 311.552ZM259.362 302.288H261.93C263.418 302.288 264.162 303 264.162 304.424V311.888C264.162 313.296 263.418 314 261.93 314H259.362C257.89 314 257.154 313.296 257.154 311.888V304.424C257.154 303 257.89 302.288 259.362 302.288ZM262.026 311.576V304.712C262.026 304.424 261.978 304.232 261.882 304.136C261.786 304.04 261.594 303.992 261.306 303.992H259.986C259.698 303.992 259.506 304.04 259.41 304.136C259.33 304.232 259.29 304.424 259.29 304.712V311.576C259.29 311.864 259.33 312.056 259.41 312.152C259.506 312.248 259.698 312.296 259.986 312.296H261.306C261.594 312.296 261.786 312.248 261.882 312.152C261.978 312.056 262.026 311.864 262.026 311.576Z" fill="#A0A0A0"/>
<path d="M204.688 90.3002V121.212C198.395 138.475 182.492 139.581 182.492 139.581C181.812 139.305 181.153 138.986 180.515 138.624C167.993 131.566 162.593 108.988 162.593 108.988V77.1403L181.323 66L204.688 90.3002Z" fill="url(#paint0_linear_701_3)"/>
<path d="M204.688 90.3003V121.212C198.395 138.476 182.492 139.581 182.492 139.581C181.812 139.305 181.153 138.986 180.515 138.624L201.137 92.4263L204.688 90.3003Z" fill="url(#paint1_linear_701_3)"/>
<path d="M159 81.2436V111.156C159 111.156 164.974 136.095 178.899 141.75C178.899 141.75 194.802 140.644 201.116 123.381V92.4264L177.751 68.1475L160.68 78.2885C159.638 78.905 159 80.0318 159 81.2436Z" fill="url(#paint2_linear_701_3)"/>
<path d="M212.15 152.209C212.15 153.209 211.342 154.017 210.364 154.017C210.045 154.017 209.726 153.932 209.45 153.783L206.707 152.188L194.143 144.875C193.59 144.556 193.25 143.961 193.25 143.323V128.505L189.763 126.57L194.249 124.529C194.781 124.253 195.44 124.274 195.95 124.571L211.257 133.394C211.406 133.479 211.533 133.586 211.661 133.713C211.767 133.841 211.874 133.968 211.959 134.117C212.107 134.372 212.171 134.67 212.171 134.968V152.209H212.15Z" fill="url(#paint3_linear_701_3)"/>
<path d="M197.055 127.994C196.694 128.164 196.29 128.186 195.907 128.058C195.44 127.909 195.142 127.463 195.142 126.974V121.701C195.142 120.468 195.482 119.278 196.163 118.236C196.97 117.024 198.374 115.833 200.819 115.706C205.9 115.451 208.111 121.255 208.026 124.316V132.714C208.026 133.267 207.622 133.713 207.09 133.798C206.537 133.862 205.878 133.777 205.368 133.139C205.304 133.075 205.283 132.99 205.283 132.905V124.678C205.283 124.678 205.602 120.574 202.668 119.086C199.458 117.449 197.672 120.532 197.672 121.616L197.736 126.91C197.736 127.356 197.459 127.782 197.055 127.994Z" fill="url(#paint4_linear_701_3)"/>
<path d="M212.15 152.209C212.15 152.932 211.725 153.591 211.044 153.868L206.495 155.909L206.686 152.167L207.451 136.626L211.916 134.117C212.065 134.372 212.129 134.67 212.129 134.968L212.15 152.209Z" fill="url(#paint5_linear_701_3)"/>
<path d="M188.87 128.122V145.3C188.87 145.938 189.21 146.533 189.763 146.852L205.07 155.76C205.921 156.249 207.026 155.972 207.536 155.101C207.707 154.824 207.792 154.505 207.77 154.187V136.923C207.77 136.286 207.43 135.69 206.877 135.371L191.57 126.549C190.72 126.06 189.614 126.357 189.104 127.208C188.955 127.484 188.87 127.803 188.87 128.122Z" fill="url(#paint6_linear_701_3)"/>
<path d="M200.457 141.282C200.436 142.451 199.819 143.216 198.948 143.28L198.926 145.024C198.926 145.406 198.735 145.661 198.459 145.725C198.331 145.746 198.182 145.746 198.055 145.683H198.034C197.566 145.491 197.183 144.875 197.204 144.322L197.226 142.664C196.269 141.898 195.589 140.538 195.61 139.283C195.631 138.072 196.29 137.306 197.204 137.285C197.502 137.285 197.8 137.349 198.076 137.455C198.437 137.604 198.756 137.816 199.033 138.093C199.054 138.114 199.097 138.135 199.118 138.178C199.947 138.943 200.478 140.155 200.457 141.282Z" fill="url(#paint7_linear_701_3)"/>
<path d="M200.457 141.282C200.436 142.451 199.819 143.216 198.948 143.28L198.926 145.024C198.926 145.406 198.735 145.661 198.459 145.725C198.012 145.512 197.651 144.917 197.672 144.386L197.693 142.727C196.737 141.962 196.056 140.601 196.078 139.347C196.099 138.135 196.758 137.37 197.672 137.349C197.821 137.37 197.97 137.434 198.119 137.476C198.459 137.625 198.778 137.838 199.054 138.071C199.075 138.093 199.118 138.114 199.139 138.157C199.947 138.943 200.478 140.155 200.457 141.282Z" fill="url(#paint8_linear_701_3)"/>
<defs>
<filter id="filter0_f_701_3" x="1" y="0" width="368" height="355" filterUnits="userSpaceOnUse" color-interpolation-filters="sRGB">
<feFlood flood-opacity="0" result="BackgroundImageFix"/>
<feBlend mode="normal" in="SourceGraphic" in2="BackgroundImageFix" result="shape"/>
<feGaussianBlur stdDeviation="47.5" result="effect1_foregroundBlur_701_3"/>
</filter>
<filter id="filter1_b_701_3" x="-28" y="67" width="426" height="257" filterUnits="userSpaceOnUse" color-interpolation-filters="sRGB">
<feFlood flood-opacity="0" result="BackgroundImageFix"/>
<feGaussianBlur in="BackgroundImage" stdDeviation="14"/>
<feComposite in2="SourceAlpha" operator="in" result="effect1_backgroundBlur_701_3"/>
<feBlend mode="normal" in="SourceGraphic" in2="effect1_backgroundBlur_701_3" result="shape"/>
</filter>
<filter id="filter2_b_701_3" x="-48" y="47" width="466" height="334" filterUnits="userSpaceOnUse" color-interpolation-filters="sRGB">
<feFlood flood-opacity="0" result="BackgroundImageFix"/>
<feGaussianBlur in="BackgroundImage" stdDeviation="24"/>
<feComposite in2="SourceAlpha" operator="in" result="effect1_backgroundBlur_701_3"/>
<feBlend mode="normal" in="SourceGraphic" in2="effect1_backgroundBlur_701_3" result="shape"/>
</filter>
<linearGradient id="paint0_linear_701_3" x1="225.864" y1="66.3861" x2="161.709" y2="120.187" gradientUnits="userSpaceOnUse">
<stop offset="0.08" stop-color="white"/>
<stop offset="0.51" stop-color="#FD55A4"/>
<stop offset="0.84" stop-color="#B142E5"/>
</linearGradient>
<linearGradient id="paint1_linear_701_3" x1="192.588" y1="77.0174" x2="192.588" y2="111.709" gradientUnits="userSpaceOnUse">
<stop offset="0.16" stop-color="white"/>
<stop offset="0.32" stop-color="#FD55A4"/>
<stop offset="0.84" stop-color="#B142E5"/>
</linearGradient>
<linearGradient id="paint2_linear_701_3" x1="180.056" y1="66.8777" x2="180.056" y2="178.343" gradientUnits="userSpaceOnUse">
<stop stop-color="#FD55A4"/>
<stop offset="0.3" stop-color="#EA50B4"/>
<stop offset="0.92" stop-color="#B844DF"/>
<stop offset="1" stop-color="#B142E5"/>
</linearGradient>
<linearGradient id="paint3_linear_701_3" x1="206.839" y1="114.328" x2="192.715" y2="174.686" gradientUnits="userSpaceOnUse">
<stop stop-color="#F8B65F"/>
<stop offset="0.13" stop-color="#F9A869"/>
<stop offset="0.37" stop-color="#FB8383"/>
<stop offset="0.62" stop-color="#FD55A4"/>
</linearGradient>
<linearGradient id="paint4_linear_701_3" x1="209.214" y1="107.013" x2="191.937" y2="151.624" gradientUnits="userSpaceOnUse">
<stop stop-color="#F29372"/>
<stop offset="0.15" stop-color="#F4857D"/>
<stop offset="0.44" stop-color="#FB609B"/>
<stop offset="0.51" stop-color="#FD55A4"/>
<stop offset="1" stop-color="#B142E5"/>
</linearGradient>
<linearGradient id="paint5_linear_701_3" x1="231.53" y1="145.122" x2="179.14" y2="144.881" gradientUnits="userSpaceOnUse">
<stop stop-color="#F8B65F"/>
<stop offset="0.14" stop-color="#F9A869"/>
<stop offset="0.4" stop-color="#FB8383"/>
<stop offset="0.68" stop-color="#FD55A4"/>
</linearGradient>
<linearGradient id="paint6_linear_701_3" x1="194.879" y1="115.872" x2="208.659" y2="216.675" gradientUnits="userSpaceOnUse">
<stop stop-color="#F8B65F"/>
<stop offset="0.14" stop-color="#F9A869"/>
<stop offset="0.4" stop-color="#FB8383"/>
<stop offset="0.68" stop-color="#FD55A4"/>
</linearGradient>
<linearGradient id="paint7_linear_701_3" x1="208.778" y1="138.21" x2="195.187" y2="142.269" gradientUnits="userSpaceOnUse">
<stop stop-color="#F29372"/>
<stop offset="0.15" stop-color="#F4857D"/>
<stop offset="0.44" stop-color="#FB609B"/>
<stop offset="0.51" stop-color="#FD55A4"/>
<stop offset="1" stop-color="#B142E5"/>
</linearGradient>
<linearGradient id="paint8_linear_701_3" x1="225.782" y1="136.287" x2="186.382" y2="143.737" gradientUnits="userSpaceOnUse">
<stop stop-color="#F29372"/>
<stop offset="0.15" stop-color="#F4857D"/>
<stop offset="0.44" stop-color="#FB609B"/>
<stop offset="0.51" stop-color="#FD55A4"/>
<stop offset="1" stop-color="#B142E5"/>
</linearGradient>
</defs>
</svg>
