<?xml version="1.0" encoding="utf-8"?>
<!-- Generator: Adobe Illustrator 25.3.1, SVG Export Plug-In . SVG Version: 6.00 Build 0)  -->
<svg version="1.1" id="Layer_1" xmlns="http://www.w3.org/2000/svg" xmlns:xlink="http://www.w3.org/1999/xlink" x="0px" y="0px"
	 viewBox="0 0 940 404" style="enable-background:new 0 0 940 404;" xml:space="preserve">
<style type="text/css">
	.st0{fill:#FFFFFF;}
	.st1{fill:#FFFFFF;fill-opacity:8.000000e-02;}
	.st2{fill:none;stroke:url(#SVGID_1_);}
	.st3{fill:none;stroke:url(#SVGID_2_);}
	.st4{fill:none;stroke:url(#SVGID_3_);stroke-width:1.3699;}
	.st5{fill:none;stroke:url(#SVGID_4_);stroke-width:1.3065;}
	.st6{fill:none;stroke:url(#SVGID_5_);stroke-width:1.6935;}
	.st7{fill:none;stroke:url(#SVGID_6_);stroke-width:1.7097;}
	.st8{fill:none;stroke:url(#SVGID_7_);stroke-width:1.2419;}
	.st9{fill:none;stroke:url(#SVGID_8_);stroke-width:1.129;}
	.st10{fill:none;stroke:url(#SVGID_9_);stroke-width:1.1774;}
</style>
<circle class="st0" cx="447" cy="113" r="4"/>
<rect x="446" y="73" class="st0" width="2" height="38"/>
<circle class="st0" cx="380" cy="120" r="4"/>
<rect x="379" y="70" class="st0" width="2" height="48"/>
<circle class="st0" cx="551" cy="128" r="4"/>
<rect x="550" y="88" class="st0" width="2" height="38"/>
<circle class="st0" cx="651" cy="162" r="4"/>
<rect x="650" y="144.2" class="st0" width="2" height="15.8"/>
<circle class="st0" cx="294" cy="135" r="4"/>
<rect x="293" y="80" class="st0" width="2" height="53"/>
<rect x="252.4" y="80" class="st0" width="42.6" height="2"/>
<circle class="st0" cx="642" cy="229" r="4"/>
<rect x="641" y="194" class="st0" width="2" height="33"/>
<rect x="641" y="194" class="st0" width="95.7" height="2.4"/>
<circle class="st0" cx="226" cy="197" r="4"/>
<rect x="225" y="162" class="st0" width="2" height="33"/>
<rect x="115.4" y="162" class="st0" width="111.6" height="2"/>
<circle class="st0" cx="493" cy="315" r="4"/>
<rect x="492" y="317" class="st0" width="2" height="33"/>
<rect x="492" y="349.1" class="st0" width="70.8" height="1.9"/>
<g>
	<ellipse class="st0" cx="301.3" cy="281" rx="2.7" ry="4"/>
	<rect x="300.6" y="283" class="st0" width="1.4" height="33"/>
	<rect x="201" y="315" class="st0" width="101" height="2"/>
</g>
<g>
	<path class="st1" d="M440,11h74c4.4,0,8,3.6,8,8v46c0,4.4-3.6,8-8,8h-74c-4.4,0-8-3.6-8-8V19C432,14.6,435.6,11,440,11z"/>
	
		<linearGradient id="SVGID_1_" gradientUnits="userSpaceOnUse" x1="477" y1="395" x2="477" y2="333" gradientTransform="matrix(1 0 0 -1 0 406)">
		<stop  offset="0" style="stop-color:#54E0FF"/>
		<stop  offset="0.151" style="stop-color:#5160E2;stop-opacity:0.849"/>
		<stop  offset="1" style="stop-color:#0DD3FF;stop-opacity:0.39"/>
	</linearGradient>
	<path class="st2" d="M440,11.5h74c4.1,0,7.5,3.4,7.5,7.5v46c0,4.1-3.4,7.5-7.5,7.5h-74c-4.1,0-7.5-3.4-7.5-7.5V19
		C432.5,14.9,435.9,11.5,440,11.5z"/>
</g>
<path class="st0" d="M440.7,22.2h2.9c0.9,0,1.3,0.4,1.3,1.2v2.9c0,0.8-0.4,1.2-1.3,1.2H442V31h-1.3V22.2z M443.6,26.2v-2.5
	c0-0.2,0-0.3-0.1-0.3c-0.1-0.1-0.2-0.1-0.3-0.1H442v3.3h1.2c0.2,0,0.3,0,0.3-0.1S443.6,26.4,443.6,26.2z M448.5,24.2h1.3V31h-1.3
	v-0.5c-0.1,0.4-0.4,0.5-0.9,0.5h-0.5c-0.8,0-1.3-0.4-1.3-1.2v-5.6h1.3v5.4c0,0.2,0,0.3,0.1,0.3c0.1,0,0.2,0.1,0.3,0.1h0.5
	c0.2,0,0.3,0,0.4-0.1c0.1-0.1,0.1-0.2,0.1-0.4V24.2z M453.1,24.2h0.5c0.9,0,1.3,0.4,1.3,1.2v4.4c0,0.8-0.4,1.2-1.3,1.2h-0.5
	c-0.5,0-0.7-0.2-0.9-0.5V31H451v-9.4h1.3v3.1C452.4,24.3,452.7,24.2,453.1,24.2z M453.7,29.6v-4c0-0.2,0-0.3-0.1-0.3
	s-0.2-0.1-0.3-0.1h-0.5c-0.2,0-0.3,0-0.4,0.1c-0.1,0.1-0.1,0.2-0.1,0.4v3.8c0,0.2,0,0.3,0.1,0.4c0.1,0.1,0.2,0.1,0.4,0.1h0.5
	c0.2,0,0.3,0,0.3-0.1C453.6,29.9,453.7,29.7,453.7,29.6z M457.3,31h-1.3v-9.4h1.3V31z M458.5,22.9v-1.2h1.3v1.2H458.5z M459.8,31
	h-1.3v-6.8h1.3V31z M464.9,26.3h-1.2v-0.7c0-0.2,0-0.3-0.1-0.3c-0.1-0.1-0.2-0.1-0.3-0.1h-0.6c-0.2,0-0.3,0-0.3,0.1
	c-0.1,0-0.1,0.2-0.1,0.3v4c0,0.2,0,0.3,0.1,0.3c0.1,0,0.2,0.1,0.3,0.1h0.6c0.2,0,0.3,0,0.3-0.1c0.1-0.1,0.1-0.2,0.1-0.3v-0.7h1.2
	v0.9c0,0.8-0.4,1.2-1.3,1.2h-1.3c-0.9,0-1.3-0.4-1.3-1.2v-4.4c0-0.8,0.4-1.2,1.3-1.2h1.3c0.9,0,1.3,0.4,1.3,1.2V26.3z M469.3,27.5
	V31h-1.3v-8.8h2.9c0.9,0,1.3,0.4,1.3,1.2v2.7c0,0.7-0.3,1.1-0.9,1.2l1.4,3.6h-1.4l-1.3-3.5H469.3z M469.3,23.3v3.2h1.2
	c0.2,0,0.3,0,0.3-0.1c0.1-0.1,0.1-0.2,0.1-0.3v-2.4c0-0.2,0-0.3-0.1-0.3c-0.1-0.1-0.2-0.1-0.3-0.1H469.3z M474.7,24.2h1.5
	c0.9,0,1.3,0.4,1.3,1.2v4.4c0,0.8-0.4,1.2-1.3,1.2h-1.5c-0.9,0-1.3-0.4-1.3-1.2v-4.4C473.5,24.6,473.9,24.2,474.7,24.2z M476.3,29.6
	v-4c0-0.2,0-0.3-0.1-0.3s-0.2-0.1-0.3-0.1h-0.8c-0.2,0-0.3,0-0.3,0.1c0,0.1-0.1,0.2-0.1,0.3v4c0,0.2,0,0.3,0.1,0.3
	c0.1,0.1,0.2,0.1,0.3,0.1h0.8c0.2,0,0.3,0,0.3-0.1C476.3,29.9,476.3,29.8,476.3,29.6z M481.3,24.2h1.3V31h-1.3v-0.5
	c-0.1,0.4-0.4,0.5-0.9,0.5H480c-0.8,0-1.3-0.4-1.3-1.2v-5.6h1.3v5.4c0,0.2,0,0.3,0.1,0.3c0.1,0,0.2,0.1,0.3,0.1h0.5
	c0.2,0,0.3,0,0.4-0.1c0.1-0.1,0.1-0.2,0.1-0.4V24.2z M485.9,24.2h0.5c0.8,0,1.3,0.4,1.3,1.2V31h-1.3v-5.4c0-0.2,0-0.3-0.1-0.3
	c-0.1-0.1-0.2-0.1-0.3-0.1h-0.5c-0.2,0-0.3,0-0.4,0.1c-0.1,0.1-0.1,0.2-0.1,0.4V31h-1.3v-6.8h1.3v0.5
	C485.2,24.4,485.5,24.2,485.9,24.2z M491.5,21.6h1.3V31h-1.3v-0.5c-0.1,0.4-0.4,0.5-0.9,0.5h-0.5c-0.8,0-1.3-0.4-1.3-1.2v-4.4
	c0-0.8,0.4-1.2,1.3-1.2h0.5c0.5,0,0.7,0.2,0.9,0.5V21.6z M490.5,30h0.5c0.2,0,0.3,0,0.4-0.1c0.1-0.1,0.1-0.2,0.1-0.4v-3.8
	c0-0.2,0-0.3-0.1-0.4c-0.1-0.1-0.2-0.1-0.4-0.1h-0.5c-0.2,0-0.3,0-0.3,0.1s-0.1,0.2-0.1,0.3v4c0,0.2,0,0.3,0.1,0.3
	C490.2,30,490.4,30,490.5,30z"/>
<path class="st0" d="M450.8,52.6v2.5h-1.5V58h-3.2v-2.9h-5.9v-3l5.2-9.4h3.5l-5.6,9.9h2.8v-3h3.2v3H450.8z M463.2,42.7h2.6L457.7,58
	h-2.5L463.2,42.7z M466.7,55.4v-3.6c0-0.4-0.2-0.5-0.6-0.5h-0.4c-0.2,0-0.4,0-0.4,0.1c-0.1,0.1-0.1,0.2-0.1,0.4v3.6
	c0,0.2,0,0.3,0.1,0.4c0.1,0.1,0.2,0.1,0.4,0.1h0.4c0.2,0,0.4,0,0.4-0.1C466.6,55.7,466.7,55.6,466.7,55.4z M455.8,48.9v-3.6
	c0-0.2,0-0.3-0.1-0.4c-0.1-0.1-0.2-0.1-0.4-0.1h-0.5c-0.2,0-0.4,0-0.4,0.1c-0.1,0.1-0.1,0.2-0.1,0.4v3.6c0,0.2,0,0.3,0.1,0.4
	c0.1,0.1,0.2,0.1,0.4,0.1h0.5c0.2,0,0.3,0,0.4-0.1C455.7,49.3,455.8,49.1,455.8,48.9z M469.4,51.4v4.4c0,1.5-0.8,2.2-2.5,2.2h-2.1
	c-1.6,0-2.5-0.7-2.5-2.2v-4.4c0-1.5,0.8-2.2,2.5-2.2h2.1C468.6,49.2,469.4,49.9,469.4,51.4z M458.5,44.9v4.4c0,1.5-0.8,2.2-2.4,2.2
	h-2.1c-1.6,0-2.4-0.7-2.4-2.2v-4.4c0-1.5,0.8-2.2,2.4-2.2h2.1C457.7,42.7,458.5,43.5,458.5,44.9z"/>
<g>
	<path class="st1" d="M544,26h75c4.4,0,8,3.6,8,8v46c0,4.4-3.6,8-8,8h-75c-4.4,0-8-3.6-8-8V34C536,29.6,539.6,26,544,26z"/>
	
		<linearGradient id="SVGID_2_" gradientUnits="userSpaceOnUse" x1="581.5" y1="380" x2="581.5" y2="318" gradientTransform="matrix(1 0 0 -1 0 406)">
		<stop  offset="0" style="stop-color:#54E0FF"/>
		<stop  offset="0.151" style="stop-color:#5160E2;stop-opacity:0.849"/>
		<stop  offset="1" style="stop-color:#0DD3FF;stop-opacity:0.39"/>
	</linearGradient>
	<path class="st3" d="M544,26.5h75c4.1,0,7.5,3.4,7.5,7.5v46c0,4.1-3.4,7.5-7.5,7.5h-75c-4.1,0-7.5-3.4-7.5-7.5V34
		C536.5,29.9,539.9,26.5,544,26.5z"/>
</g>
<path class="st0" d="M544.7,37.2h2.9c0.9,0,1.3,0.4,1.3,1.2v2.9c0,0.8-0.4,1.2-1.3,1.2H546V46h-1.3V37.2z M547.6,41.2v-2.5
	c0-0.2,0-0.3-0.1-0.3c-0.1-0.1-0.2-0.1-0.3-0.1H546v3.3h1.2c0.2,0,0.3,0,0.3-0.1C547.6,41.5,547.6,41.4,547.6,41.2z M552.3,39.2h0.3
	v1.1H552c-0.6,0-0.9,0.3-0.9,1V46h-1.3v-6.8h1.3V40c0.1-0.2,0.2-0.4,0.4-0.6C551.8,39.2,552,39.2,552.3,39.2z M553.2,37.9v-1.2h1.3
	v1.2H553.2z M554.5,46h-1.3v-6.8h1.3V46z M556.4,39.2l0.9,5.8l0.9-5.8h1.3l-1.3,6.8h-1.8l-1.3-6.8H556.4z M562.7,39.2h1.3V46h-1.3
	v-0.5c-0.1,0.4-0.4,0.5-0.9,0.5h-0.5c-0.8,0-1.3-0.4-1.3-1.2v-4.4c0-0.8,0.4-1.2,1.3-1.2h0.5c0.5,0,0.7,0.2,0.9,0.5V39.2z M561.8,45
	h0.5c0.2,0,0.3,0,0.4-0.1c0.1-0.1,0.1-0.2,0.1-0.4v-3.8c0-0.2,0-0.3-0.1-0.4c-0.1-0.1-0.2-0.1-0.4-0.1h-0.5c-0.2,0-0.3,0-0.3,0.1
	c-0.1,0-0.1,0.2-0.1,0.3v4c0,0.2,0,0.3,0.1,0.3C561.5,45,561.6,45,561.8,45z M567.5,40.2h-0.9v4.3c0,0.2,0,0.3,0.1,0.3
	c0.1,0,0.2,0.1,0.3,0.1h0.5V46h-0.9c-0.9,0-1.3-0.4-1.3-1.2v-4.6h-0.6v-1h0.6V38h1.3v1.2h0.9V40.2z M569.6,39.2h1.4
	c0.9,0,1.3,0.4,1.3,1.2V43h-2.8v1.6c0,0.2,0,0.3,0.1,0.3c0.1,0.1,0.2,0.1,0.3,0.1h0.6c0.2,0,0.3,0,0.3-0.1c0.1-0.1,0.1-0.2,0.1-0.3
	V44h1.2v0.7c0,0.8-0.4,1.2-1.3,1.2h-1.3c-0.9,0-1.3-0.4-1.3-1.2v-4.4C568.3,39.6,568.7,39.2,569.6,39.2z M569.5,42.1h1.5v-1.5
	c0-0.2,0-0.3-0.1-0.3c0-0.1-0.2-0.1-0.3-0.1h-0.7c-0.2,0-0.3,0-0.3,0.1c-0.1,0.1-0.1,0.2-0.1,0.3V42.1z M576.7,42.5V46h-1.3v-8.8
	h2.9c0.9,0,1.3,0.4,1.3,1.2v2.7c0,0.7-0.3,1.1-0.9,1.2l1.4,3.6h-1.4l-1.3-3.5H576.7z M576.7,38.3v3.2h1.2c0.2,0,0.3,0,0.3-0.1
	c0.1-0.1,0.1-0.2,0.1-0.3v-2.4c0-0.2,0-0.3-0.1-0.3c-0.1-0.1-0.2-0.1-0.3-0.1H576.7z M582.1,39.2h1.5c0.9,0,1.3,0.4,1.3,1.2v4.4
	c0,0.8-0.4,1.2-1.3,1.2h-1.5c-0.9,0-1.3-0.4-1.3-1.2v-4.4C580.8,39.6,581.3,39.2,582.1,39.2z M583.7,44.6v-4c0-0.2,0-0.3-0.1-0.3
	c-0.1-0.1-0.2-0.1-0.3-0.1h-0.8c-0.2,0-0.3,0-0.3,0.1c0,0.1-0.1,0.2-0.1,0.3v4c0,0.2,0,0.3,0.1,0.3c0.1,0.1,0.2,0.1,0.3,0.1h0.8
	c0.2,0,0.3,0,0.3-0.1C583.6,44.9,583.7,44.8,583.7,44.6z M588.7,39.2h1.3V46h-1.3v-0.5c-0.1,0.4-0.4,0.5-0.9,0.5h-0.5
	c-0.8,0-1.3-0.4-1.3-1.2v-5.6h1.3v5.4c0,0.2,0,0.3,0.1,0.3c0.1,0,0.2,0.1,0.3,0.1h0.5c0.2,0,0.3,0,0.3-0.1c0.1-0.1,0.1-0.2,0.1-0.4
	V39.2z M593.3,39.2h0.5c0.8,0,1.3,0.4,1.3,1.2V46h-1.3v-5.4c0-0.2,0-0.3-0.1-0.3c-0.1-0.1-0.2-0.1-0.3-0.1h-0.5
	c-0.2,0-0.3,0-0.4,0.1c-0.1,0.1-0.1,0.2-0.1,0.4V46h-1.3v-6.8h1.3v0.5C592.6,39.3,592.9,39.2,593.3,39.2z M598.9,36.6h1.3V46h-1.3
	v-0.5c-0.1,0.4-0.4,0.5-0.9,0.5h-0.5c-0.8,0-1.3-0.4-1.3-1.2v-4.4c0-0.8,0.4-1.2,1.3-1.2h0.5c0.5,0,0.7,0.2,0.9,0.5V36.6z M597.9,45
	h0.5c0.2,0,0.3,0,0.3-0.1c0.1-0.1,0.1-0.2,0.1-0.4v-3.8c0-0.2,0-0.3-0.1-0.4c-0.1-0.1-0.2-0.1-0.3-0.1h-0.5c-0.2,0-0.3,0-0.3,0.1
	c-0.1,0.1-0.1,0.2-0.1,0.3v4c0,0.2,0,0.3,0.1,0.3C597.6,45,597.7,45,597.9,45z M606.6,40.6v-2c0-0.2,0-0.3-0.1-0.3
	c-0.1-0.1-0.2-0.1-0.3-0.1h-1.4V41h1.4c0.2,0,0.3,0,0.3-0.1C606.5,40.9,606.6,40.8,606.6,40.6z M606.6,44.6v-2.2
	c0-0.2,0-0.3-0.1-0.3c-0.1-0.1-0.2-0.1-0.3-0.1h-1.4v3h1.4c0.2,0,0.3,0,0.3-0.1C606.5,44.9,606.6,44.8,606.6,44.6z M603.5,37.2h3
	c0.9,0,1.3,0.4,1.3,1.2v2.2c0,0.5-0.2,0.8-0.6,0.9c0.4,0.1,0.6,0.4,0.6,0.8v2.4c0,0.8-0.4,1.2-1.3,1.2h-3V37.2z"/>
<path class="st0" d="M552.8,57.7v1.9L548.4,73h-3.5l4.3-12.6h-4.9v-2.7H552.8z M565.3,57.7h2.6L559.8,73h-2.5L565.3,57.7z
	 M568.7,70.4v-3.6c0-0.4-0.2-0.5-0.6-0.5h-0.4c-0.2,0-0.4,0-0.4,0.1c-0.1,0.1-0.1,0.2-0.1,0.4v3.6c0,0.2,0,0.3,0.1,0.4
	c0.1,0.1,0.2,0.1,0.4,0.1h0.4c0.2,0,0.4,0,0.4-0.1C568.7,70.7,568.7,70.6,568.7,70.4z M557.8,63.9v-3.6c0-0.2,0-0.3-0.1-0.4
	c-0.1-0.1-0.2-0.1-0.4-0.1h-0.5c-0.2,0-0.4,0-0.4,0.1c-0.1,0.1-0.1,0.2-0.1,0.4v3.6c0,0.2,0,0.3,0.1,0.4c0.1,0.1,0.2,0.1,0.4,0.1
	h0.5c0.2,0,0.3,0,0.4-0.1C557.8,64.3,557.8,64.1,557.8,63.9z M571.5,66.4v4.4c0,1.5-0.8,2.2-2.5,2.2h-2.1c-1.6,0-2.5-0.7-2.5-2.2
	v-4.4c0-1.5,0.8-2.2,2.5-2.2h2.1C570.7,64.2,571.5,64.9,571.5,66.4z M560.6,59.9v4.4c0,1.5-0.8,2.2-2.4,2.2H556
	c-1.6,0-2.4-0.7-2.4-2.2v-4.4c0-1.5,0.8-2.2,2.4-2.2h2.1C559.8,57.7,560.6,58.5,560.6,59.9z"/>
<g>
	<path class="st1" d="M644,60h84c4.4,0,8,3.6,8,8v68.9c0,4.4-3.6,8-8,8h-84c-4.4,0-8-3.6-8-8V68C636,63.6,639.6,60,644,60z"/>
	
		<linearGradient id="SVGID_3_" gradientUnits="userSpaceOnUse" x1="686.0001" y1="346" x2="686.0001" y2="261.0686" gradientTransform="matrix(1 0 0 -1 0 406)">
		<stop  offset="0" style="stop-color:#54E0FF"/>
		<stop  offset="0.151" style="stop-color:#5160E2;stop-opacity:0.849"/>
		<stop  offset="1" style="stop-color:#0DD3FF;stop-opacity:0.39"/>
	</linearGradient>
	<path class="st4" d="M644,60.7h84c4,0,7.3,3.3,7.3,7.3v68.9c0,4-3.3,7.3-7.3,7.3h-84c-4,0-7.3-3.3-7.3-7.3V68
		C636.7,64,640,60.7,644,60.7z"/>
</g>
<path class="st0" d="M651.4,85v-2.9c0-0.2,0-0.4-0.1-0.4c-0.1-0.1-0.2-0.1-0.4-0.1h-1.4c-1.2,0-1.7-0.6-1.7-1.7v-3.2
	c0-1.1,0.6-1.7,1.8-1.7h1.9c1.2,0,1.8,0.6,1.8,1.7v1.8h-1.7v-1.5c0-0.2,0-0.4-0.1-0.4c-0.1-0.1-0.2-0.1-0.5-0.1H650
	c-0.2,0-0.4,0-0.5,0.1c-0.1,0.1-0.1,0.2-0.1,0.4v2.7c0,0.2,0,0.4,0.1,0.5c0.1,0.1,0.2,0.1,0.5,0.1h1.4c1.2,0,1.8,0.6,1.8,1.7v3.5
	c0,1.1-0.6,1.7-1.8,1.7h-1.9c-1.2,0-1.8-0.6-1.8-1.7v-1.8h1.7V85c0,0.2,0,0.4,0.1,0.5c0.1,0.1,0.2,0.1,0.5,0.1h0.8
	c0.2,0,0.4,0,0.4-0.1C651.4,85.4,651.4,85.2,651.4,85z M656.5,77.6h1.9c1.2,0,1.8,0.6,1.8,1.7v3.5h-3.8V85c0,0.2,0,0.4,0.1,0.4
	c0.1,0.1,0.2,0.1,0.5,0.1h0.9c0.2,0,0.4,0,0.5-0.1c0.1-0.1,0.1-0.2,0.1-0.5v-0.8h1.7v1c0,1.1-0.6,1.7-1.8,1.7h-1.8
	c-1.2,0-1.8-0.6-1.8-1.7v-6C654.7,78.2,655.3,77.6,656.5,77.6z M656.4,81.6h2.1v-2c0-0.2,0-0.4-0.1-0.4c-0.1-0.1-0.2-0.1-0.4-0.1
	H657c-0.2,0-0.4,0-0.5,0.1c-0.1,0.1-0.1,0.2-0.1,0.4V81.6z M663.4,77.6h1.9c1.2,0,1.8,0.6,1.8,1.7v3.5h-3.8V85c0,0.2,0,0.4,0.1,0.4
	c0.1,0.1,0.2,0.1,0.5,0.1h0.9c0.2,0,0.4,0,0.5-0.1c0.1-0.1,0.1-0.2,0.1-0.5v-0.8h1.7v1c0,1.1-0.6,1.7-1.8,1.7h-1.8
	c-1.2,0-1.8-0.6-1.8-1.7v-6C661.6,78.2,662.2,77.6,663.4,77.6z M663.3,81.6h2.1v-2c0-0.2,0-0.4-0.1-0.4c-0.1-0.1-0.2-0.1-0.4-0.1
	h-0.9c-0.2,0-0.4,0-0.5,0.1c-0.1,0.1-0.1,0.2-0.1,0.4V81.6z M672,74.1h1.7V87H672v-0.7c-0.2,0.5-0.6,0.7-1.2,0.7h-0.7
	c-1.2,0-1.7-0.6-1.7-1.7v-6c0-1.1,0.6-1.7,1.7-1.7h0.7c0.6,0,1,0.2,1.2,0.7V74.1z M670.7,85.6h0.7c0.2,0,0.4-0.1,0.5-0.2
	c0.1-0.1,0.2-0.3,0.2-0.5v-5.2c0-0.2-0.1-0.4-0.2-0.5c-0.1-0.1-0.2-0.2-0.5-0.2h-0.7c-0.2,0-0.4,0-0.5,0.1c-0.1,0.1-0.1,0.2-0.1,0.4
	V85c0,0.2,0,0.4,0.1,0.5C670.4,85.5,670.5,85.6,670.7,85.6z M680.1,82.1V87h-1.7V75h3.9c1.2,0,1.8,0.6,1.8,1.7v3.8
	c0,1-0.4,1.5-1.3,1.7l1.9,4.9h-1.9l-1.8-4.9H680.1z M680.1,76.4v4.4h1.7c0.2,0,0.4,0,0.5-0.1c0.1-0.1,0.1-0.2,0.1-0.5v-3.3
	c0-0.2,0-0.4-0.1-0.4c-0.1-0.1-0.2-0.1-0.5-0.1H680.1z M687.5,77.6h2.1c1.2,0,1.8,0.6,1.8,1.7v6c0,1.1-0.6,1.7-1.8,1.7h-2.1
	c-1.2,0-1.8-0.6-1.8-1.7v-6C685.7,78.2,686.3,77.6,687.5,77.6z M689.6,85v-5.5c0-0.2,0-0.4-0.1-0.5c-0.1-0.1-0.2-0.1-0.5-0.1H688
	c-0.2,0-0.4,0-0.5,0.1c-0.1,0.1-0.1,0.2-0.1,0.5V85c0,0.2,0,0.4,0.1,0.5c0.1,0.1,0.2,0.1,0.5,0.1h1.1c0.2,0,0.4,0,0.5-0.1
	C689.6,85.4,689.6,85.3,689.6,85z M696.5,77.6h1.7V87h-1.7v-0.7c-0.2,0.5-0.6,0.7-1.2,0.7h-0.7c-1.2,0-1.7-0.6-1.7-1.7v-7.7h1.7V85
	c0,0.2,0,0.4,0.1,0.5c0.1,0.1,0.2,0.1,0.5,0.1h0.7c0.2,0,0.4-0.1,0.5-0.2c0.1-0.1,0.2-0.3,0.2-0.5V77.6z M702.9,77.6h0.7
	c1.2,0,1.7,0.6,1.7,1.7V87h-1.7v-7.4c0-0.2,0-0.4-0.1-0.4c-0.1-0.1-0.2-0.1-0.5-0.1h-0.7c-0.2,0-0.4,0.1-0.5,0.2
	c-0.1,0.1-0.1,0.3-0.1,0.5V87h-1.7v-9.4h1.7v0.7C701.8,77.8,702.2,77.6,702.9,77.6z M710.4,74.1h1.7V87h-1.7v-0.7
	c-0.2,0.5-0.6,0.7-1.2,0.7h-0.7c-1.2,0-1.7-0.6-1.7-1.7v-6c0-1.1,0.6-1.7,1.7-1.7h0.7c0.6,0,1,0.2,1.2,0.7V74.1z M709.1,85.6h0.7
	c0.2,0,0.4-0.1,0.5-0.2c0.1-0.1,0.2-0.3,0.2-0.5v-5.2c0-0.2-0.1-0.4-0.2-0.5c-0.1-0.1-0.2-0.2-0.5-0.2h-0.7c-0.2,0-0.4,0-0.5,0.1
	c-0.1,0.1-0.1,0.2-0.1,0.4V85c0,0.2,0,0.4,0.1,0.5C708.8,85.5,708.9,85.6,709.1,85.6z"/>
<path class="st0" d="M655,103.1V124h-4.7v-17.5h-2.7v-3.5H655z M665.5,119.7v-12.4c0-0.5-0.3-0.8-0.9-0.8h-1.2
	c-0.6,0-0.9,0.3-0.9,0.8v12.4c0,0.5,0.3,0.8,0.9,0.8h1.2C665.2,120.5,665.5,120.3,665.5,119.7z M670.2,106.7v13.6
	c0,2.4-1.4,3.6-4.1,3.6H662c-2.8,0-4.2-1.2-4.2-3.6v-13.6c0-2.4,1.4-3.6,4.2-3.6h4.1C668.8,103.1,670.2,104.3,670.2,106.7z
	 M688.5,103.1h3.5L681,124h-3.5L688.5,103.1z M693.2,120.4v-4.9c0-0.5-0.3-0.7-0.8-0.7h-0.6c-0.3,0-0.5,0.1-0.6,0.2
	c-0.1,0.1-0.1,0.3-0.1,0.6v4.9c0,0.3,0,0.4,0.1,0.6c0.1,0.1,0.3,0.1,0.6,0.1h0.6c0.3,0,0.5,0,0.6-0.1
	C693.2,120.9,693.2,120.7,693.2,120.4z M678.3,111.6v-4.9c0-0.3-0.1-0.4-0.2-0.6c-0.1-0.1-0.3-0.2-0.6-0.2h-0.6
	c-0.3,0-0.5,0.1-0.6,0.2c-0.1,0.1-0.1,0.3-0.1,0.6v4.9c0,0.3,0,0.4,0.1,0.6c0.1,0.1,0.3,0.1,0.6,0.1h0.6c0.3,0,0.5,0,0.6-0.1
	C678.2,112,678.3,111.8,678.3,111.6z M697,114.9v6.1c0,2-1.1,3-3.4,3h-2.9c-2.3,0-3.4-1-3.4-3v-6.1c0-2,1.1-3,3.4-3h2.9
	C695.9,112,697,113,697,114.9z M682.1,106.1v6c0,2-1.1,3-3.4,3h-2.9c-2.2,0-3.4-1-3.4-3v-6c0-2,1.1-3,3.4-3h2.9
	C681,103.1,682.1,104.1,682.1,106.1z"/>
<g>
	<path class="st1" d="M744,152h187.8c4.4,0,8,3.6,8,8v65c0,4.4-3.6,8-8,8H744c-4.4,0-8-3.6-8-8v-65C736,155.6,739.6,152,744,152z"/>
	
		<linearGradient id="SVGID_4_" gradientUnits="userSpaceOnUse" x1="837.903" y1="254.0002" x2="837.903" y2="173.0002" gradientTransform="matrix(1 0 0 -1 0 406)">
		<stop  offset="0" style="stop-color:#54E0FF"/>
		<stop  offset="0.151" style="stop-color:#5160E2;stop-opacity:0.849"/>
		<stop  offset="1" style="stop-color:#0DD3FF;stop-opacity:0.39"/>
	</linearGradient>
	<path class="st5" d="M744,152.7h187.8c4.1,0,7.3,3.3,7.3,7.3v65c0,4.1-3.3,7.3-7.3,7.3H744c-4.1,0-7.3-3.3-7.3-7.3v-65
		C736.7,155.9,739.9,152.7,744,152.7z"/>
</g>
<path class="st0" d="M750.7,175.6v-2.8c0-0.2,0-0.4-0.1-0.4c-0.1-0.1-0.2-0.1-0.4-0.1h-1.4c-1.1,0-1.7-0.5-1.7-1.6v-3
	c0-1.1,0.6-1.6,1.7-1.6h1.8c1.1,0,1.7,0.5,1.7,1.6v1.7h-1.7v-1.4c0-0.2,0-0.4-0.1-0.4c-0.1-0.1-0.2-0.1-0.4-0.1h-0.8
	c-0.2,0-0.4,0-0.4,0.1c-0.1,0.1-0.1,0.2-0.1,0.4v2.5c0,0.2,0,0.4,0.1,0.4c0.1,0.1,0.2,0.1,0.4,0.1h1.3c1.1,0,1.7,0.5,1.7,1.6v3.3
	c0,1.1-0.6,1.6-1.7,1.6h-1.8c-1.1,0-1.7-0.5-1.7-1.6v-1.7h1.7v1.4c0,0.2,0,0.4,0.1,0.4c0.1,0.1,0.2,0.1,0.4,0.1h0.8
	c0.2,0,0.4,0,0.4-0.1C750.7,176,750.7,175.8,750.7,175.6z M756.9,169.9h-1.2v5.7c0,0.2,0,0.4,0.1,0.4c0.1,0.1,0.2,0.1,0.4,0.1h0.7
	v1.4h-1.2c-1.1,0-1.7-0.5-1.7-1.6v-6h-0.8v-1.3h0.8V167h1.7v1.5h1.2V169.9z M761.2,168.5h1.6v8.9h-1.6v-0.7
	c-0.2,0.5-0.5,0.7-1.1,0.7h-0.7c-1.1,0-1.6-0.5-1.6-1.6v-5.7c0-1.1,0.5-1.6,1.6-1.6h0.7c0.6,0,1,0.2,1.1,0.7V168.5z M760,176.1h0.6
	c0.2,0,0.4,0,0.5-0.1c0.1-0.1,0.1-0.3,0.1-0.5v-5c0-0.2,0-0.4-0.1-0.5c-0.1-0.1-0.2-0.1-0.5-0.1H760c-0.2,0-0.4,0-0.4,0.1
	c-0.1,0.1-0.1,0.2-0.1,0.4v5.2c0,0.2,0,0.4,0.1,0.4C759.6,176.1,759.7,176.1,760,176.1z M770.1,168.5l-2,4.3l2,4.7h-1.8l-2-4.7
	l2-4.3H770.1z M764.5,177.5v-12.2h1.6v12.2H764.5z M771,166.8v-1.6h1.7v1.6H771z M772.6,177.5H771v-8.9h1.6V177.5z M777,168.5h0.6
	c1.1,0,1.7,0.5,1.7,1.6v7.3h-1.6v-7.1c0-0.2,0-0.4-0.1-0.4c-0.1-0.1-0.2-0.1-0.4-0.1h-0.6c-0.2,0-0.4,0-0.5,0.1
	c-0.1,0.1-0.1,0.3-0.1,0.5v7h-1.6v-8.9h1.6v0.7C776,168.8,776.4,168.5,777,168.5z M784.3,168.5h1.6v9.8c0,1.1-0.6,1.6-1.7,1.6h-3.1
	v-1.3h2.6c0.2,0,0.4,0,0.4-0.1c0.1-0.1,0.1-0.2,0.1-0.4v-1.5c-0.2,0.5-0.5,0.7-1.1,0.7h-0.7c-1.1,0-1.6-0.5-1.6-1.6v-5.6
	c0-1.1,0.5-1.6,1.6-1.6h0.7c0.6,0,1,0.2,1.1,0.7V168.5z M783,176h0.6c0.2,0,0.4,0,0.5-0.1c0.1-0.1,0.1-0.3,0.1-0.5v-4.9
	c0-0.2,0-0.4-0.1-0.5c-0.1-0.1-0.2-0.1-0.5-0.1H783c-0.2,0-0.4,0-0.4,0.1c-0.1,0.1-0.1,0.2-0.1,0.4v5.1c0,0.2,0,0.3,0.1,0.4
	S782.8,176,783,176z M795.6,177.5h-3.8c-1.1,0-1.7-0.5-1.7-1.6v-1.9c0-0.4,0.1-0.7,0.2-1c0.2-0.3,0.5-0.5,0.9-0.8l0.5-0.4
	c-0.3-0.4-0.5-0.6-0.6-0.8c-0.1-0.2-0.3-0.4-0.4-0.7c-0.1-0.3-0.2-0.6-0.2-0.9v-1.8c0-1.1,0.6-1.6,1.7-1.6h1.8
	c1.1,0,1.7,0.5,1.7,1.6v1.7c0,0.6-0.1,1.1-0.3,1.5c-0.2,0.4-0.6,0.7-1.1,1l-0.4,0.3l2.1,2.6v-1.4h1.3v2.6c0,0.1,0,0.2,0,0.4l1.5,1.8
	H797l-0.6-0.8C796.2,177.4,795.9,177.5,795.6,177.5z M792.1,167.8v1.7c0,0.4,0.3,0.9,0.8,1.5l0.1-0.1c0.4-0.3,0.7-0.5,0.8-0.7
	c0.2-0.2,0.2-0.5,0.2-0.8v-1.5c0-0.2,0-0.4-0.1-0.4c-0.1-0.1-0.2-0.1-0.4-0.1h-0.8c-0.2,0-0.4,0-0.4,0.1
	C792.1,167.5,792.1,167.6,792.1,167.8z M792.2,176.2h3.2l-2.7-3.3l-0.4,0.3c-0.2,0.1-0.4,0.3-0.4,0.4c-0.1,0.1-0.1,0.3-0.1,0.6v1.4
	c0,0.2,0,0.4,0.1,0.4C791.8,176.1,792,176.2,792.2,176.2z M803,176.1h2.8v1.3h-4.5V166h1.6V176.1z M806.7,166.8v-1.6h1.7v1.6H806.7z
	 M808.4,177.5h-1.6v-8.9h1.6V177.5z M813.3,168.5h1.6V180h-1.6v-3.2c-0.2,0.5-0.5,0.7-1.1,0.7h-0.7c-1.1,0-1.6-0.5-1.6-1.6v-5.7
	c0-1.1,0.5-1.6,1.6-1.6h0.7c0.6,0,1,0.2,1.1,0.7V168.5z M812.1,176.1h0.6c0.2,0,0.4,0,0.5-0.1c0.1-0.1,0.1-0.3,0.1-0.5v-5
	c0-0.2,0-0.4-0.1-0.5c-0.1-0.1-0.2-0.1-0.5-0.1h-0.6c-0.2,0-0.4,0-0.4,0.1c-0.1,0.1-0.1,0.2-0.1,0.4v5.2c0,0.2,0,0.4,0.1,0.4
	C811.7,176.1,811.9,176.1,812.1,176.1z M820,168.5h1.6v8.9H820v-0.7c-0.2,0.5-0.5,0.7-1.1,0.7h-0.7c-1.1,0-1.6-0.5-1.6-1.6v-7.3h1.6
	v7.1c0,0.2,0,0.4,0.1,0.4c0.1,0.1,0.2,0.1,0.4,0.1h0.6c0.2,0,0.4,0,0.5-0.1c0.1-0.1,0.1-0.3,0.1-0.5V168.5z M823.2,166.8v-1.6h1.7
	v1.6H823.2z M824.9,177.5h-1.6v-8.9h1.6V177.5z M829.8,165.2h1.6v12.2h-1.6v-0.7c-0.2,0.5-0.5,0.7-1.1,0.7H828
	c-1.1,0-1.6-0.5-1.6-1.6v-5.7c0-1.1,0.5-1.6,1.6-1.6h0.7c0.6,0,1,0.2,1.1,0.7V165.2z M828.6,176.1h0.6c0.2,0,0.4,0,0.5-0.1
	c0.1-0.1,0.1-0.3,0.1-0.5v-5c0-0.2,0-0.4-0.1-0.5c-0.1-0.1-0.2-0.1-0.5-0.1h-0.6c-0.2,0-0.4,0-0.4,0.1c-0.1,0.1-0.1,0.2-0.1,0.4v5.2
	c0,0.2,0,0.4,0.1,0.4C828.2,176.1,828.4,176.1,828.6,176.1z M833.1,166.8v-1.6h1.7v1.6H833.1z M834.7,177.5h-1.6v-8.9h1.6V177.5z
	 M839.4,169.9h-1.2v5.7c0,0.2,0,0.4,0.1,0.4c0.1,0.1,0.2,0.1,0.4,0.1h0.7v1.4h-1.2c-1.1,0-1.7-0.5-1.7-1.6v-6h-0.8v-1.3h0.8V167h1.7
	v1.5h1.2V169.9z M841.7,180h-1.1v-1.3h0.8c0.5,0,0.8-0.2,1-0.6l0.2-0.8h-0.9l-1.9-8.8h1.7l1.4,7.5l1.3-7.5h1.7l-1.9,9.8
	C843.5,179.4,842.8,180,841.7,180z M850.8,177.5h-1.4V166h1.8l2,7.1l2-7.1h1.8v11.4h-1.4v-8.4l-1.6,5.9h-1.5l-1.6-5.9V177.5z
	 M858.6,166.8v-1.6h1.7v1.6H858.6z M860.3,177.5h-1.6v-8.9h1.6V177.5z M864.7,168.5h0.6c1.1,0,1.7,0.5,1.7,1.6v7.3h-1.6v-7.1
	c0-0.2,0-0.4-0.1-0.4c-0.1-0.1-0.2-0.1-0.4-0.1h-0.6c-0.2,0-0.4,0-0.5,0.1c-0.1,0.1-0.1,0.3-0.1,0.5v7h-1.6v-8.9h1.6v0.7
	C863.7,168.8,864.1,168.5,864.7,168.5z M868.6,166.8v-1.6h1.7v1.6H868.6z M870.3,177.5h-1.6v-8.9h1.6V177.5z M874.6,168.5h0.6
	c1.1,0,1.7,0.5,1.7,1.6v7.3h-1.6v-7.1c0-0.2,0-0.4-0.1-0.4c-0.1-0.1-0.2-0.1-0.4-0.1h-0.6c-0.2,0-0.4,0-0.5,0.1
	c-0.1,0.1-0.1,0.3-0.1,0.5v7h-1.6v-8.9h1.6v0.7C873.7,168.8,874,168.5,874.6,168.5z M881.9,168.5h1.6v9.8c0,1.1-0.6,1.6-1.7,1.6
	h-3.1v-1.3h2.6c0.2,0,0.4,0,0.4-0.1c0.1-0.1,0.1-0.2,0.1-0.4v-1.5c-0.2,0.5-0.5,0.7-1.1,0.7h-0.7c-1.1,0-1.6-0.5-1.6-1.6v-5.6
	c0-1.1,0.5-1.6,1.6-1.6h0.7c0.6,0,1,0.2,1.1,0.7V168.5z M880.6,176h0.6c0.2,0,0.4,0,0.5-0.1c0.1-0.1,0.1-0.3,0.1-0.5v-4.9
	c0-0.2,0-0.4-0.1-0.5c-0.1-0.1-0.2-0.1-0.5-0.1h-0.6c-0.2,0-0.4,0-0.4,0.1c-0.1,0.1-0.1,0.2-0.1,0.4v5.1c0,0.2,0,0.3,0.1,0.4
	S880.4,176,880.6,176z"/>
<path class="st0" d="M751.7,198.4v2.6h-4.5v-3.3c0-2.3,1.3-3.4,4-3.4h3.4c2.7,0,4,1.1,4,3.4v2.5c0,1-0.1,1.8-0.4,2.5
	c-0.3,0.7-0.7,1.5-1.3,2.3l-4,5.9h5.9v3.3h-11.3v-3l5.5-7.4c0.5-0.6,0.9-1.2,1-1.7c0.2-0.5,0.3-1.1,0.3-1.8v-1.9
	c0-0.5-0.3-0.8-0.8-0.8h-0.8C752,197.6,751.7,197.9,751.7,198.4z M768.1,210.2v-11.8c0-0.5-0.3-0.8-0.8-0.8h-1.2
	c-0.6,0-0.8,0.3-0.8,0.8v11.8c0,0.5,0.3,0.8,0.8,0.8h1.2C767.8,211,768.1,210.7,768.1,210.2z M772.6,197.8v13c0,2.3-1.3,3.5-4,3.5
	h-3.9c-2.7,0-4-1.2-4-3.5v-13c0-2.3,1.3-3.4,4-3.4h3.9C771.3,194.3,772.6,195.5,772.6,197.8z M790,194.3h3.4l-10.5,19.9h-3.3
	L790,194.3z M794.5,210.9v-4.7c0-0.5-0.2-0.7-0.7-0.7h-0.6c-0.3,0-0.5,0.1-0.6,0.2c-0.1,0.1-0.1,0.3-0.1,0.5v4.7
	c0,0.3,0,0.4,0.1,0.5c0.1,0.1,0.3,0.1,0.6,0.1h0.6c0.3,0,0.5,0,0.6-0.1C794.5,211.3,794.5,211.1,794.5,210.9z M780.3,202.4v-4.7
	c0-0.3-0.1-0.4-0.2-0.5c-0.1-0.1-0.3-0.2-0.5-0.2H779c-0.3,0-0.5,0.1-0.6,0.2c-0.1,0.1-0.1,0.3-0.1,0.5v4.7c0,0.3,0,0.4,0.1,0.5
	c0.1,0.1,0.3,0.1,0.6,0.1h0.6c0.3,0,0.4,0,0.5-0.1C780.2,202.9,780.3,202.7,780.3,202.4z M798.1,205.7v5.8c0,1.9-1.1,2.9-3.2,2.9
	h-2.8c-2.2,0-3.2-1-3.2-2.9v-5.8c0-1.9,1.1-2.9,3.2-2.9h2.8C797,202.8,798.1,203.7,798.1,205.7z M783.9,197.2v5.8
	c0,1.9-1.1,2.9-3.2,2.9h-2.8c-2.1,0-3.2-1-3.2-2.9v-5.8c0-1.9,1.1-2.9,3.2-2.9h2.8C782.8,194.3,783.9,195.3,783.9,197.2z"/>
<g>
	<path class="st1" d="M570,299h158c4.4,0,8,3.6,8,8v89c0,4.4-3.6,8-8,8H570c-4.4,0-8-3.6-8-8v-89C562,302.6,565.6,299,570,299z"/>
	
		<linearGradient id="SVGID_5_" gradientUnits="userSpaceOnUse" x1="649" y1="106.9998" x2="649" y2="2.0002" gradientTransform="matrix(1 0 0 -1 0 406)">
		<stop  offset="0" style="stop-color:#54E0FF"/>
		<stop  offset="0.151" style="stop-color:#5160E2;stop-opacity:0.849"/>
		<stop  offset="1" style="stop-color:#0DD3FF;stop-opacity:0.39"/>
	</linearGradient>
	<path class="st6" d="M570,299.8h158c4,0,7.2,3.2,7.2,7.2v89c0,4-3.2,7.2-7.2,7.2H570c-4,0-7.2-3.2-7.2-7.2v-89
		C562.8,303,566,299.8,570,299.8z"/>
</g>
<path class="st0" d="M576.4,318.2h2.1V333h-2.1V318.2z M584.6,321.4h0.8c1.4,0,2.2,0.7,2.2,2.1v9.5h-2.1v-9.2c0-0.3,0-0.5-0.1-0.5
	c-0.1-0.1-0.3-0.1-0.6-0.1h-0.8c-0.3,0-0.5,0.1-0.6,0.2c-0.1,0.1-0.2,0.3-0.2,0.6v9H581v-11.6h2.1v0.9
	C583.4,321.7,583.9,321.4,584.6,321.4z M589.6,319.2v-2.1h2.2v2.1H589.6z M591.8,333h-2.1v-11.6h2.1V333z M597.8,323.2h-1.6v7.3
	c0,0.3,0,0.5,0.1,0.6c0.1,0.1,0.3,0.1,0.6,0.1h0.9v1.8h-1.5c-1.5,0-2.2-0.7-2.2-2.1v-7.8H593v-1.7h1.1v-2h2.2v2h1.6V323.2z
	 M599,319.2v-2.1h2.2v2.1H599z M601.2,333h-2.1v-11.6h2.1V333z M607.6,321.4h2.1V333h-2.1v-0.9c-0.2,0.6-0.7,0.9-1.5,0.9h-0.9
	c-1.4,0-2.1-0.7-2.1-2.1v-7.4c0-1.4,0.7-2.1,2.1-2.1h0.9c0.8,0,1.3,0.3,1.5,0.9V321.4z M606,331.3h0.8c0.3,0,0.5-0.1,0.6-0.2
	c0.1-0.1,0.2-0.3,0.2-0.6V324c0-0.3-0.1-0.5-0.2-0.6c-0.1-0.1-0.3-0.2-0.6-0.2H606c-0.3,0-0.5,0-0.6,0.1c-0.1,0.1-0.1,0.3-0.1,0.5
	v6.7c0,0.3,0,0.5,0.1,0.6C605.5,331.2,605.7,331.3,606,331.3z M614,333h-2.1v-15.9h2.1V333z M621.8,331.3h3.7v1.7h-5.8v-14.8h2.1
	V331.3z M626.6,319.2v-2.1h2.2v2.1H626.6z M628.7,333h-2.1v-11.6h2.1V333z M635.1,321.4h2.1v14.8h-2.1v-4.2
	c-0.2,0.6-0.7,0.9-1.5,0.9h-0.9c-1.4,0-2.1-0.7-2.1-2.1v-7.4c0-1.4,0.7-2.1,2.1-2.1h0.9c0.8,0,1.3,0.3,1.5,0.9V321.4z M633.5,331.3
	h0.8c0.3,0,0.5-0.1,0.6-0.2c0.1-0.1,0.2-0.3,0.2-0.6V324c0-0.3-0.1-0.5-0.2-0.6c-0.1-0.1-0.3-0.2-0.6-0.2h-0.8c-0.3,0-0.5,0-0.6,0.1
	c-0.1,0.1-0.1,0.3-0.1,0.5v6.7c0,0.3,0,0.5,0.1,0.6C633.1,331.2,633.2,331.3,633.5,331.3z M643.8,321.4h2.1V333h-2.1v-0.9
	c-0.2,0.6-0.7,0.9-1.5,0.9h-0.9c-1.4,0-2.1-0.7-2.1-2.1v-9.5h2.1v9.2c0,0.3,0,0.5,0.1,0.6c0.1,0.1,0.3,0.1,0.6,0.1h0.8
	c0.3,0,0.5-0.1,0.6-0.2c0.1-0.1,0.2-0.3,0.2-0.6V321.4z M648,319.2v-2.1h2.2v2.1H648z M650.2,333H648v-11.6h2.1V333z M656.6,317.1
	h2.1V333h-2.1v-0.9c-0.2,0.6-0.7,0.9-1.5,0.9h-0.9c-1.4,0-2.1-0.7-2.1-2.1v-7.4c0-1.4,0.7-2.1,2.1-2.1h0.9c0.8,0,1.3,0.3,1.5,0.9
	V317.1z M654.9,331.3h0.8c0.3,0,0.5-0.1,0.6-0.2c0.1-0.1,0.2-0.3,0.2-0.6V324c0-0.3-0.1-0.5-0.2-0.6c-0.1-0.1-0.3-0.2-0.6-0.2h-0.8
	c-0.3,0-0.5,0-0.6,0.1c-0.1,0.1-0.1,0.3-0.1,0.5v6.8c0,0.3,0,0.5,0.1,0.6C654.5,331.2,654.7,331.3,654.9,331.3z M660.7,319.2v-2.1
	h2.2v2.1H660.7z M662.9,333h-2.1v-11.6h2.1V333z M668.9,323.2h-1.6v7.3c0,0.3,0,0.5,0.1,0.6c0.1,0.1,0.3,0.1,0.6,0.1h0.9v1.8h-1.5
	c-1.5,0-2.2-0.7-2.2-2.1v-7.8h-1.1v-1.7h1.1v-2h2.2v2h1.6V323.2z M671.9,336.3h-1.4v-1.7h1c0.7,0,1.1-0.3,1.2-0.8l0.2-1h-1.2
	l-2.4-11.4h2.2l1.8,9.7l1.6-9.7h2.2l-2.4,12.7C674.3,335.6,673.4,336.3,671.9,336.3z M688.7,333h-4.9c-1.5,0-2.2-0.7-2.2-2.1v-2.5
	c0-0.5,0.1-0.9,0.3-1.3c0.2-0.3,0.6-0.7,1.1-1l0.7-0.5c-0.4-0.5-0.7-0.8-0.8-1.1c-0.2-0.2-0.3-0.6-0.5-0.9c-0.2-0.4-0.3-0.8-0.3-1.1
	v-2.3c0-1.4,0.7-2.1,2.2-2.1h2.3c1.5,0,2.2,0.7,2.2,2.1v2.2c0,0.8-0.1,1.4-0.4,1.9c-0.3,0.5-0.7,0.9-1.4,1.3l-0.5,0.4l2.7,3.3v-1.8
	h1.7v3.4c0,0.1,0,0.3,0,0.5l2,2.4h-2.3l-0.8-1C689.5,332.9,689.1,333,688.7,333z M684.3,320.5v2.2c0,0.5,0.3,1.1,1,1.9l0.1-0.1
	c0.5-0.3,0.9-0.6,1-0.9c0.2-0.3,0.3-0.6,0.3-1.1v-1.9c0-0.3,0-0.5-0.1-0.5c-0.1-0.1-0.3-0.1-0.6-0.1h-1.1c-0.3,0-0.5,0-0.6,0.1
	C684.3,320,684.3,320.2,684.3,320.5z M684.4,331.3h4.1l-3.5-4.2l-0.6,0.4c-0.3,0.2-0.5,0.4-0.6,0.5c-0.1,0.2-0.1,0.4-0.1,0.8v1.8
	c0,0.3,0,0.5,0.1,0.6C683.9,331.3,684.1,331.3,684.4,331.3z M698.1,333h-1.9v-14.8h2.3l2.5,9.2l2.5-9.2h2.3V333h-1.9v-10.9l-2,7.6
	h-1.9l-2-7.6V333z M710.4,333h-1.9v-14.8h2.3l2.5,9.2l2.5-9.2h2.3V333h-1.9v-10.9l-2,7.6h-1.9l-2-7.6V333z"/>
<path class="st0" d="M585,352.9v25.9h-5.8v-21.6h-3.4v-4.3H585z M598,373.4v-15.3c0-0.7-0.4-1-1.1-1h-1.5c-0.7,0-1.1,0.3-1.1,1v15.3
	c0,0.7,0.4,1,1.1,1h1.5C597.6,374.5,598,374.1,598,373.4z M603.8,357.3v16.9c0,3-1.7,4.5-5.1,4.5h-5c-3.4,0-5.2-1.5-5.2-4.5v-16.9
	c0-3,1.7-4.5,5.2-4.5h5C602.1,352.9,603.8,354.4,603.8,357.3z M626.4,352.9h4.3l-13.7,25.9h-4.3L626.4,352.9z M632.2,374.3v-6.1
	c0-0.6-0.3-0.9-0.9-0.9h-0.7c-0.4,0-0.6,0.1-0.7,0.2c-0.1,0.1-0.2,0.4-0.2,0.7v6.1c0,0.3,0.1,0.6,0.2,0.7c0.1,0.1,0.4,0.2,0.7,0.2
	h0.7c0.4,0,0.6-0.1,0.7-0.2C632.2,374.9,632.2,374.7,632.2,374.3z M613.8,363.4v-6.1c0-0.3-0.1-0.6-0.2-0.7
	c-0.1-0.1-0.3-0.2-0.7-0.2h-0.8c-0.4,0-0.6,0.1-0.7,0.2c-0.1,0.1-0.2,0.4-0.2,0.7v6.1c0,0.3,0.1,0.6,0.2,0.7
	c0.1,0.1,0.4,0.2,0.7,0.2h0.8c0.4,0,0.6-0.1,0.7-0.2C613.7,363.9,613.8,363.7,613.8,363.4z M636.9,367.5v7.5c0,2.5-1.4,3.7-4.2,3.7
	h-3.6c-2.8,0-4.2-1.2-4.2-3.7v-7.5c0-2.5,1.4-3.7,4.2-3.7h3.6C635.5,363.9,636.9,365.1,636.9,367.5z M618.5,356.6v7.5
	c0,2.5-1.4,3.7-4.1,3.7h-3.6c-2.8,0-4.1-1.2-4.1-3.7v-7.5c0-2.5,1.4-3.7,4.1-3.7h3.6C617.1,352.9,618.5,354.1,618.5,356.6z"/>
<g>
	<path class="st1" d="M50,277h143c4.4,0,8,3.6,8,8v90c0,4.4-3.6,8-8,8H50c-4.4,0-8-3.6-8-8v-90C42,280.6,45.6,277,50,277z"/>
	
		<linearGradient id="SVGID_6_" gradientUnits="userSpaceOnUse" x1="121.4998" y1="128.9998" x2="121.4998" y2="23.0001" gradientTransform="matrix(1 0 0 -1 0 406)">
		<stop  offset="0" style="stop-color:#54E0FF"/>
		<stop  offset="0.151" style="stop-color:#5160E2;stop-opacity:0.849"/>
		<stop  offset="1" style="stop-color:#0DD3FF;stop-opacity:0.39"/>
	</linearGradient>
	<path class="st7" d="M50,277.9h143c3.9,0,7.1,3.2,7.1,7.1v90c0,3.9-3.2,7.1-7.1,7.1H50c-3.9,0-7.1-3.2-7.1-7.1v-90
		C42.9,281.1,46.1,277.9,50,277.9z"/>
</g>
<path class="st0" d="M63,295.7v1.7h-2.5v13.2h-2.2v-13.2h-2.5v-1.7H63z M66.3,299h2.3c1.5,0,2.2,0.7,2.2,2.1v4.4h-4.7v2.8
	c0,0.3,0,0.5,0.1,0.6c0.1,0.1,0.3,0.1,0.6,0.1H68c0.3,0,0.5,0,0.6-0.1c0.1-0.1,0.1-0.3,0.1-0.6v-1h2.1v1.3c0,1.4-0.7,2.1-2.2,2.1
	h-2.3c-1.5,0-2.2-0.7-2.2-2.1v-7.4C64.1,299.7,64.8,299,66.3,299z M66.2,303.9h2.6v-2.5c0-0.3,0-0.5-0.1-0.6
	c-0.1-0.1-0.3-0.1-0.6-0.1h-1.2c-0.3,0-0.5,0-0.6,0.1c-0.1,0.1-0.1,0.3-0.1,0.6V303.9z M77.1,299h2.2v11.7h-2.2v-0.9
	c-0.2,0.6-0.7,0.9-1.5,0.9h-0.9c-1.4,0-2.2-0.7-2.2-2.1v-7.4c0-1.4,0.7-2.1,2.2-2.1h0.9c0.8,0,1.3,0.3,1.5,0.9V299z M75.5,308.9h0.8
	c0.3,0,0.5-0.1,0.6-0.2c0.1-0.1,0.2-0.3,0.2-0.6v-6.5c0-0.3-0.1-0.5-0.2-0.6c-0.1-0.1-0.3-0.2-0.6-0.2h-0.8c-0.3,0-0.5,0-0.6,0.1
	c-0.1,0.1-0.1,0.3-0.1,0.5v6.8c0,0.3,0,0.5,0.1,0.6C75,308.9,75.2,308.9,75.5,308.9z M89.5,299h0.8c1.4,0,2.2,0.7,2.2,2.1v9.5h-2.2
	v-9.2c0-0.3,0-0.5-0.1-0.5c-0.1-0.1-0.3-0.1-0.6-0.1h-0.9c-0.5,0-0.8,0.3-0.8,0.8v9.1h-2.2v-9.2c0-0.3,0-0.5-0.1-0.5
	c-0.1-0.1-0.3-0.1-0.6-0.1h-0.8c-0.3,0-0.5,0.1-0.6,0.2c-0.1,0.1-0.2,0.3-0.2,0.6v9.1h-2.2V299h2.2v0.9c0.2-0.6,0.7-0.9,1.5-0.9h0.8
	c1,0,1.7,0.4,2,1.1C88,299.4,88.6,299,89.5,299z"/>
<path class="st0" d="M65.7,331.1v26.1h-5.9v-21.8h-3.4v-4.3H65.7z M75.2,340.3h4.1c3.5,0,5.2,1.5,5.2,4.5v7.8c0,3-1.7,4.6-5.2,4.6
	h-4.9c-3.5,0-5.2-1.5-5.2-4.6v-4.3H75v3.5c0,0.7,0.4,1,1.1,1h1.4c0.7,0,1.1-0.3,1.1-1v-6.2c0-0.7-0.4-1-1.1-1h-8.2v-13.5h14.8v4.3
	h-9V340.3z M106.9,331.1h4.4l-13.8,26.1h-4.3L106.9,331.1z M112.9,352.7v-6.2c0-0.6-0.3-0.9-0.9-0.9h-0.7c-0.4,0-0.6,0.1-0.7,0.2
	c-0.1,0.1-0.2,0.4-0.2,0.7v6.2c0,0.3,0.1,0.6,0.2,0.7c0.1,0.1,0.4,0.2,0.7,0.2h0.7c0.4,0,0.6-0.1,0.7-0.2
	C112.8,353.3,112.9,353.1,112.9,352.7z M94.2,341.7v-6.2c0-0.3-0.1-0.6-0.2-0.7c-0.1-0.1-0.3-0.2-0.7-0.2h-0.8
	c-0.4,0-0.6,0.1-0.7,0.2c-0.1,0.1-0.2,0.4-0.2,0.7v6.2c0,0.3,0.1,0.6,0.2,0.7c0.1,0.1,0.4,0.2,0.7,0.2h0.8c0.4,0,0.6-0.1,0.7-0.2
	C94.2,342.2,94.2,342,94.2,341.7z M117.6,345.9v7.5c0,2.5-1.4,3.7-4.2,3.7h-3.6c-2.8,0-4.2-1.2-4.2-3.7v-7.5c0-2.5,1.4-3.7,4.2-3.7
	h3.6C116.2,342.1,117.6,343.4,117.6,345.9z M98.9,334.8v7.5c0,2.5-1.4,3.7-4.2,3.7h-3.7c-2.8,0-4.2-1.2-4.2-3.7v-7.5
	c0-2.5,1.4-3.7,4.2-3.7h3.7C97.5,331.1,98.9,332.3,98.9,334.8z"/>
<g>
	<path class="st1" d="M8.5,131H108c4.4,0,8,3.6,8,8v61c0,4.4-3.6,8-8,8H8.5c-4.4,0-8-3.6-8-8v-61C0.5,134.6,4.1,131,8.5,131z"/>
	
		<linearGradient id="SVGID_7_" gradientUnits="userSpaceOnUse" x1="58.25" y1="275" x2="58.25" y2="197.9999" gradientTransform="matrix(1 0 0 -1 0 406)">
		<stop  offset="0" style="stop-color:#54E0FF"/>
		<stop  offset="0.151" style="stop-color:#5160E2;stop-opacity:0.849"/>
		<stop  offset="1" style="stop-color:#0DD3FF;stop-opacity:0.39"/>
	</linearGradient>
	<path class="st8" d="M8.5,131.6H108c4.1,0,7.4,3.3,7.4,7.4v61c0,4.1-3.3,7.4-7.4,7.4H8.5c-4.1,0-7.4-3.3-7.4-7.4v-61
		C1.1,134.9,4.4,131.6,8.5,131.6z"/>
</g>
<g>
	<path class="st1" d="M299.9,0H407c4.4,0,8,3.6,8,8v54c0,4.4-3.6,8-8,8H299.9c-4.4,0-8-3.6-8-8V8C291.9,3.6,295.5,0,299.9,0z"/>
	
		<linearGradient id="SVGID_8_" gradientUnits="userSpaceOnUse" x1="353.4675" y1="406" x2="353.4675" y2="336" gradientTransform="matrix(1 0 0 -1 0 406)">
		<stop  offset="0" style="stop-color:#54E0FF"/>
		<stop  offset="0.151" style="stop-color:#5160E2;stop-opacity:0.849"/>
		<stop  offset="1" style="stop-color:#0DD3FF;stop-opacity:0.39"/>
	</linearGradient>
	<path class="st9" d="M299.9,0.6H407c4.1,0,7.4,3.3,7.4,7.4v54c0,4.1-3.3,7.4-7.4,7.4H299.9c-4.1,0-7.4-3.3-7.4-7.4V8
		C292.5,3.9,295.8,0.6,299.9,0.6z"/>
</g>
<path class="st0" d="M301.8,12.1h3.2c1,0,1.5,0.5,1.5,1.4v3.3c0,0.9-0.5,1.4-1.5,1.4h-1.8V22h-1.4V12.1z M305.1,16.6v-2.8
	c0-0.2,0-0.3-0.1-0.4c-0.1-0.1-0.2-0.1-0.4-0.1h-1.4v3.8h1.4c0.2,0,0.3,0,0.4-0.1C305,16.9,305.1,16.8,305.1,16.6z M310.3,14.3h0.3
	v1.2h-0.6c-0.7,0-1,0.4-1,1.2V22h-1.4v-7.7h1.4v0.9c0.1-0.3,0.2-0.5,0.4-0.7C309.7,14.4,310,14.3,310.3,14.3z M311.4,12.8v-1.4h1.5
	v1.4H311.4z M312.8,22h-1.4v-7.7h1.4V22z M315,14.3l1,6.5l1-6.5h1.4L317,22h-2l-1.4-7.7H315z M322.1,14.3h1.4V22h-1.4v-0.6
	c-0.1,0.4-0.5,0.6-1,0.6h-0.6c-0.9,0-1.4-0.5-1.4-1.4v-4.9c0-0.9,0.5-1.4,1.4-1.4h0.6c0.5,0,0.8,0.2,1,0.6V14.3z M321,20.9h0.6
	c0.2,0,0.3,0,0.4-0.1c0.1-0.1,0.1-0.2,0.1-0.4V16c0-0.2,0-0.3-0.1-0.4c-0.1-0.1-0.2-0.1-0.4-0.1H321c-0.2,0-0.3,0-0.4,0.1
	c-0.1,0.1-0.1,0.2-0.1,0.4v4.5c0,0.2,0,0.3,0.1,0.4C320.7,20.9,320.8,20.9,321,20.9z M327.5,15.5h-1.1v4.9c0,0.2,0,0.3,0.1,0.4
	c0.1,0.1,0.2,0.1,0.4,0.1h0.6V22h-1c-1,0-1.5-0.5-1.5-1.4v-5.2h-0.7v-1.2h0.7V13h1.4v1.3h1.1V15.5z M329.8,14.3h1.5
	c1,0,1.5,0.5,1.5,1.4v2.9h-3.1v1.8c0,0.2,0,0.3,0.1,0.4c0.1,0.1,0.2,0.1,0.4,0.1h0.7c0.2,0,0.3,0,0.4-0.1c0.1-0.1,0.1-0.2,0.1-0.4
	v-0.6h1.4v0.8c0,0.9-0.5,1.4-1.5,1.4h-1.5c-1,0-1.5-0.5-1.5-1.4v-4.9C328.4,14.8,328.8,14.3,329.8,14.3z M329.7,17.6h1.7v-1.7
	c0-0.2,0-0.3-0.1-0.4c-0.1-0.1-0.2-0.1-0.4-0.1h-0.8c-0.2,0-0.3,0-0.4,0.1c-0.1,0.1-0.1,0.2-0.1,0.4V17.6z M337.9,18v4h-1.4v-9.9
	h3.2c1,0,1.5,0.5,1.5,1.4v3.1c0,0.8-0.4,1.3-1.1,1.4l1.6,4h-1.5l-1.5-4H337.9z M337.9,13.3v3.6h1.4c0.2,0,0.3,0,0.4-0.1
	c0.1-0.1,0.1-0.2,0.1-0.4v-2.7c0-0.2,0-0.3-0.1-0.4c-0.1-0.1-0.2-0.1-0.4-0.1H337.9z M344,14.3h1.7c1,0,1.5,0.5,1.5,1.4v4.9
	c0,0.9-0.5,1.4-1.5,1.4H344c-1,0-1.5-0.5-1.5-1.4v-4.9C342.6,14.8,343,14.3,344,14.3z M345.8,20.4v-4.5c0-0.2,0-0.3-0.1-0.4
	c-0.1-0.1-0.2-0.1-0.4-0.1h-0.9c-0.2,0-0.3,0-0.4,0.1c-0.1,0.1-0.1,0.2-0.1,0.4v4.5c0,0.2,0,0.3,0.1,0.4c0.1,0.1,0.2,0.1,0.4,0.1
	h0.9c0.2,0,0.3,0,0.4-0.1C345.7,20.8,345.8,20.6,345.8,20.4z M351.4,14.3h1.4V22h-1.4v-0.6c-0.1,0.4-0.5,0.6-1,0.6h-0.6
	c-0.9,0-1.4-0.5-1.4-1.4v-6.3h1.4v6.1c0,0.2,0,0.3,0.1,0.4c0.1,0.1,0.2,0.1,0.4,0.1h0.6c0.2,0,0.3,0,0.4-0.1
	c0.1-0.1,0.1-0.2,0.1-0.4V14.3z M356.7,14.3h0.6c1,0,1.4,0.5,1.4,1.4V22h-1.4v-6.1c0-0.2,0-0.3-0.1-0.4c-0.1-0.1-0.2-0.1-0.4-0.1
	h-0.6c-0.2,0-0.3,0-0.4,0.1c-0.1,0.1-0.1,0.2-0.1,0.4v6h-1.4v-7.7h1.4v0.6C355.8,14.5,356.1,14.3,356.7,14.3z M362.9,11.5h1.4V22
	h-1.4v-0.6c-0.1,0.4-0.5,0.6-1,0.6h-0.6c-0.9,0-1.4-0.5-1.4-1.4v-4.9c0-0.9,0.5-1.4,1.4-1.4h0.6c0.5,0,0.8,0.2,1,0.6V11.5z
	 M361.8,20.9h0.6c0.2,0,0.3,0,0.4-0.1c0.1-0.1,0.1-0.2,0.1-0.4V16c0-0.2,0-0.3-0.1-0.4c-0.1-0.1-0.2-0.1-0.4-0.1h-0.6
	c-0.2,0-0.3,0-0.4,0.1c-0.1,0.1-0.1,0.2-0.1,0.4v4.5c0,0.2,0,0.3,0.1,0.4C361.5,20.9,361.6,20.9,361.8,20.9z M371.8,22l-0.4-2.3
	h-2.1l-0.4,2.3h-1.4l1.8-9.9h2.1l1.9,9.9H371.8z M369.5,18.6h1.7l-0.9-5.2L369.5,18.6z"/>
<path class="st0" d="M306,42.3h2.7c2.3,0,3.4,1,3.4,3v5.1c0,2-1.1,3-3.4,3h-3.2c-2.3,0-3.4-1-3.4-3v-2.8h3.9V50
	c0,0.5,0.2,0.7,0.7,0.7h0.9c0.5,0,0.7-0.2,0.7-0.7v-4.1c0-0.5-0.2-0.7-0.7-0.7h-5.4v-8.9h9.8v2.8H306V42.3z M327,36.3h2.9l-9.1,17.2
	h-2.8L327,36.3z M330.9,50.6v-4.1c0-0.4-0.2-0.6-0.6-0.6h-0.5c-0.2,0-0.4,0-0.5,0.1c-0.1,0.1-0.1,0.2-0.1,0.5v4.1
	c0,0.2,0,0.4,0.1,0.5c0.1,0.1,0.3,0.1,0.5,0.1h0.5c0.2,0,0.4,0,0.5-0.1C330.8,50.9,330.9,50.8,330.9,50.6z M318.6,43.2v-4.1
	c0-0.2,0-0.4-0.1-0.5c-0.1-0.1-0.2-0.1-0.5-0.1h-0.5c-0.2,0-0.4,0-0.5,0.1c-0.1,0.1-0.1,0.2-0.1,0.5v4.1c0,0.2,0,0.4,0.1,0.5
	c0.1,0.1,0.3,0.1,0.5,0.1h0.5c0.2,0,0.4,0,0.5-0.1C318.5,43.6,318.6,43.5,318.6,43.2z M334,46v5c0,1.6-0.9,2.5-2.8,2.5h-2.4
	c-1.9,0-2.8-0.8-2.8-2.5v-5c0-1.6,0.9-2.5,2.8-2.5h2.4C333.1,43.6,334,44.4,334,46z M321.7,38.7v5c0,1.6-0.9,2.5-2.8,2.5h-2.4
	c-1.8,0-2.8-0.8-2.8-2.5v-5c0-1.6,0.9-2.5,2.8-2.5h2.4C320.8,36.3,321.7,37.1,321.7,38.7z"/>
<g>
	<path class="st1" d="M132.7,45H245c4.4,0,8,3.6,8,8v57c0,4.4-3.6,8-8,8H132.7c-4.4,0-8-3.6-8-8V53C124.7,48.6,128.2,45,132.7,45z"
		/>
	
		<linearGradient id="SVGID_9_" gradientUnits="userSpaceOnUse" x1="188.8305" y1="361" x2="188.8305" y2="288" gradientTransform="matrix(1 0 0 -1 0 406)">
		<stop  offset="0" style="stop-color:#54E0FF"/>
		<stop  offset="0.151" style="stop-color:#5160E2;stop-opacity:0.849"/>
		<stop  offset="1" style="stop-color:#0DD3FF;stop-opacity:0.39"/>
	</linearGradient>
	<path class="st10" d="M132.7,45.6H245c4.1,0,7.4,3.3,7.4,7.4v57c0,4.1-3.3,7.4-7.4,7.4H132.7c-4.1,0-7.4-3.3-7.4-7.4V53
		C125.2,48.9,128.6,45.6,132.7,45.6z"/>
</g>
<path class="st0" d="M138.7,68.4l-0.4-2.4h-2.2l-0.4,2.4h-1.5l1.8-10.3h2.2l2,10.3H138.7z M136.3,64.8h1.8l-0.9-5.4L136.3,64.8z
	 M144.1,57.4h1.5v11h-1.5v-0.6c-0.1,0.4-0.5,0.6-1,0.6h-0.6c-1,0-1.5-0.5-1.5-1.5v-5.1c0-1,0.5-1.5,1.5-1.5h0.6c0.5,0,0.9,0.2,1,0.6
	V57.4z M143,67.2h0.6c0.2,0,0.3,0,0.4-0.1c0.1-0.1,0.1-0.2,0.1-0.4v-4.5c0-0.2,0-0.4-0.1-0.4c-0.1-0.1-0.2-0.1-0.4-0.1H143
	c-0.2,0-0.3,0-0.4,0.1c-0.1,0.1-0.1,0.2-0.1,0.4v4.7c0,0.2,0,0.3,0.1,0.4C142.7,67.2,142.8,67.2,143,67.2z M147.9,60.4l1.1,6.8
	l1.1-6.8h1.5l-1.5,8h-2.1l-1.5-8H147.9z M152.3,58.8v-1.5h1.6v1.5H152.3z M153.8,68.4h-1.5v-8h1.5V68.4z M157.9,66.8v-1.3
	c0-0.2,0-0.3-0.1-0.4c-0.1-0.1-0.2-0.1-0.4-0.1h-0.8c-1,0-1.5-0.5-1.5-1.5v-1.7c0-1,0.5-1.5,1.5-1.5h1.2c1,0,1.6,0.5,1.6,1.5v0.8
	h-1.5V62c0-0.2,0-0.3-0.1-0.4c-0.1-0.1-0.2-0.1-0.4-0.1H157c-0.2,0-0.3,0-0.4,0.1c-0.1,0.1-0.1,0.2-0.1,0.4v1.4c0,0.2,0,0.3,0.1,0.4
	c0.1,0.1,0.2,0.1,0.4,0.1h0.9c1,0,1.5,0.5,1.5,1.5V67c0,1-0.5,1.5-1.5,1.5h-1.2c-1,0-1.5-0.5-1.5-1.5v-0.8h1.4v0.6
	c0,0.2,0,0.3,0.1,0.4c0.1,0.1,0.2,0.1,0.4,0.1h0.4c0.2,0,0.3,0,0.4-0.1C157.9,67.1,157.9,67,157.9,66.8z M162.1,60.4h1.8
	c1,0,1.5,0.5,1.5,1.5V67c0,1-0.5,1.5-1.5,1.5h-1.8c-1,0-1.5-0.5-1.5-1.5v-5.1C160.6,60.9,161.1,60.4,162.1,60.4z M163.9,66.8V62
	c0-0.2,0-0.3-0.1-0.4c-0.1-0.1-0.2-0.1-0.4-0.1h-0.9c-0.2,0-0.3,0-0.4,0.1c-0.1,0.1-0.1,0.2-0.1,0.4v4.7c0,0.2,0,0.3,0.1,0.4
	c0.1,0.1,0.2,0.1,0.4,0.1h0.9c0.2,0,0.3,0,0.4-0.1C163.9,67.1,163.9,67,163.9,66.8z M169.5,60.4h0.3v1.3h-0.6c-0.7,0-1,0.4-1,1.2
	v5.6h-1.5v-8h1.5v1c0.1-0.3,0.2-0.5,0.5-0.7C168.9,60.5,169.2,60.4,169.5,60.4z M173.4,66.8v-1.3c0-0.2,0-0.3-0.1-0.4
	c-0.1-0.1-0.2-0.1-0.4-0.1H172c-1,0-1.5-0.5-1.5-1.5v-1.7c0-1,0.5-1.5,1.5-1.5h1.2c1,0,1.5,0.5,1.5,1.5v0.8h-1.5V62
	c0-0.2,0-0.3-0.1-0.4c-0.1-0.1-0.2-0.1-0.4-0.1h-0.4c-0.2,0-0.3,0-0.4,0.1c-0.1,0.1-0.1,0.2-0.1,0.4v1.4c0,0.2,0,0.3,0.1,0.4
	c0.1,0.1,0.2,0.1,0.4,0.1h0.9c1,0,1.5,0.5,1.5,1.5V67c0,1-0.5,1.5-1.5,1.5h-1.2c-1,0-1.5-0.5-1.5-1.5v-0.8h1.5v0.6
	c0,0.2,0,0.3,0.1,0.4c0.1,0.1,0.2,0.1,0.4,0.1h0.4c0.2,0,0.3,0,0.4-0.1C173.3,67.1,173.4,67,173.4,66.8z M183.3,68.4h-3.4
	c-1,0-1.5-0.5-1.5-1.5v-1.7c0-0.4,0.1-0.7,0.2-0.9c0.1-0.2,0.4-0.5,0.8-0.7l0.5-0.4c-0.3-0.3-0.5-0.6-0.6-0.7
	c-0.1-0.2-0.2-0.4-0.4-0.7c-0.1-0.3-0.2-0.5-0.2-0.8v-1.6c0-1,0.5-1.5,1.6-1.5h1.6c1,0,1.5,0.5,1.5,1.5v1.5c0,0.6-0.1,1-0.3,1.3
	c-0.2,0.3-0.5,0.6-1,0.9l-0.4,0.2l1.9,2.3v-1.3h1.2V67c0,0.1,0,0.2,0,0.4l1.4,1.7h-1.6l-0.6-0.7C183.9,68.4,183.6,68.4,183.3,68.4z
	 M180.2,59.7v1.5c0,0.3,0.2,0.8,0.7,1.3l0.1-0.1c0.4-0.2,0.6-0.4,0.7-0.6c0.1-0.2,0.2-0.4,0.2-0.8v-1.4c0-0.2,0-0.3-0.1-0.4
	c-0.1-0.1-0.2-0.1-0.4-0.1h-0.8c-0.2,0-0.3,0-0.4,0.1C180.3,59.4,180.2,59.5,180.2,59.7z M180.3,67.2h2.9l-2.5-3l-0.4,0.3
	c-0.2,0.1-0.3,0.2-0.4,0.4c-0.1,0.1-0.1,0.3-0.1,0.6v1.3c0,0.2,0,0.3,0.1,0.4C180,67.2,180.1,67.2,180.3,67.2z M190.1,67.2h2.6v1.2
	h-4V58.1h1.5V67.2z M194.9,60.4h1.6c1,0,1.5,0.5,1.5,1.5v3h-3.2v1.9c0,0.2,0,0.3,0.1,0.4c0.1,0.1,0.2,0.1,0.4,0.1h0.8
	c0.2,0,0.3,0,0.4-0.1c0.1-0.1,0.1-0.2,0.1-0.4v-0.7h1.5V67c0,1-0.5,1.5-1.5,1.5h-1.6c-1,0-1.5-0.5-1.5-1.5v-5.1
	C193.4,60.9,193.9,60.4,194.9,60.4z M194.8,63.8h1.8V62c0-0.2,0-0.3-0.1-0.4c-0.1-0.1-0.2-0.1-0.4-0.1h-0.8c-0.2,0-0.3,0-0.4,0.1
	c-0.1,0.1-0.1,0.2-0.1,0.4V63.8z M202.4,60.4h1.5v8.9c0,1-0.5,1.5-1.5,1.5h-2.8v-1.2h2.3c0.2,0,0.3,0,0.4-0.1
	c0.1-0.1,0.1-0.2,0.1-0.4v-1.4c-0.1,0.4-0.5,0.6-1,0.6h-0.6c-1,0-1.5-0.5-1.5-1.5v-5c0-1,0.5-1.5,1.5-1.5h0.6c0.5,0,0.9,0.2,1,0.6
	V60.4z M201.2,67.1h0.6c0.2,0,0.3,0,0.4-0.1c0.1-0.1,0.1-0.2,0.1-0.4v-4.4c0-0.2,0-0.4-0.1-0.4c-0.1-0.1-0.2-0.1-0.4-0.1h-0.6
	c-0.2,0-0.3,0-0.4,0.1c-0.1,0.1-0.1,0.2-0.1,0.4v4.6c0,0.2,0,0.3,0.1,0.4C200.9,67.1,201,67.1,201.2,67.1z M208.3,60.4h1.5v8h-1.5
	v-0.6c-0.1,0.4-0.5,0.6-1,0.6h-0.6c-1,0-1.5-0.5-1.5-1.5v-5.1c0-1,0.5-1.5,1.5-1.5h0.6c0.5,0,0.9,0.2,1,0.6V60.4z M207.2,67.2h0.6
	c0.2,0,0.3,0,0.4-0.1c0.1-0.1,0.1-0.2,0.1-0.4v-4.5c0-0.2,0-0.4-0.1-0.4c-0.1-0.1-0.2-0.1-0.4-0.1h-0.6c-0.2,0-0.3,0-0.4,0.1
	c-0.1,0.1-0.1,0.2-0.1,0.4v4.7c0,0.2,0,0.3,0.1,0.4C206.8,67.2,207,67.2,207.2,67.2z M212.7,68.4h-1.5v-11h1.5V68.4z M220.9,58.1
	v1.2h-1.7v9.1h-1.5v-9.1h-1.7v-1.2H220.9z M223.2,60.4h1.6c1,0,1.5,0.5,1.5,1.5v3h-3.2v1.9c0,0.2,0,0.3,0.1,0.4
	c0.1,0.1,0.2,0.1,0.4,0.1h0.8c0.2,0,0.3,0,0.4-0.1c0.1-0.1,0.1-0.2,0.1-0.4v-0.7h1.5V67c0,1-0.5,1.5-1.5,1.5h-1.6
	c-1,0-1.5-0.5-1.5-1.5v-5.1C221.6,60.9,222.1,60.4,223.2,60.4z M223.1,63.8h1.8V62c0-0.2,0-0.3-0.1-0.4c-0.1-0.1-0.2-0.1-0.4-0.1
	h-0.8c-0.2,0-0.3,0-0.4,0.1c-0.1,0.1-0.1,0.2-0.1,0.4V63.8z M230.6,60.4h1.5v8h-1.5v-0.6c-0.1,0.4-0.5,0.6-1,0.6H229
	c-1,0-1.5-0.5-1.5-1.5v-5.1c0-1,0.5-1.5,1.5-1.5h0.6c0.5,0,0.9,0.2,1,0.6V60.4z M229.5,67.2h0.6c0.2,0,0.3,0,0.4-0.1
	c0.1-0.1,0.1-0.2,0.1-0.4v-4.5c0-0.2,0-0.4-0.1-0.4c-0.1-0.1-0.2-0.1-0.4-0.1h-0.6c-0.2,0-0.3,0-0.4,0.1c-0.1,0.1-0.1,0.2-0.1,0.4
	v4.7c0,0.2,0,0.3,0.1,0.4C229.1,67.2,229.3,67.2,229.5,67.2z M239.1,60.4h0.6c1,0,1.5,0.5,1.5,1.5v6.6h-1.5v-6.4
	c0-0.2,0-0.3-0.1-0.4c-0.1-0.1-0.2-0.1-0.4-0.1h-0.6c-0.4,0-0.5,0.2-0.5,0.6v6.3h-1.5v-6.4c0-0.2,0-0.3-0.1-0.4
	c-0.1-0.1-0.2-0.1-0.4-0.1h-0.6c-0.2,0-0.3,0-0.4,0.1c-0.1,0.1-0.1,0.2-0.1,0.4v6.3h-1.5v-8h1.5V61c0.1-0.4,0.5-0.6,1-0.6h0.6
	c0.7,0,1.2,0.2,1.4,0.7C238.1,60.6,238.5,60.4,239.1,60.4z"/>
<path class="st0" d="M139.4,89.2h2.8c2.4,0,3.6,1,3.6,3.1v5.4c0,2.1-1.2,3.1-3.6,3.1h-3.4c-2.4,0-3.6-1-3.6-3.1v-2.9h4v2.4
	c0,0.5,0.3,0.7,0.8,0.7h1c0.5,0,0.8-0.2,0.8-0.7v-4.3c0-0.5-0.3-0.7-0.8-0.7h-5.6v-9.3h10.2v3h-6.2V89.2z M161.2,82.8h3l-9.5,18h-3
	L161.2,82.8z M165.3,97.7v-4.2c0-0.4-0.2-0.6-0.7-0.6h-0.5c-0.2,0-0.4,0-0.5,0.1c-0.1,0.1-0.1,0.3-0.1,0.5v4.2c0,0.2,0,0.4,0.1,0.5
	c0.1,0.1,0.3,0.1,0.5,0.1h0.5c0.2,0,0.4,0,0.5-0.1C165.2,98.1,165.3,98,165.3,97.7z M152.5,90.1v-4.2c0-0.2,0-0.4-0.1-0.5
	c-0.1-0.1-0.2-0.1-0.5-0.1h-0.5c-0.2,0-0.4,0-0.5,0.1c-0.1,0.1-0.1,0.3-0.1,0.5v4.2c0,0.2,0,0.4,0.1,0.5c0.1,0.1,0.3,0.1,0.5,0.1
	h0.5c0.2,0,0.4,0,0.5-0.1C152.4,90.5,152.5,90.3,152.5,90.1z M168.5,93v5.2c0,1.7-1,2.6-2.9,2.6h-2.5c-1.9,0-2.9-0.9-2.9-2.6V93
	c0-1.7,1-2.6,2.9-2.6h2.5C167.6,90.4,168.5,91.3,168.5,93z M155.7,85.4v5.2c0,1.7-1,2.6-2.9,2.6h-2.5c-1.9,0-2.9-0.9-2.9-2.6v-5.2
	c0-1.7,1-2.6,2.9-2.6h2.5C154.7,82.8,155.7,83.7,155.7,85.4z"/>
</svg>
