<svg width="940" height="404" viewBox="0 0 940 404" fill="none" xmlns="http://www.w3.org/2000/svg">
    <circle cx="447" cy="113" r="4" fill="white" />
    <rect x="446" y="58" width="2" height="53" fill="white" />
    <circle cx="380" cy="120" r="4" fill="white" />
    <rect x="379" y="65" width="2" height="53" fill="white" />
    <circle cx="551" cy="128" r="4" fill="white" />
    <rect x="550" y="73" width="2" height="53" fill="white" />
    <circle cx="651" cy="162" r="4" fill="white" />
    <rect x="650" y="107" width="2" height="53" fill="white" />
    <circle cx="294" cy="135" r="4" fill="white" />
    <rect x="293" y="80" width="2" height="53" fill="white" />
    <rect x="214" y="80" width="81" height="2" fill="white" />
    <circle cx="642" cy="229" r="4" fill="white" />
    <rect x="641" y="194" width="2" height="33" fill="white" />
    <rect x="641" y="194" width="128" height="2" fill="white" />
    <circle r="4" transform="matrix(-1 0 0 1 226 197)" fill="white" />
    <rect width="2" height="33" transform="matrix(-1 0 0 1 227 162)" fill="white" />
    <rect width="128" height="2" transform="matrix(-1 0 0 1 227 162)" fill="white" />
    <circle cx="493" cy="315" r="4" transform="rotate(-180 493 315)" fill="white" />
    <rect x="494" y="350" width="2" height="33" transform="rotate(-180 494 350)" fill="white" />
    <rect x="492" y="349" width="149" height="2" fill="white" />
    <g filter="url(#filter0_d_918_103)">
        <circle r="4" transform="matrix(1 0 0 -1 300 281)" fill="white" />
        <rect width="2" height="33" transform="matrix(1 0 0 -1 299 316)" fill="white" />
        <rect width="149" height="2" transform="matrix(-1 0 0 1 301 315)" fill="white" />
    </g>
    <g filter="url(#filter1_b_918_103)">
        <rect x="432" y="11" width="90" height="62" rx="8" fill="white" fill-opacity="0.08" />
        <rect x="432.5" y="11.5" width="89" height="61" rx="7.5" stroke="url(#paint0_linear_918_103)" />
    </g>
    <path
        d="M440.728 22.236H443.598C444.466 22.236 444.9 22.6467 444.9 23.468V26.38C444.9 27.2013 444.466 27.612 443.598 27.612H441.988V31H440.728V22.236ZM443.64 26.184V23.664C443.64 23.496 443.612 23.3887 443.556 23.342C443.5 23.286 443.388 23.258 443.22 23.258H441.988V26.604H443.22C443.388 26.604 443.5 26.576 443.556 26.52C443.612 26.464 443.64 26.352 443.64 26.184ZM448.525 24.168H449.785V31H448.525V30.454C448.404 30.818 448.114 31 447.657 31H447.153C446.313 31 445.893 30.5893 445.893 29.768V24.168H447.153V29.572C447.153 29.74 447.181 29.852 447.237 29.908C447.293 29.9547 447.405 29.978 447.573 29.978H448.063C448.231 29.978 448.348 29.9407 448.413 29.866C448.488 29.7913 448.525 29.6653 448.525 29.488V24.168ZM453.148 24.154H453.638C454.488 24.154 454.912 24.5693 454.912 25.4V29.768C454.912 30.5893 454.488 31 453.638 31H453.148C452.691 31 452.402 30.818 452.28 30.454V31H451.02V21.634H452.28V24.7C452.402 24.336 452.691 24.154 453.148 24.154ZM453.652 29.572V25.582C453.652 25.4233 453.624 25.316 453.568 25.26C453.512 25.204 453.4 25.176 453.232 25.176H452.742C452.574 25.176 452.453 25.2133 452.378 25.288C452.313 25.3627 452.28 25.4887 452.28 25.666V29.488C452.28 29.6653 452.313 29.7913 452.378 29.866C452.453 29.9407 452.574 29.978 452.742 29.978H453.232C453.4 29.978 453.512 29.9547 453.568 29.908C453.624 29.852 453.652 29.74 453.652 29.572ZM457.325 31H456.065V21.634H457.325V31ZM458.526 22.866V21.62H459.842V22.866H458.526ZM459.814 31H458.554V24.168H459.814V31ZM464.906 26.324H463.66V25.596C463.66 25.428 463.632 25.3207 463.576 25.274C463.52 25.218 463.408 25.19 463.24 25.19H462.638C462.47 25.19 462.358 25.218 462.302 25.274C462.246 25.3207 462.218 25.428 462.218 25.596V29.572C462.218 29.74 462.246 29.852 462.302 29.908C462.358 29.9547 462.47 29.978 462.638 29.978H463.24C463.408 29.978 463.52 29.9547 463.576 29.908C463.632 29.852 463.66 29.74 463.66 29.572V28.844H464.906V29.768C464.906 30.5893 464.467 31 463.59 31H462.26C461.392 31 460.958 30.5893 460.958 29.768V25.414C460.958 24.5833 461.392 24.168 462.26 24.168H463.59C464.467 24.168 464.906 24.5833 464.906 25.414V26.324ZM469.345 27.458V31H468.085V22.236H470.955C471.823 22.236 472.257 22.6467 472.257 23.468V26.212C472.257 26.9213 471.945 27.3273 471.319 27.43L472.705 31H471.347L470.031 27.458H469.345ZM469.345 23.258V26.45H470.577C470.745 26.45 470.857 26.4267 470.913 26.38C470.969 26.324 470.997 26.212 470.997 26.044V23.664C470.997 23.496 470.969 23.3887 470.913 23.342C470.857 23.286 470.745 23.258 470.577 23.258H469.345ZM474.742 24.168H476.24C477.108 24.168 477.542 24.5833 477.542 25.414V29.768C477.542 30.5893 477.108 31 476.24 31H474.742C473.884 31 473.454 30.5893 473.454 29.768V25.414C473.454 24.5833 473.884 24.168 474.742 24.168ZM476.296 29.586V25.582C476.296 25.414 476.268 25.302 476.212 25.246C476.156 25.19 476.044 25.162 475.876 25.162H475.106C474.938 25.162 474.826 25.19 474.77 25.246C474.724 25.302 474.7 25.414 474.7 25.582V29.586C474.7 29.754 474.724 29.866 474.77 29.922C474.826 29.978 474.938 30.006 475.106 30.006H475.876C476.044 30.006 476.156 29.978 476.212 29.922C476.268 29.866 476.296 29.754 476.296 29.586ZM481.324 24.168H482.584V31H481.324V30.454C481.203 30.818 480.913 31 480.456 31H479.952C479.112 31 478.692 30.5893 478.692 29.768V24.168H479.952V29.572C479.952 29.74 479.98 29.852 480.036 29.908C480.092 29.9547 480.204 29.978 480.372 29.978H480.862C481.03 29.978 481.147 29.9407 481.212 29.866C481.287 29.7913 481.324 29.6653 481.324 29.488V24.168ZM485.947 24.168H486.437C487.286 24.168 487.711 24.5833 487.711 25.414V31H486.451V25.596C486.451 25.428 486.423 25.3207 486.367 25.274C486.311 25.218 486.199 25.19 486.031 25.19H485.541C485.373 25.19 485.252 25.2273 485.177 25.302C485.112 25.3767 485.079 25.5027 485.079 25.68V31H483.819V24.168H485.079V24.714C485.2 24.35 485.49 24.168 485.947 24.168ZM491.48 21.634H492.74V31H491.48V30.454C491.359 30.818 491.07 31 490.612 31H490.108C489.268 31 488.848 30.5893 488.848 29.768V25.4C488.848 24.5693 489.268 24.154 490.108 24.154H490.612C491.07 24.154 491.359 24.336 491.48 24.7V21.634ZM490.528 29.978H491.018C491.186 29.978 491.303 29.9407 491.368 29.866C491.443 29.7913 491.48 29.6653 491.48 29.488V25.666C491.48 25.4887 491.443 25.3627 491.368 25.288C491.303 25.2133 491.186 25.176 491.018 25.176H490.528C490.36 25.176 490.248 25.204 490.192 25.26C490.136 25.316 490.108 25.4233 490.108 25.582V29.572C490.108 29.74 490.136 29.852 490.192 29.908C490.248 29.9547 490.36 29.978 490.528 29.978Z"
        fill="white" />
    <path
        d="M450.848 52.6V55.144H449.336V58H446.096V55.144H440.216V52.168L445.424 42.736H448.88L443.288 52.6H446.096V49.6H449.336V52.6H450.848ZM463.212 42.736H465.78L457.716 58H455.196L463.212 42.736ZM466.668 55.408V51.808C466.668 51.456 466.484 51.28 466.116 51.28H465.684C465.476 51.28 465.332 51.32 465.252 51.4C465.188 51.48 465.156 51.616 465.156 51.808V55.408C465.156 55.6 465.188 55.736 465.252 55.816C465.332 55.88 465.476 55.912 465.684 55.912H466.116C466.324 55.912 466.468 55.88 466.548 55.816C466.628 55.736 466.668 55.6 466.668 55.408ZM455.772 48.928V45.328C455.772 45.136 455.732 45 455.652 44.92C455.588 44.84 455.452 44.8 455.244 44.8H454.788C454.58 44.8 454.436 44.84 454.356 44.92C454.292 45 454.26 45.136 454.26 45.328V48.928C454.26 49.12 454.292 49.256 454.356 49.336C454.436 49.4 454.58 49.432 454.788 49.432H455.244C455.452 49.432 455.588 49.4 455.652 49.336C455.732 49.256 455.772 49.12 455.772 48.928ZM469.428 51.4V55.816C469.428 57.272 468.604 58 466.956 58H464.844C463.196 58 462.372 57.272 462.372 55.816V51.4C462.372 49.944 463.196 49.216 464.844 49.216H466.956C468.604 49.216 469.428 49.944 469.428 51.4ZM458.532 44.92V49.336C458.532 50.792 457.716 51.52 456.084 51.52H453.948C452.316 51.52 451.5 50.792 451.5 49.336V44.92C451.5 43.464 452.316 42.736 453.948 42.736H456.084C457.716 42.736 458.532 43.464 458.532 44.92Z"
        fill="white" />
    <g filter="url(#filter2_b_918_103)">
        <rect x="536" y="26" width="91" height="62" rx="8" fill="white" fill-opacity="0.08" />
        <rect x="536.5" y="26.5" width="90" height="61" rx="7.5" stroke="url(#paint1_linear_918_103)" />
    </g>
    <path
        d="M544.728 37.236H547.598C548.466 37.236 548.9 37.6467 548.9 38.468V41.38C548.9 42.2013 548.466 42.612 547.598 42.612H545.988V46H544.728V37.236ZM547.64 41.184V38.664C547.64 38.496 547.612 38.3887 547.556 38.342C547.5 38.286 547.388 38.258 547.22 38.258H545.988V41.604H547.22C547.388 41.604 547.5 41.576 547.556 41.52C547.612 41.464 547.64 41.352 547.64 41.184ZM552.273 39.154H552.553V40.246H552.049C551.461 40.246 551.167 40.5913 551.167 41.282V46H549.907V39.168H551.167V40.008C551.242 39.7653 551.372 39.5647 551.559 39.406C551.755 39.238 551.993 39.154 552.273 39.154ZM553.215 37.866V36.62H554.531V37.866H553.215ZM554.503 46H553.243V39.168H554.503V46ZM556.431 39.168L557.327 44.936L558.237 39.168H559.497L558.237 46H556.431L555.171 39.168H556.431ZM562.723 39.168H563.983V46H562.723V45.454C562.601 45.818 562.312 46 561.855 46H561.351C560.511 46 560.091 45.5893 560.091 44.768V40.414C560.091 39.5833 560.511 39.168 561.351 39.168H561.855C562.312 39.168 562.601 39.35 562.723 39.714V39.168ZM561.771 44.978H562.261C562.429 44.978 562.545 44.9407 562.611 44.866C562.685 44.7913 562.723 44.6653 562.723 44.488V40.68C562.723 40.5027 562.685 40.3767 562.611 40.302C562.545 40.2273 562.429 40.19 562.261 40.19H561.771C561.603 40.19 561.491 40.218 561.435 40.274C561.379 40.3207 561.351 40.428 561.351 40.596V44.572C561.351 44.74 561.379 44.852 561.435 44.908C561.491 44.9547 561.603 44.978 561.771 44.978ZM567.53 40.19H566.592V44.516C566.592 44.684 566.615 44.796 566.662 44.852C566.718 44.8987 566.83 44.922 566.998 44.922H567.53V46H566.634C565.756 46 565.318 45.5893 565.318 44.768V40.19H564.674V39.168H565.318V38.006H566.592V39.168H567.53V40.19ZM569.556 39.168H570.928C571.805 39.168 572.244 39.5833 572.244 40.414V42.976H569.486V44.6C569.486 44.7587 569.514 44.866 569.57 44.922C569.626 44.978 569.738 45.006 569.906 45.006H570.55C570.718 45.006 570.83 44.978 570.886 44.922C570.942 44.866 570.97 44.754 570.97 44.586V44.026H572.202V44.768C572.202 45.5893 571.768 46 570.9 46H569.556C568.688 46 568.254 45.5893 568.254 44.768V40.414C568.254 39.5833 568.688 39.168 569.556 39.168ZM569.486 42.052H570.998V40.568C570.998 40.4093 570.97 40.302 570.914 40.246C570.867 40.19 570.76 40.162 570.592 40.162H569.906C569.738 40.162 569.626 40.19 569.57 40.246C569.514 40.302 569.486 40.4093 569.486 40.568V42.052ZM576.722 42.458V46H575.462V37.236H578.332C579.2 37.236 579.634 37.6467 579.634 38.468V41.212C579.634 41.9213 579.322 42.3273 578.696 42.43L580.082 46H578.724L577.408 42.458H576.722ZM576.722 38.258V41.45H577.954C578.122 41.45 578.234 41.4267 578.29 41.38C578.346 41.324 578.374 41.212 578.374 41.044V38.664C578.374 38.496 578.346 38.3887 578.29 38.342C578.234 38.286 578.122 38.258 577.954 38.258H576.722ZM582.119 39.168H583.617C584.485 39.168 584.919 39.5833 584.919 40.414V44.768C584.919 45.5893 584.485 46 583.617 46H582.119C581.26 46 580.831 45.5893 580.831 44.768V40.414C580.831 39.5833 581.26 39.168 582.119 39.168ZM583.673 44.586V40.582C583.673 40.414 583.645 40.302 583.589 40.246C583.533 40.19 583.421 40.162 583.253 40.162H582.483C582.315 40.162 582.203 40.19 582.147 40.246C582.1 40.302 582.077 40.414 582.077 40.582V44.586C582.077 44.754 582.1 44.866 582.147 44.922C582.203 44.978 582.315 45.006 582.483 45.006H583.253C583.421 45.006 583.533 44.978 583.589 44.922C583.645 44.866 583.673 44.754 583.673 44.586ZM588.701 39.168H589.961V46H588.701V45.454C588.579 45.818 588.29 46 587.833 46H587.329C586.489 46 586.069 45.5893 586.069 44.768V39.168H587.329V44.572C587.329 44.74 587.357 44.852 587.413 44.908C587.469 44.9547 587.581 44.978 587.749 44.978H588.239C588.407 44.978 588.523 44.9407 588.589 44.866C588.663 44.7913 588.701 44.6653 588.701 44.488V39.168ZM593.324 39.168H593.814C594.663 39.168 595.088 39.5833 595.088 40.414V46H593.828V40.596C593.828 40.428 593.8 40.3207 593.744 40.274C593.688 40.218 593.576 40.19 593.408 40.19H592.918C592.75 40.19 592.629 40.2273 592.554 40.302C592.489 40.3767 592.456 40.5027 592.456 40.68V46H591.196V39.168H592.456V39.714C592.577 39.35 592.867 39.168 593.324 39.168ZM598.857 36.634H600.117V46H598.857V45.454C598.736 45.818 598.447 46 597.989 46H597.485C596.645 46 596.225 45.5893 596.225 44.768V40.4C596.225 39.5693 596.645 39.154 597.485 39.154H597.989C598.447 39.154 598.736 39.336 598.857 39.7V36.634ZM597.905 44.978H598.395C598.563 44.978 598.68 44.9407 598.745 44.866C598.82 44.7913 598.857 44.6653 598.857 44.488V40.666C598.857 40.4887 598.82 40.3627 598.745 40.288C598.68 40.2133 598.563 40.176 598.395 40.176H597.905C597.737 40.176 597.625 40.204 597.569 40.26C597.513 40.316 597.485 40.4233 597.485 40.582V44.572C597.485 44.74 597.513 44.852 597.569 44.908C597.625 44.9547 597.737 44.978 597.905 44.978ZM606.57 40.638V38.636C606.57 38.468 606.542 38.3607 606.486 38.314C606.43 38.258 606.318 38.23 606.15 38.23H604.75V41.044H606.15C606.318 41.044 606.43 41.0207 606.486 40.974C606.542 40.918 606.57 40.806 606.57 40.638ZM606.57 44.6V42.444C606.57 42.276 606.542 42.1687 606.486 42.122C606.43 42.066 606.318 42.038 606.15 42.038H604.75V45.006H606.15C606.318 45.006 606.43 44.9827 606.486 44.936C606.542 44.88 606.57 44.768 606.57 44.6ZM603.49 37.236H606.528C607.405 37.236 607.844 37.6467 607.844 38.468V40.694C607.844 41.1887 607.657 41.478 607.284 41.562C607.657 41.6553 607.844 41.926 607.844 42.374V44.768C607.844 45.5893 607.405 46 606.528 46H603.49V37.236Z"
        fill="white" />
    <path
        d="M552.808 57.736V59.656L548.368 73H544.84L549.16 60.424H544.216V57.736H552.808ZM565.29 57.736H567.858L559.794 73H557.274L565.29 57.736ZM568.746 70.408V66.808C568.746 66.456 568.562 66.28 568.194 66.28H567.762C567.554 66.28 567.41 66.32 567.33 66.4C567.266 66.48 567.234 66.616 567.234 66.808V70.408C567.234 70.6 567.266 70.736 567.33 70.816C567.41 70.88 567.554 70.912 567.762 70.912H568.194C568.402 70.912 568.546 70.88 568.626 70.816C568.706 70.736 568.746 70.6 568.746 70.408ZM557.85 63.928V60.328C557.85 60.136 557.81 60 557.73 59.92C557.666 59.84 557.53 59.8 557.322 59.8H556.866C556.658 59.8 556.514 59.84 556.434 59.92C556.37 60 556.338 60.136 556.338 60.328V63.928C556.338 64.12 556.37 64.256 556.434 64.336C556.514 64.4 556.658 64.432 556.866 64.432H557.322C557.53 64.432 557.666 64.4 557.73 64.336C557.81 64.256 557.85 64.12 557.85 63.928ZM571.506 66.4V70.816C571.506 72.272 570.682 73 569.034 73H566.922C565.274 73 564.45 72.272 564.45 70.816V66.4C564.45 64.944 565.274 64.216 566.922 64.216H569.034C570.682 64.216 571.506 64.944 571.506 66.4ZM560.61 59.92V64.336C560.61 65.792 559.794 66.52 558.162 66.52H556.026C554.394 66.52 553.578 65.792 553.578 64.336V59.92C553.578 58.464 554.394 57.736 556.026 57.736H558.162C559.794 57.736 560.61 58.464 560.61 59.92Z"
        fill="white" />
    <g filter="url(#filter3_b_918_103)">
        <rect x="636" y="60" width="100" height="84.9315" rx="8" fill="white" fill-opacity="0.08" />
        <rect x="636.685" y="60.6849" width="98.6301" height="83.5616" rx="7.31507" stroke="url(#paint2_linear_918_103)"
            stroke-width="1.36986" />
    </g>
    <path
        d="M651.408 85.0027V82.0685C651.408 81.8383 651.37 81.6913 651.293 81.6274C651.229 81.5507 651.082 81.5123 650.852 81.5123H649.433C648.269 81.5123 647.688 80.9434 647.688 79.8055V76.6411C647.688 75.516 648.282 74.9534 649.471 74.9534H651.351C652.54 74.9534 653.134 75.516 653.134 76.6411V78.4055H651.389V76.9096C651.389 76.6794 651.351 76.5324 651.274 76.4685C651.197 76.3918 651.044 76.3534 650.814 76.3534H650.008C649.778 76.3534 649.625 76.3918 649.548 76.4685C649.471 76.5324 649.433 76.6794 649.433 76.9096V79.5753C649.433 79.8055 649.471 79.9589 649.548 80.0356C649.625 80.0995 649.778 80.1315 650.008 80.1315H651.408C652.585 80.1315 653.173 80.6941 653.173 81.8192V85.2712C653.173 86.3963 652.572 86.9589 651.37 86.9589H649.51C648.321 86.9589 647.726 86.3963 647.726 85.2712V83.5068H649.471V85.0027C649.471 85.2329 649.51 85.3863 649.586 85.463C649.663 85.5269 649.817 85.5589 650.047 85.5589H650.852C651.082 85.5589 651.229 85.5269 651.293 85.463C651.37 85.3863 651.408 85.2329 651.408 85.0027ZM656.478 77.6H658.357C659.559 77.6 660.16 78.1689 660.16 79.3068V82.8164H656.382V85.0411C656.382 85.2584 656.42 85.4055 656.497 85.4822C656.573 85.5589 656.727 85.5972 656.957 85.5972H657.839C658.069 85.5972 658.223 85.5589 658.3 85.4822C658.376 85.4055 658.415 85.252 658.415 85.0219V84.2548H660.102V85.2712C660.102 86.3963 659.508 86.9589 658.319 86.9589H656.478C655.289 86.9589 654.694 86.3963 654.694 85.2712V79.3068C654.694 78.1689 655.289 77.6 656.478 77.6ZM656.382 81.5507H658.453V79.5178C658.453 79.3004 658.415 79.1534 658.338 79.0767C658.274 79 658.127 78.9616 657.897 78.9616H656.957C656.727 78.9616 656.573 79 656.497 79.0767C656.42 79.1534 656.382 79.3004 656.382 79.5178V81.5507ZM663.388 77.6H665.268C666.47 77.6 667.071 78.1689 667.071 79.3068V82.8164H663.293V85.0411C663.293 85.2584 663.331 85.4055 663.408 85.4822C663.484 85.5589 663.638 85.5972 663.868 85.5972H664.75C664.98 85.5972 665.134 85.5589 665.21 85.4822C665.287 85.4055 665.325 85.252 665.325 85.0219V84.2548H667.013V85.2712C667.013 86.3963 666.419 86.9589 665.23 86.9589H663.388C662.199 86.9589 661.605 86.3963 661.605 85.2712V79.3068C661.605 78.1689 662.199 77.6 663.388 77.6ZM663.293 81.5507H665.364V79.5178C665.364 79.3004 665.325 79.1534 665.249 79.0767C665.185 79 665.038 78.9616 664.808 78.9616H663.868C663.638 78.9616 663.484 79 663.408 79.0767C663.331 79.1534 663.293 79.3004 663.293 79.5178V81.5507ZM672.045 74.1288H673.771V86.9589H672.045V86.2109C671.878 86.7096 671.482 86.9589 670.855 86.9589H670.165C669.014 86.9589 668.439 86.3963 668.439 85.2712V79.2877C668.439 78.1498 669.014 77.5808 670.165 77.5808H670.855C671.482 77.5808 671.878 77.8301 672.045 78.3288V74.1288ZM670.74 85.5589H671.412C671.642 85.5589 671.802 85.5078 671.891 85.4055C671.993 85.3032 672.045 85.1306 672.045 84.8877V79.652C672.045 79.4091 671.993 79.2365 671.891 79.1342C671.802 79.032 671.642 78.9808 671.412 78.9808H670.74C670.51 78.9808 670.357 79.0192 670.28 79.0959C670.203 79.1726 670.165 79.3196 670.165 79.537V85.0027C670.165 85.2329 670.203 85.3863 670.28 85.463C670.357 85.5269 670.51 85.5589 670.74 85.5589ZM680.116 82.1068V86.9589H678.39V74.9534H682.322C683.511 74.9534 684.105 75.516 684.105 76.6411V80.4C684.105 81.3717 683.677 81.9278 682.82 82.0685L684.719 86.9589H682.859L681.056 82.1068H680.116ZM680.116 76.3534V80.726H681.804C682.034 80.726 682.187 80.6941 682.264 80.6301C682.341 80.5534 682.379 80.4 682.379 80.1699V76.9096C682.379 76.6794 682.341 76.5324 682.264 76.4685C682.187 76.3918 682.034 76.3534 681.804 76.3534H680.116ZM687.509 77.6H689.561C690.75 77.6 691.345 78.1689 691.345 79.3068V85.2712C691.345 86.3963 690.75 86.9589 689.561 86.9589H687.509C686.333 86.9589 685.745 86.3963 685.745 85.2712V79.3068C685.745 78.1689 686.333 77.6 687.509 77.6ZM689.638 85.0219V79.537C689.638 79.3068 689.6 79.1534 689.523 79.0767C689.446 79 689.293 78.9616 689.063 78.9616H688.008C687.778 78.9616 687.624 79 687.547 79.0767C687.484 79.1534 687.452 79.3068 687.452 79.537V85.0219C687.452 85.252 687.484 85.4055 687.547 85.4822C687.624 85.5589 687.778 85.5972 688.008 85.5972H689.063C689.293 85.5972 689.446 85.5589 689.523 85.4822C689.6 85.4055 689.638 85.252 689.638 85.0219ZM696.525 77.6H698.251V86.9589H696.525V86.2109C696.359 86.7096 695.962 86.9589 695.336 86.9589H694.646C693.495 86.9589 692.92 86.3963 692.92 85.2712V77.6H694.646V85.0027C694.646 85.2329 694.684 85.3863 694.761 85.463C694.837 85.5269 694.991 85.5589 695.221 85.5589H695.892C696.122 85.5589 696.282 85.5078 696.372 85.4055C696.474 85.3032 696.525 85.1306 696.525 84.8877V77.6ZM702.858 77.6H703.53C704.693 77.6 705.275 78.1689 705.275 79.3068V86.9589H703.549V79.5562C703.549 79.326 703.51 79.179 703.434 79.1151C703.357 79.0383 703.204 79 702.973 79H702.302C702.072 79 701.906 79.0511 701.804 79.1534C701.714 79.2557 701.669 79.4283 701.669 79.6712V86.9589H699.943V77.6H701.669V78.3479C701.835 77.8493 702.232 77.6 702.858 77.6ZM710.438 74.1288H712.164V86.9589H710.438V86.2109C710.272 86.7096 709.876 86.9589 709.249 86.9589H708.559C707.408 86.9589 706.833 86.3963 706.833 85.2712V79.2877C706.833 78.1498 707.408 77.5808 708.559 77.5808H709.249C709.876 77.5808 710.272 77.8301 710.438 78.3288V74.1288ZM709.134 85.5589H709.805C710.035 85.5589 710.195 85.5078 710.285 85.4055C710.387 85.3032 710.438 85.1306 710.438 84.8877V79.652C710.438 79.4091 710.387 79.2365 710.285 79.1342C710.195 79.032 710.035 78.9808 709.805 78.9808H709.134C708.904 78.9808 708.75 79.0192 708.674 79.0959C708.597 79.1726 708.559 79.3196 708.559 79.537V85.0027C708.559 85.2329 708.597 85.3863 708.674 85.463C708.75 85.5269 708.904 85.5589 709.134 85.5589Z"
        fill="white" />
    <path
        d="M655.014 103.077V123.986H650.312V106.529H647.584V103.077H655.014ZM665.504 119.712V107.351C665.504 106.803 665.208 106.529 664.616 106.529H663.399C662.808 106.529 662.512 106.803 662.512 107.351V119.712C662.512 120.26 662.808 120.534 663.399 120.534H664.616C665.208 120.534 665.504 120.26 665.504 119.712ZM670.205 106.693V120.337C670.205 122.77 668.824 123.986 666.062 123.986H661.986C659.202 123.986 657.81 122.77 657.81 120.337V106.693C657.81 104.282 659.202 103.077 661.986 103.077H666.062C668.824 103.077 670.205 104.282 670.205 106.693ZM688.484 103.077H692.002L680.955 123.986H677.503L688.484 103.077ZM693.218 120.436V115.504C693.218 115.022 692.966 114.781 692.462 114.781H691.87C691.585 114.781 691.388 114.836 691.278 114.945C691.191 115.055 691.147 115.241 691.147 115.504V120.436C691.147 120.699 691.191 120.885 691.278 120.995C691.388 121.082 691.585 121.126 691.87 121.126H692.462C692.747 121.126 692.944 121.082 693.054 120.995C693.163 120.885 693.218 120.699 693.218 120.436ZM678.292 111.559V106.627C678.292 106.364 678.237 106.178 678.128 106.068C678.04 105.959 677.854 105.904 677.569 105.904H676.944C676.659 105.904 676.462 105.959 676.352 106.068C676.265 106.178 676.221 106.364 676.221 106.627V111.559C676.221 111.822 676.265 112.008 676.352 112.118C676.462 112.205 676.659 112.249 676.944 112.249H677.569C677.854 112.249 678.04 112.205 678.128 112.118C678.237 112.008 678.292 111.822 678.292 111.559ZM696.999 114.945V120.995C696.999 122.989 695.87 123.986 693.613 123.986H690.719C688.462 123.986 687.333 122.989 687.333 120.995V114.945C687.333 112.951 688.462 111.953 690.719 111.953H693.613C695.87 111.953 696.999 112.951 696.999 114.945ZM682.073 106.068V112.118C682.073 114.112 680.955 115.11 678.719 115.11H675.793C673.558 115.11 672.44 114.112 672.44 112.118V106.068C672.44 104.074 673.558 103.077 675.793 103.077H678.719C680.955 103.077 682.073 104.074 682.073 106.068Z"
        fill="white" />
    <g filter="url(#filter4_b_918_103)">
        <rect x="736" y="152" width="203.806" height="81" rx="8" fill="white" fill-opacity="0.08" />
        <rect x="736.653" y="152.653" width="202.5" height="79.6936" rx="7.34677" stroke="url(#paint3_linear_918_103)"
            stroke-width="1.30645" />
    </g>
    <path
        d="M750.695 175.586V172.788C750.695 172.568 750.658 172.428 750.585 172.367C750.524 172.294 750.384 172.257 750.164 172.257H748.811C747.701 172.257 747.146 171.715 747.146 170.629V167.611C747.146 166.538 747.713 166.002 748.847 166.002H750.64C751.774 166.002 752.341 166.538 752.341 167.611V169.294H750.676V167.868C750.676 167.648 750.64 167.508 750.566 167.447C750.493 167.374 750.347 167.337 750.128 167.337H749.359C749.14 167.337 748.994 167.374 748.92 167.447C748.847 167.508 748.811 167.648 748.811 167.868V170.41C748.811 170.629 748.847 170.776 748.92 170.849C748.994 170.91 749.14 170.94 749.359 170.94H750.695C751.816 170.94 752.377 171.477 752.377 172.55V175.842C752.377 176.915 751.804 177.452 750.658 177.452H748.884C747.75 177.452 747.183 176.915 747.183 175.842V174.159H748.847V175.586C748.847 175.806 748.884 175.952 748.957 176.025C749.03 176.086 749.176 176.116 749.396 176.116H750.164C750.384 176.116 750.524 176.086 750.585 176.025C750.658 175.952 750.695 175.806 750.695 175.586ZM756.883 169.861H755.657V175.513C755.657 175.732 755.688 175.879 755.749 175.952C755.822 176.013 755.968 176.043 756.188 176.043H756.883V177.452H755.712C754.566 177.452 753.993 176.915 753.993 175.842V169.861H753.151V168.526H753.993V167.008H755.657V168.526H756.883V169.861ZM761.195 168.526H762.841V177.452H761.195V176.738C761.036 177.214 760.658 177.452 760.061 177.452H759.402C758.305 177.452 757.756 176.915 757.756 175.842V170.154C757.756 169.069 758.305 168.526 759.402 168.526H760.061C760.658 168.526 761.036 168.764 761.195 169.239V168.526ZM759.951 176.116H760.591C760.811 176.116 760.963 176.068 761.048 175.97C761.146 175.873 761.195 175.708 761.195 175.476V170.501C761.195 170.27 761.146 170.105 761.048 170.007C760.963 169.91 760.811 169.861 760.591 169.861H759.951C759.731 169.861 759.585 169.898 759.512 169.971C759.439 170.032 759.402 170.172 759.402 170.392V175.586C759.402 175.806 759.439 175.952 759.512 176.025C759.585 176.086 759.731 176.116 759.951 176.116ZM770.127 168.526L768.078 172.788L770.127 177.452H768.371L766.395 172.788L768.371 168.526H770.127ZM764.457 177.452V165.215H766.103V177.452H764.457ZM770.957 166.825V165.197H772.677V166.825H770.957ZM772.64 177.452H770.994V168.526H772.64V177.452ZM777.025 168.526H777.665C778.775 168.526 779.33 169.069 779.33 170.154V177.452H777.683V170.392C777.683 170.172 777.647 170.032 777.574 169.971C777.501 169.898 777.354 169.861 777.135 169.861H776.495C776.275 169.861 776.117 169.91 776.019 170.007C775.934 170.105 775.891 170.27 775.891 170.501V177.452H774.245V168.526H775.891V169.239C776.05 168.764 776.428 168.526 777.025 168.526ZM784.254 168.526H785.9V178.366C785.9 179.439 785.327 179.976 784.181 179.976H781.126V178.677H783.705C783.925 178.677 784.071 178.641 784.144 178.567C784.217 178.494 784.254 178.354 784.254 178.147V176.629C784.095 177.104 783.717 177.342 783.12 177.342H782.462C781.364 177.342 780.815 176.799 780.815 175.714V170.154C780.815 169.069 781.364 168.526 782.462 168.526H783.12C783.717 168.526 784.095 168.764 784.254 169.239V168.526ZM783.01 176.007H783.65C783.87 176.007 784.022 175.958 784.108 175.86C784.205 175.763 784.254 175.598 784.254 175.367V170.501C784.254 170.27 784.205 170.105 784.108 170.007C784.022 169.91 783.87 169.861 783.65 169.861H783.01C782.791 169.861 782.644 169.898 782.571 169.971C782.498 170.032 782.462 170.172 782.462 170.392V175.476C782.462 175.684 782.498 175.824 782.571 175.897C782.644 175.97 782.791 176.007 783.01 176.007ZM795.555 177.452H791.751C790.617 177.452 790.05 176.915 790.05 175.842V173.94C790.05 173.538 790.129 173.214 790.288 172.971C790.446 172.714 790.739 172.452 791.166 172.184L791.714 171.782C791.422 171.416 791.208 171.141 791.074 170.959C790.94 170.776 790.806 170.532 790.672 170.227C790.538 169.922 790.471 169.636 790.471 169.367V167.611C790.471 166.538 791.044 166.002 792.19 166.002H793.964C795.086 166.002 795.647 166.538 795.647 167.611V169.312C795.647 169.934 795.537 170.428 795.317 170.794C795.098 171.148 794.744 171.483 794.257 171.8L793.836 172.074L795.939 174.653V173.245H797.275V175.842C797.275 175.94 797.262 176.074 797.238 176.244L798.756 178.092H797L796.36 177.324C796.153 177.409 795.884 177.452 795.555 177.452ZM792.117 167.813V169.477C792.117 169.855 792.373 170.343 792.885 170.94L792.995 170.849C793.385 170.593 793.653 170.361 793.799 170.154C793.958 169.947 794.037 169.666 794.037 169.312V167.813C794.037 167.593 794.001 167.453 793.927 167.392C793.854 167.319 793.708 167.282 793.488 167.282H792.647C792.428 167.282 792.281 167.319 792.208 167.392C792.147 167.453 792.117 167.593 792.117 167.813ZM792.208 176.153H795.372L792.647 172.879L792.208 173.172C792.001 173.306 791.855 173.446 791.769 173.592C791.696 173.727 791.659 173.934 791.659 174.214V175.623C791.659 175.842 791.696 175.988 791.769 176.062C791.842 176.123 791.989 176.153 792.208 176.153ZM803.026 176.116H805.861V177.452H801.38V166.002H803.026V176.116ZM806.699 166.825V165.197H808.418V166.825H806.699ZM808.381 177.452H806.735V168.526H808.381V177.452ZM813.315 168.526H814.961V179.976H813.315V176.738C813.156 177.214 812.778 177.452 812.181 177.452H811.522C810.425 177.452 809.876 176.915 809.876 175.842V170.154C809.876 169.069 810.425 168.526 811.522 168.526H812.181C812.778 168.526 813.156 168.764 813.315 169.239V168.526ZM812.071 176.116H812.711C812.931 176.116 813.083 176.068 813.169 175.97C813.266 175.873 813.315 175.708 813.315 175.476V170.501C813.315 170.27 813.266 170.105 813.169 170.007C813.083 169.91 812.931 169.861 812.711 169.861H812.071C811.852 169.861 811.705 169.898 811.632 169.971C811.559 170.032 811.522 170.172 811.522 170.392V175.586C811.522 175.806 811.559 175.952 811.632 176.025C811.705 176.086 811.852 176.116 812.071 176.116ZM819.997 168.526H821.643V177.452H819.997V176.738C819.839 177.214 819.461 177.452 818.863 177.452H818.205C817.107 177.452 816.559 176.915 816.559 175.842V168.526H818.205V175.586C818.205 175.806 818.241 175.952 818.315 176.025C818.388 176.086 818.534 176.116 818.754 176.116H819.394C819.613 176.116 819.766 176.068 819.851 175.97C819.948 175.873 819.997 175.708 819.997 175.476V168.526ZM823.221 166.825V165.197H824.94V166.825H823.221ZM824.903 177.452H823.257V168.526H824.903V177.452ZM829.837 165.215H831.483V177.452H829.837V176.738C829.678 177.214 829.3 177.452 828.703 177.452H828.044C826.947 177.452 826.398 176.915 826.398 175.842V170.136C826.398 169.05 826.947 168.508 828.044 168.508H828.703C829.3 168.508 829.678 168.745 829.837 169.221V165.215ZM828.593 176.116H829.233C829.453 176.116 829.605 176.068 829.691 175.97C829.788 175.873 829.837 175.708 829.837 175.476V170.483C829.837 170.251 829.788 170.087 829.691 169.989C829.605 169.892 829.453 169.843 829.233 169.843H828.593C828.374 169.843 828.227 169.879 828.154 169.953C828.081 170.026 828.044 170.166 828.044 170.373V175.586C828.044 175.806 828.081 175.952 828.154 176.025C828.227 176.086 828.374 176.116 828.593 176.116ZM833.062 166.825V165.197H834.782V166.825H833.062ZM834.745 177.452H833.099V168.526H834.745V177.452ZM839.368 169.861H838.142V175.513C838.142 175.732 838.173 175.879 838.234 175.952C838.307 176.013 838.453 176.043 838.673 176.043H839.368V177.452H838.197C837.051 177.452 836.478 176.915 836.478 175.842V169.861H835.637V168.526H836.478V167.008H838.142V168.526H839.368V169.861ZM841.668 179.976H840.57V178.659H841.32C841.845 178.659 842.162 178.458 842.271 178.055L842.454 177.305H841.558L839.692 168.526H841.375L842.729 176.007L843.991 168.526H845.655L843.771 178.311C843.503 179.421 842.802 179.976 841.668 179.976ZM850.837 177.452H849.392V166.002H851.203L853.16 173.099L855.117 166.002H856.928V177.452H855.483V169.075L853.91 174.964H852.41L850.837 169.093V177.452ZM858.64 166.825V165.197H860.36V166.825H858.64ZM860.323 177.452H858.677V168.526H860.323V177.452ZM864.708 168.526H865.348C866.458 168.526 867.012 169.069 867.012 170.154V177.452H865.366V170.392C865.366 170.172 865.33 170.032 865.257 169.971C865.183 169.898 865.037 169.861 864.818 169.861H864.177C863.958 169.861 863.799 169.91 863.702 170.007C863.617 170.105 863.574 170.27 863.574 170.501V177.452H861.928V168.526H863.574V169.239C863.732 168.764 864.11 168.526 864.708 168.526ZM868.571 166.825V165.197H870.291V166.825H868.571ZM870.254 177.452H868.608V168.526H870.254V177.452ZM874.639 168.526H875.279C876.389 168.526 876.943 169.069 876.943 170.154V177.452H875.297V170.392C875.297 170.172 875.261 170.032 875.188 169.971C875.114 169.898 874.968 169.861 874.749 169.861H874.108C873.889 169.861 873.73 169.91 873.633 170.007C873.548 170.105 873.505 170.27 873.505 170.501V177.452H871.859V168.526H873.505V169.239C873.663 168.764 874.041 168.526 874.639 168.526ZM881.868 168.526H883.514V178.366C883.514 179.439 882.941 179.976 881.795 179.976H878.74V178.677H881.319C881.539 178.677 881.685 178.641 881.758 178.567C881.831 178.494 881.868 178.354 881.868 178.147V176.629C881.709 177.104 881.331 177.342 880.734 177.342H880.075C878.978 177.342 878.429 176.799 878.429 175.714V170.154C878.429 169.069 878.978 168.526 880.075 168.526H880.734C881.331 168.526 881.709 168.764 881.868 169.239V168.526ZM880.624 176.007H881.264C881.484 176.007 881.636 175.958 881.722 175.86C881.819 175.763 881.868 175.598 881.868 175.367V170.501C881.868 170.27 881.819 170.105 881.722 170.007C881.636 169.91 881.484 169.861 881.264 169.861H880.624C880.405 169.861 880.258 169.898 880.185 169.971C880.112 170.032 880.075 170.172 880.075 170.392V175.476C880.075 175.684 880.112 175.824 880.185 175.897C880.258 175.97 880.405 176.007 880.624 176.007Z"
        fill="white" />
    <path
        d="M751.687 198.409V201.042H747.204V197.782C747.204 195.482 748.521 194.332 751.154 194.332H754.541C757.216 194.332 758.554 195.482 758.554 197.782V200.321C758.554 201.283 758.408 202.119 758.115 202.83C757.843 203.519 757.394 204.282 756.767 205.119L752.753 210.982H758.617V214.274H747.298V211.233L752.816 203.833C753.339 203.185 753.684 202.61 753.851 202.108C754.039 201.607 754.133 200.99 754.133 200.259V198.409C754.133 197.886 753.851 197.625 753.287 197.625H752.503C751.959 197.625 751.687 197.886 751.687 198.409ZM768.087 210.198V198.409C768.087 197.886 767.805 197.625 767.241 197.625H766.081C765.516 197.625 765.234 197.886 765.234 198.409V210.198C765.234 210.721 765.516 210.982 766.081 210.982H767.241C767.805 210.982 768.087 210.721 768.087 210.198ZM772.571 197.782V210.794C772.571 213.114 771.254 214.274 768.62 214.274H764.732C762.078 214.274 760.75 213.114 760.75 210.794V197.782C760.75 195.482 762.078 194.332 764.732 194.332H768.62C771.254 194.332 772.571 195.482 772.571 197.782ZM790.004 194.332H793.359L782.824 214.274H779.531L790.004 194.332ZM794.519 210.888V206.185C794.519 205.725 794.278 205.495 793.798 205.495H793.233C792.962 205.495 792.773 205.547 792.669 205.652C792.585 205.756 792.544 205.934 792.544 206.185V210.888C792.544 211.139 792.585 211.316 792.669 211.421C792.773 211.504 792.962 211.546 793.233 211.546H793.798C794.069 211.546 794.258 211.504 794.362 211.421C794.467 211.316 794.519 211.139 794.519 210.888ZM780.284 202.422V197.719C780.284 197.468 780.232 197.29 780.127 197.186C780.043 197.081 779.866 197.029 779.594 197.029H778.998C778.726 197.029 778.538 197.081 778.434 197.186C778.35 197.29 778.308 197.468 778.308 197.719V202.422C778.308 202.673 778.35 202.851 778.434 202.955C778.538 203.039 778.726 203.08 778.998 203.08H779.594C779.866 203.08 780.043 203.039 780.127 202.955C780.232 202.851 780.284 202.673 780.284 202.422ZM798.125 205.652V211.421C798.125 213.323 797.048 214.274 794.895 214.274H792.136C789.983 214.274 788.906 213.323 788.906 211.421V205.652C788.906 203.749 789.983 202.798 792.136 202.798H794.895C797.048 202.798 798.125 203.749 798.125 205.652ZM783.89 197.186V202.955C783.89 204.857 782.824 205.808 780.691 205.808H777.901C775.769 205.808 774.703 204.857 774.703 202.955V197.186C774.703 195.284 775.769 194.332 777.901 194.332H780.691C782.824 194.332 783.89 195.284 783.89 197.186Z"
        fill="white" />
    <g filter="url(#filter5_b_918_103)">
        <rect x="562" y="299" width="174" height="105" rx="8" fill="white" fill-opacity="0.08" />
        <rect x="562.847" y="299.847" width="172.306" height="103.306" rx="7.15323" stroke="url(#paint4_linear_918_103)"
            stroke-width="1.69355" />
    </g>
    <path
        d="M576.423 318.158H578.556V333H576.423V318.158ZM584.625 321.43H585.455C586.893 321.43 587.613 322.133 587.613 323.54V333H585.479V323.848C585.479 323.564 585.431 323.382 585.336 323.303C585.242 323.208 585.052 323.16 584.767 323.16H583.938C583.653 323.16 583.448 323.224 583.321 323.35C583.211 323.477 583.155 323.69 583.155 323.99V333H581.021V321.43H583.155V322.354C583.361 321.738 583.851 321.43 584.625 321.43ZM589.634 319.225V317.115H591.862V319.225H589.634ZM591.815 333H589.681V321.43H591.815V333ZM597.807 323.16H596.218V330.487C596.218 330.771 596.258 330.961 596.337 331.056C596.432 331.135 596.622 331.174 596.906 331.174H597.807V333H596.29C594.804 333 594.061 332.305 594.061 330.914V323.16H592.97V321.43H594.061V319.462H596.218V321.43H597.807V323.16ZM599.034 319.225V317.115H601.263V319.225H599.034ZM601.215 333H599.081V321.43H601.215V333ZM607.611 321.43H609.744V333H607.611V332.075C607.405 332.692 606.915 333 606.141 333H605.287C603.864 333 603.153 332.305 603.153 330.914V323.54C603.153 322.133 603.864 321.43 605.287 321.43H606.141C606.915 321.43 607.405 321.738 607.611 322.354V321.43ZM605.998 331.269H606.828C607.113 331.269 607.31 331.206 607.421 331.08C607.547 330.953 607.611 330.74 607.611 330.439V323.99C607.611 323.69 607.547 323.477 607.421 323.35C607.31 323.224 607.113 323.16 606.828 323.16H605.998C605.714 323.16 605.524 323.208 605.429 323.303C605.334 323.382 605.287 323.564 605.287 323.848V330.582C605.287 330.866 605.334 331.056 605.429 331.151C605.524 331.23 605.714 331.269 605.998 331.269ZM613.973 333H611.839V317.138H613.973V333ZM621.804 331.269H625.479V333H619.67V318.158H621.804V331.269ZM626.564 319.225V317.115H628.793V319.225H626.564ZM628.745 333H626.612V321.43H628.745V333ZM635.141 321.43H637.275V336.272H635.141V332.075C634.935 332.692 634.445 333 633.671 333H632.817C631.395 333 630.683 332.305 630.683 330.914V323.54C630.683 322.133 631.395 321.43 632.817 321.43H633.671C634.445 321.43 634.935 321.738 635.141 322.354V321.43ZM633.528 331.269H634.358C634.643 331.269 634.84 331.206 634.951 331.08C635.077 330.953 635.141 330.74 635.141 330.439V323.99C635.141 323.69 635.077 323.477 634.951 323.35C634.84 323.224 634.643 323.16 634.358 323.16H633.528C633.244 323.16 633.054 323.208 632.959 323.303C632.865 323.382 632.817 323.564 632.817 323.848V330.582C632.817 330.866 632.865 331.056 632.959 331.151C633.054 331.23 633.244 331.269 633.528 331.269ZM643.803 321.43H645.937V333H643.803V332.075C643.598 332.692 643.108 333 642.333 333H641.48C640.057 333 639.346 332.305 639.346 330.914V321.43H641.48V330.582C641.48 330.866 641.527 331.056 641.622 331.151C641.717 331.23 641.906 331.269 642.191 331.269H643.021C643.305 331.269 643.503 331.206 643.613 331.08C643.74 330.953 643.803 330.74 643.803 330.439V321.43ZM647.982 319.225V317.115H650.21V319.225H647.982ZM650.163 333H648.029V321.43H650.163V333ZM656.558 317.138H658.692V333H656.558V332.075C656.353 332.692 655.863 333 655.088 333H654.235C652.812 333 652.101 332.305 652.101 330.914V323.516C652.101 322.109 652.812 321.406 654.235 321.406H655.088C655.863 321.406 656.353 321.714 656.558 322.331V317.138ZM654.946 331.269H655.776C656.06 331.269 656.258 331.206 656.368 331.08C656.495 330.953 656.558 330.74 656.558 330.439V323.967C656.558 323.666 656.495 323.453 656.368 323.326C656.258 323.2 656.06 323.137 655.776 323.137H654.946C654.661 323.137 654.472 323.184 654.377 323.279C654.282 323.374 654.235 323.556 654.235 323.824V330.582C654.235 330.866 654.282 331.056 654.377 331.151C654.472 331.23 654.661 331.269 654.946 331.269ZM660.739 319.225V317.115H662.968V319.225H660.739ZM662.921 333H660.787V321.43H662.921V333ZM668.913 323.16H667.324V330.487C667.324 330.771 667.364 330.961 667.443 331.056C667.538 331.135 667.727 331.174 668.012 331.174H668.913V333H667.396C665.91 333 665.167 332.305 665.167 330.914V323.16H664.076V321.43H665.167V319.462H667.324V321.43H668.913V323.16ZM671.894 336.272H670.472V334.565H671.444C672.124 334.565 672.535 334.304 672.677 333.782L672.914 332.81H671.752L669.334 321.43H671.515L673.27 331.127L674.906 321.43H677.063L674.621 334.114C674.273 335.553 673.364 336.272 671.894 336.272ZM688.712 333H683.781C682.311 333 681.576 332.305 681.576 330.914V328.448C681.576 327.926 681.678 327.507 681.884 327.191C682.089 326.859 682.469 326.519 683.022 326.172L683.733 325.65C683.354 325.176 683.077 324.82 682.903 324.583C682.73 324.346 682.556 324.03 682.382 323.635C682.208 323.24 682.121 322.868 682.121 322.52V320.244C682.121 318.853 682.864 318.158 684.35 318.158H686.65C688.104 318.158 688.831 318.853 688.831 320.244V322.449C688.831 323.255 688.689 323.895 688.404 324.37C688.12 324.828 687.661 325.263 687.029 325.674L686.484 326.029L689.21 329.372V327.547H690.941V330.914C690.941 331.04 690.925 331.214 690.894 331.435L692.862 333.83H690.585L689.756 332.834C689.487 332.945 689.139 333 688.712 333ZM684.255 320.505V322.663C684.255 323.153 684.587 323.785 685.251 324.559L685.393 324.441C685.899 324.109 686.247 323.809 686.436 323.54C686.642 323.271 686.744 322.908 686.744 322.449V320.505C686.744 320.22 686.697 320.039 686.602 319.96C686.507 319.865 686.318 319.817 686.033 319.817H684.943C684.658 319.817 684.468 319.865 684.373 319.96C684.294 320.039 684.255 320.22 684.255 320.505ZM684.373 331.317H688.475L684.943 327.073L684.373 327.452C684.105 327.626 683.915 327.808 683.804 327.997C683.71 328.171 683.662 328.44 683.662 328.803V330.629C683.662 330.914 683.71 331.103 683.804 331.198C683.899 331.277 684.089 331.317 684.373 331.317ZM698.136 333H696.263V318.158H698.61L701.147 327.357L703.684 318.158H706.032V333H704.158V322.141L702.119 329.775H700.175L698.136 322.165V333ZM710.362 333H708.488V318.158H710.836L713.373 327.357L715.91 318.158H718.257V333H716.384V322.141L714.345 329.775H712.401L710.362 322.165V333Z"
        fill="white" />
    <path
        d="M585.007 352.876V378.726H579.195V357.143H575.821V352.876H585.007ZM597.975 373.442V358.159C597.975 357.482 597.609 357.143 596.878 357.143H595.374C594.642 357.143 594.277 357.482 594.277 358.159V373.442C594.277 374.119 594.642 374.458 595.374 374.458H596.878C597.609 374.458 597.975 374.119 597.975 373.442ZM603.788 357.346V374.214C603.788 377.222 602.08 378.726 598.666 378.726H593.626C590.185 378.726 588.464 377.222 588.464 374.214V357.346C588.464 354.366 590.185 352.876 593.626 352.876H598.666C602.08 352.876 603.788 354.366 603.788 357.346ZM626.386 352.876H630.735L617.078 378.726H612.81L626.386 352.876ZM632.238 374.336V368.239C632.238 367.643 631.927 367.345 631.304 367.345H630.572C630.22 367.345 629.976 367.413 629.84 367.548C629.732 367.684 629.678 367.914 629.678 368.239V374.336C629.678 374.661 629.732 374.892 629.84 375.027C629.976 375.136 630.22 375.19 630.572 375.19H631.304C631.656 375.19 631.9 375.136 632.035 375.027C632.171 374.892 632.238 374.661 632.238 374.336ZM613.786 363.362V357.265C613.786 356.94 613.718 356.71 613.582 356.574C613.474 356.439 613.244 356.371 612.891 356.371H612.119C611.767 356.371 611.523 356.439 611.388 356.574C611.279 356.71 611.225 356.94 611.225 357.265V363.362C611.225 363.687 611.279 363.917 611.388 364.053C611.523 364.161 611.767 364.216 612.119 364.216H612.891C613.244 364.216 613.474 364.161 613.582 364.053C613.718 363.917 613.786 363.687 613.786 363.362ZM636.913 367.548V375.027C636.913 377.493 635.517 378.726 632.726 378.726H629.149C626.358 378.726 624.963 377.493 624.963 375.027V367.548C624.963 365.083 626.358 363.85 629.149 363.85H632.726C635.517 363.85 636.913 365.083 636.913 367.548ZM618.46 356.574V364.053C618.46 366.519 617.078 367.752 614.314 367.752H610.697C607.933 367.752 606.551 366.519 606.551 364.053V356.574C606.551 354.108 607.933 352.876 610.697 352.876H614.314C617.078 352.876 618.46 354.108 618.46 356.574Z"
        fill="white" />
    <g filter="url(#filter6_b_918_103)">
        <rect x="42" y="277" width="159" height="106" rx="8" fill="white" fill-opacity="0.08" />
        <rect x="42.8548" y="277.855" width="157.29" height="104.29" rx="7.14516" stroke="url(#paint5_linear_918_103)"
            stroke-width="1.70968" />
    </g>
    <path
        d="M62.9776 295.694V297.441H60.4643V310.677H58.3101V297.441H55.7969V295.694H62.9776ZM66.3183 298.997H68.6639C70.1639 298.997 70.9139 299.707 70.9139 301.127V305.507H66.1986V308.284C66.1986 308.555 66.2464 308.739 66.3422 308.834C66.4379 308.93 66.6294 308.978 66.9166 308.978H68.0177C68.3049 308.978 68.4964 308.93 68.5921 308.834C68.6879 308.739 68.7357 308.547 68.7357 308.26V307.303H70.8421V308.571C70.8421 309.975 70.1001 310.677 68.6161 310.677H66.3183C64.8343 310.677 64.0923 309.975 64.0923 308.571V301.127C64.0923 299.707 64.8343 298.997 66.3183 298.997ZM66.1986 303.928H68.7836V301.39C68.7836 301.119 68.7357 300.936 68.64 300.84C68.5602 300.744 68.3767 300.696 68.0895 300.696H66.9166C66.6294 300.696 66.4379 300.744 66.3422 300.84C66.2464 300.936 66.1986 301.119 66.1986 301.39V303.928ZM77.1216 298.997H79.2758V310.677H77.1216V309.744C76.9141 310.366 76.4195 310.677 75.6376 310.677H74.7759C73.3398 310.677 72.6217 309.975 72.6217 308.571V301.127C72.6217 299.707 73.3398 298.997 74.7759 298.997H75.6376C76.4195 298.997 76.9141 299.308 77.1216 299.93V298.997ZM75.494 308.93H76.3317C76.6189 308.93 76.8184 308.866 76.9301 308.739C77.0577 308.611 77.1216 308.396 77.1216 308.092V301.582C77.1216 301.279 77.0577 301.063 76.9301 300.936C76.8184 300.808 76.6189 300.744 76.3317 300.744H75.494C75.2067 300.744 75.0152 300.792 74.9195 300.888C74.8238 300.968 74.7759 301.151 74.7759 301.438V308.236C74.7759 308.523 74.8238 308.715 74.9195 308.81C75.0152 308.89 75.2067 308.93 75.494 308.93ZM89.5286 298.997H90.3663C91.8024 298.997 92.5205 299.707 92.5205 301.127V310.677H90.3663V301.438C90.3663 301.151 90.3184 300.968 90.2227 300.888C90.1429 300.792 89.9594 300.744 89.6722 300.744H88.8105C88.2999 300.744 88.0446 301.023 88.0446 301.582V310.677H85.8904V301.438C85.8904 301.151 85.8425 300.968 85.7468 300.888C85.651 300.792 85.4595 300.744 85.1723 300.744H84.3346C84.0473 300.744 83.8399 300.808 83.7122 300.936C83.6005 301.063 83.5447 301.279 83.5447 301.582V310.677H81.3905V298.997H83.5447V299.93C83.7521 299.308 84.2468 298.997 85.0287 298.997H85.8664C86.8877 298.997 87.5499 299.356 87.8531 300.074C88.0446 299.356 88.6031 298.997 89.5286 298.997Z"
        fill="white" />
    <path
        d="M65.7301 331.065V357.161H59.8625V335.373H56.4569V331.065H65.7301ZM75.2112 340.297H79.2734C82.7474 340.297 84.4845 341.802 84.4845 344.811V352.607C84.4845 355.643 82.7474 357.161 79.2734 357.161H74.3905C70.9165 357.161 69.1794 355.643 69.1794 352.607V348.339H75.047V351.827C75.047 352.511 75.4163 352.853 76.1549 352.853H77.591C78.3296 352.853 78.6989 352.511 78.6989 351.827V345.631C78.6989 344.947 78.3296 344.605 77.591 344.605H69.4256V331.065H84.1972V335.373H75.2112V340.297ZM106.942 331.065H111.332L97.5455 357.161H93.2371L106.942 331.065ZM112.851 352.73V346.575C112.851 345.973 112.536 345.672 111.907 345.672H111.168C110.813 345.672 110.566 345.741 110.43 345.877C110.32 346.014 110.266 346.247 110.266 346.575V352.73C110.266 353.058 110.32 353.291 110.43 353.427C110.566 353.537 110.813 353.592 111.168 353.592H111.907C112.262 353.592 112.509 353.537 112.645 353.427C112.782 353.291 112.851 353.058 112.851 352.73ZM94.2219 341.651V335.496C94.2219 335.168 94.1535 334.936 94.0168 334.799C93.9073 334.662 93.6748 334.594 93.3192 334.594H92.5396C92.184 334.594 91.9378 334.662 91.801 334.799C91.6916 334.936 91.6369 335.168 91.6369 335.496V341.651C91.6369 341.979 91.6916 342.212 91.801 342.349C91.9378 342.458 92.184 342.513 92.5396 342.513H93.3192C93.6748 342.513 93.9073 342.458 94.0168 342.349C94.1535 342.212 94.2219 341.979 94.2219 341.651ZM117.569 345.877V353.427C117.569 355.917 116.161 357.161 113.343 357.161H109.732C106.915 357.161 105.506 355.917 105.506 353.427V345.877C105.506 343.388 106.915 342.144 109.732 342.144H113.343C116.161 342.144 117.569 343.388 117.569 345.877ZM98.9406 334.799V342.349C98.9406 344.838 97.5455 346.083 94.7553 346.083H91.1035C88.3133 346.083 86.9182 344.838 86.9182 342.349V334.799C86.9182 332.309 88.3133 331.065 91.1035 331.065H94.7553C97.5455 331.065 98.9406 332.309 98.9406 334.799Z"
        fill="white" />
    <g filter="url(#filter7_b_918_103)">
        <rect x="0.5" y="131" width="115.5" height="77" rx="8" fill="white" fill-opacity="0.08" />
        <rect x="1.12097" y="131.621" width="114.258" height="75.7581" rx="7.37903" stroke="url(#paint6_linear_918_103)"
            stroke-width="1.24194" />
    </g>
    <g filter="url(#filter8_b_918_103)">
        <rect x="124.662" y="45" width="128.339" height="73" rx="8" fill="white" fill-opacity="0.08" />
        <rect x="125.25" y="45.5887" width="127.161" height="71.8226" rx="7.41129" stroke="url(#paint7_linear_918_103)"
            stroke-width="1.17742" />
    </g>
    <path
        d="M138.73 68.4193L138.317 66.0292H136.142L135.762 68.4193H134.279L136.109 58.1004H138.268L140.23 68.4193H138.73ZM136.323 64.8259H138.12L137.18 59.3862L136.323 64.8259ZM144.149 57.3916H145.632V68.4193H144.149V67.7765C144.006 68.2051 143.665 68.4193 143.127 68.4193H142.533C141.544 68.4193 141.05 67.9358 141.05 66.9688V61.8258C141.05 60.8478 141.544 60.3587 142.533 60.3587H143.127C143.665 60.3587 144.006 60.573 144.149 61.0016V57.3916ZM143.028 67.216H143.605C143.803 67.216 143.94 67.1721 144.017 67.0841C144.105 66.9962 144.149 66.8479 144.149 66.6391V62.139C144.149 61.9302 144.105 61.7818 144.017 61.6939C143.94 61.606 143.803 61.5621 143.605 61.5621H143.028C142.83 61.5621 142.698 61.595 142.632 61.661C142.566 61.7269 142.533 61.8533 142.533 62.0401V66.738C142.533 66.9358 142.566 67.0677 142.632 67.1336C142.698 67.1885 142.83 67.216 143.028 67.216ZM147.913 60.3752L148.968 67.1666L150.039 60.3752H151.523L150.039 68.4193H147.913L146.429 60.3752H147.913ZM152.287 58.8422V57.3751H153.837V58.8422H152.287ZM153.804 68.4193H152.32V60.3752H153.804V68.4193ZM157.937 66.8039V65.4687C157.937 65.2709 157.904 65.1445 157.838 65.0896C157.772 65.0237 157.64 64.9907 157.443 64.9907H156.602C155.58 64.9907 155.069 64.5072 155.069 63.5401V61.8423C155.069 60.8642 155.58 60.3752 156.602 60.3752H157.805C158.838 60.3752 159.355 60.8642 159.355 61.8423V62.617H157.904V61.9906C157.904 61.7928 157.871 61.6664 157.805 61.6115C157.739 61.5456 157.607 61.5126 157.41 61.5126H157.014C156.816 61.5126 156.684 61.5456 156.618 61.6115C156.552 61.6664 156.519 61.7928 156.519 61.9906V63.3753C156.519 63.5731 156.552 63.705 156.618 63.7709C156.684 63.8258 156.816 63.8533 157.014 63.8533H157.871C158.882 63.8533 159.388 64.3423 159.388 65.3204V66.9688C159.388 67.9358 158.877 68.4193 157.855 68.4193H156.635C155.613 68.4193 155.102 67.9358 155.102 66.9688V66.1775H156.552V66.8039C156.552 67.0017 156.585 67.1336 156.651 67.1995C156.717 67.2545 156.849 67.282 157.047 67.282H157.443C157.64 67.282 157.772 67.2545 157.838 67.1995C157.904 67.1336 157.937 67.0017 157.937 66.8039ZM162.093 60.3752H163.857C164.879 60.3752 165.39 60.8642 165.39 61.8423V66.9688C165.39 67.9358 164.879 68.4193 163.857 68.4193H162.093C161.082 68.4193 160.577 67.9358 160.577 66.9688V61.8423C160.577 60.8642 161.082 60.3752 162.093 60.3752ZM163.923 66.7545V62.0401C163.923 61.8423 163.89 61.7104 163.824 61.6445C163.758 61.5785 163.626 61.5456 163.428 61.5456H162.522C162.324 61.5456 162.192 61.5785 162.126 61.6445C162.071 61.7104 162.044 61.8423 162.044 62.0401V66.7545C162.044 66.9523 162.071 67.0841 162.126 67.1501C162.192 67.216 162.324 67.249 162.522 67.249H163.428C163.626 67.249 163.758 67.216 163.824 67.1501C163.89 67.0841 163.923 66.9523 163.923 66.7545ZM169.546 60.3587H169.875V61.6445H169.282C168.59 61.6445 168.243 62.0511 168.243 62.8643V68.4193H166.76V60.3752H168.243V61.3642C168.331 61.0785 168.485 60.8423 168.705 60.6554C168.936 60.4576 169.216 60.3587 169.546 60.3587ZM173.375 66.8039V65.4687C173.375 65.2709 173.342 65.1445 173.276 65.0896C173.21 65.0237 173.078 64.9907 172.88 64.9907H172.039C171.017 64.9907 170.506 64.5072 170.506 63.5401V61.8423C170.506 60.8642 171.017 60.3752 172.039 60.3752H173.243C174.276 60.3752 174.792 60.8642 174.792 61.8423V62.617H173.342V61.9906C173.342 61.7928 173.309 61.6664 173.243 61.6115C173.177 61.5456 173.045 61.5126 172.847 61.5126H172.452C172.254 61.5126 172.122 61.5456 172.056 61.6115C171.99 61.6664 171.957 61.7928 171.957 61.9906V63.3753C171.957 63.5731 171.99 63.705 172.056 63.7709C172.122 63.8258 172.254 63.8533 172.452 63.8533H173.309C174.32 63.8533 174.825 64.3423 174.825 65.3204V66.9688C174.825 67.9358 174.314 68.4193 173.292 68.4193H172.072C171.05 68.4193 170.539 67.9358 170.539 66.9688V66.1775H171.99V66.8039C171.99 67.0017 172.023 67.1336 172.089 67.1995C172.155 67.2545 172.287 67.282 172.484 67.282H172.88C173.078 67.282 173.21 67.2545 173.276 67.1995C173.342 67.1336 173.375 67.0017 173.375 66.8039ZM183.342 68.4193H179.913C178.891 68.4193 178.38 67.9358 178.38 66.9688V65.2544C178.38 64.8918 178.451 64.6006 178.594 64.3808C178.737 64.15 179.001 63.9138 179.386 63.672L179.88 63.3093C179.616 62.9797 179.424 62.7324 179.303 62.5676C179.182 62.4027 179.061 62.1829 178.94 61.9082C178.82 61.6335 178.759 61.3752 178.759 61.1335V59.551C178.759 58.584 179.276 58.1004 180.309 58.1004H181.908C182.919 58.1004 183.424 58.584 183.424 59.551V61.084C183.424 61.6445 183.325 62.0895 183.127 62.4192C182.93 62.7379 182.611 63.0401 182.171 63.3258L181.792 63.5731L183.688 65.8973V64.6281H184.891V66.9688C184.891 67.0567 184.88 67.1776 184.858 67.3314L186.226 68.9963H184.644L184.067 68.304C183.88 68.3809 183.638 68.4193 183.342 68.4193ZM180.243 59.7323V61.2324C180.243 61.573 180.473 62.0126 180.935 62.5511L181.034 62.4687C181.386 62.2379 181.627 62.0291 181.759 61.8423C181.902 61.6555 181.974 61.4027 181.974 61.084V59.7323C181.974 59.5345 181.941 59.4082 181.875 59.3532C181.809 59.2873 181.677 59.2543 181.479 59.2543H180.721C180.523 59.2543 180.391 59.2873 180.325 59.3532C180.27 59.4082 180.243 59.5345 180.243 59.7323ZM180.325 67.249H183.177L180.721 64.2984L180.325 64.5621C180.138 64.683 180.006 64.8094 179.93 64.9412C179.864 65.0621 179.831 65.2489 179.831 65.5017V66.771C179.831 66.9688 179.864 67.1006 179.93 67.1666C179.995 67.2215 180.127 67.249 180.325 67.249ZM190.075 67.216H192.63V68.4193H188.591V58.1004H190.075V67.216ZM194.917 60.3752H196.533C197.566 60.3752 198.082 60.8642 198.082 61.8423V64.8588H194.835V66.771C194.835 66.9578 194.868 67.0841 194.934 67.1501C195 67.216 195.132 67.249 195.33 67.249H196.088C196.286 67.249 196.418 67.216 196.483 67.1501C196.549 67.0841 196.582 66.9523 196.582 66.7545V66.0951H198.033V66.9688C198.033 67.9358 197.522 68.4193 196.5 68.4193H194.917C193.895 68.4193 193.384 67.9358 193.384 66.9688V61.8423C193.384 60.8642 193.895 60.3752 194.917 60.3752ZM194.835 63.7709H196.615V62.0236C196.615 61.8368 196.582 61.7104 196.516 61.6445C196.461 61.5785 196.335 61.5456 196.137 61.5456H195.33C195.132 61.5456 195 61.5785 194.934 61.6445C194.868 61.7104 194.835 61.8368 194.835 62.0236V63.7709ZM202.358 60.3752H203.841V69.2435C203.841 70.2106 203.325 70.6941 202.292 70.6941H199.539V69.5238H201.863C202.061 69.5238 202.193 69.4908 202.259 69.4249C202.325 69.3589 202.358 69.2325 202.358 69.0457V67.6776C202.215 68.1061 201.874 68.3204 201.336 68.3204H200.742C199.753 68.3204 199.259 67.8314 199.259 66.8534V61.8423C199.259 60.8642 199.753 60.3752 200.742 60.3752H201.336C201.874 60.3752 202.215 60.5895 202.358 61.0181V60.3752ZM201.237 67.1171H201.814C202.011 67.1171 202.149 67.0732 202.226 66.9852C202.314 66.8973 202.358 66.749 202.358 66.5402V62.1555C202.358 61.9467 202.314 61.7983 202.226 61.7104C202.149 61.6225 202.011 61.5785 201.814 61.5785H201.237C201.039 61.5785 200.907 61.6115 200.841 61.6774C200.775 61.7324 200.742 61.8588 200.742 62.0566V66.6391C200.742 66.8259 200.775 66.9523 200.841 67.0182C200.907 67.0841 201.039 67.1171 201.237 67.1171ZM208.297 60.3752H209.781V68.4193H208.297V67.7765C208.155 68.2051 207.814 68.4193 207.275 68.4193H206.682C205.693 68.4193 205.199 67.9358 205.199 66.9688V61.8423C205.199 60.8642 205.693 60.3752 206.682 60.3752H207.275C207.814 60.3752 208.155 60.5895 208.297 61.0181V60.3752ZM207.177 67.216H207.754C207.951 67.216 208.089 67.1721 208.166 67.0841C208.254 66.9962 208.297 66.8479 208.297 66.6391V62.1555C208.297 61.9467 208.254 61.7983 208.166 61.7104C208.089 61.6225 207.951 61.5785 207.754 61.5785H207.177C206.979 61.5785 206.847 61.6115 206.781 61.6774C206.715 61.7324 206.682 61.8588 206.682 62.0566V66.738C206.682 66.9358 206.715 67.0677 206.781 67.1336C206.847 67.1885 206.979 67.216 207.177 67.216ZM212.721 68.4193H211.237V57.3916H212.721V68.4193ZM220.852 58.1004V59.3038H219.121V68.4193H217.638V59.3038H215.907V58.1004H220.852ZM223.153 60.3752H224.768C225.801 60.3752 226.317 60.8642 226.317 61.8423V64.8588H223.07V66.771C223.07 66.9578 223.103 67.0841 223.169 67.1501C223.235 67.216 223.367 67.249 223.565 67.249H224.323C224.521 67.249 224.653 67.216 224.719 67.1501C224.784 67.0841 224.817 66.9523 224.817 66.7545V66.0951H226.268V66.9688C226.268 67.9358 225.757 68.4193 224.735 68.4193H223.153C222.131 68.4193 221.62 67.9358 221.62 66.9688V61.8423C221.62 60.8642 222.131 60.3752 223.153 60.3752ZM223.07 63.7709H224.85V62.0236C224.85 61.8368 224.817 61.7104 224.751 61.6445C224.697 61.5785 224.57 61.5456 224.372 61.5456H223.565C223.367 61.5456 223.235 61.5785 223.169 61.6445C223.103 61.7104 223.07 61.8368 223.07 62.0236V63.7709ZM230.593 60.3752H232.076V68.4193H230.593V67.7765C230.45 68.2051 230.109 68.4193 229.571 68.4193H228.977C227.988 68.4193 227.494 67.9358 227.494 66.9688V61.8423C227.494 60.8642 227.988 60.3752 228.977 60.3752H229.571C230.109 60.3752 230.45 60.5895 230.593 61.0181V60.3752ZM229.472 67.216H230.049C230.246 67.216 230.384 67.1721 230.461 67.0841C230.549 66.9962 230.593 66.8479 230.593 66.6391V62.1555C230.593 61.9467 230.549 61.7983 230.461 61.7104C230.384 61.6225 230.246 61.5785 230.049 61.5785H229.472C229.274 61.5785 229.142 61.6115 229.076 61.6774C229.01 61.7324 228.977 61.8588 228.977 62.0566V66.738C228.977 66.9358 229.01 67.0677 229.076 67.1336C229.142 67.1885 229.274 67.216 229.472 67.216ZM239.137 60.3752H239.714C240.703 60.3752 241.197 60.8642 241.197 61.8423V68.4193H239.714V62.0566C239.714 61.8588 239.681 61.7324 239.615 61.6774C239.56 61.6115 239.434 61.5785 239.236 61.5785H238.642C238.291 61.5785 238.115 61.7708 238.115 62.1555V68.4193H236.631V62.0566C236.631 61.8588 236.598 61.7324 236.533 61.6774C236.467 61.6115 236.335 61.5785 236.137 61.5785H235.56C235.362 61.5785 235.219 61.6225 235.131 61.7104C235.054 61.7983 235.016 61.9467 235.016 62.1555V68.4193H233.532V60.3752H235.016V61.0181C235.159 60.5895 235.5 60.3752 236.038 60.3752H236.615C237.318 60.3752 237.774 60.6225 237.983 61.117C238.115 60.6225 238.5 60.3752 239.137 60.3752Z"
        fill="white" />
    <path
        d="M139.365 89.1762H142.163C144.555 89.1762 145.752 90.2124 145.752 92.2846V97.6537C145.752 99.7448 144.555 100.79 142.163 100.79H138.8C136.408 100.79 135.211 99.7448 135.211 97.6537V94.7148H139.252V97.1168C139.252 97.5877 139.507 97.8232 140.015 97.8232H141.004C141.513 97.8232 141.767 97.5877 141.767 97.1168V92.8498C141.767 92.3788 141.513 92.1433 141.004 92.1433H135.381V82.8182H145.554V85.7853H139.365V89.1762ZM161.218 82.8182H164.241L154.747 100.79H151.779L161.218 82.8182ZM165.287 97.7384V93.4997C165.287 93.0853 165.07 92.8781 164.637 92.8781H164.128C163.883 92.8781 163.714 92.9252 163.62 93.0193C163.544 93.1135 163.507 93.2737 163.507 93.4997V97.7384C163.507 97.9645 163.544 98.1246 163.62 98.2188C163.714 98.2942 163.883 98.3319 164.128 98.3319H164.637C164.882 98.3319 165.051 98.2942 165.145 98.2188C165.24 98.1246 165.287 97.9645 165.287 97.7384ZM152.458 90.1088V85.8701C152.458 85.644 152.411 85.4839 152.316 85.3897C152.241 85.2955 152.081 85.2484 151.836 85.2484H151.299C151.054 85.2484 150.885 85.2955 150.79 85.3897C150.715 85.4839 150.677 85.644 150.677 85.8701V90.1088C150.677 90.3348 150.715 90.495 150.79 90.5892C150.885 90.6645 151.054 90.7022 151.299 90.7022H151.836C152.081 90.7022 152.241 90.6645 152.316 90.5892C152.411 90.495 152.458 90.3348 152.458 90.1088ZM168.536 93.0193V98.2188C168.536 99.9332 167.566 100.79 165.626 100.79H163.139C161.199 100.79 160.229 99.9332 160.229 98.2188V93.0193C160.229 91.305 161.199 90.4479 163.139 90.4479H165.626C167.566 90.4479 168.536 91.305 168.536 93.0193ZM155.707 85.3897V90.5892C155.707 92.3035 154.747 93.1606 152.825 93.1606H150.31C148.388 93.1606 147.428 92.3035 147.428 90.5892V85.3897C147.428 83.6753 148.388 82.8182 150.31 82.8182H152.825C154.747 82.8182 155.707 83.6753 155.707 85.3897Z"
        fill="white" />
    <g filter="url(#filter9_b_918_103)">
        <rect x="291.936" width="123.065" height="70" rx="8" fill="white" fill-opacity="0.08" />
        <rect x="292.5" y="0.564516" width="121.935" height="68.871" rx="7.43548" stroke="url(#paint8_linear_918_103)"
            stroke-width="1.12903" />
    </g>
    <path
        d="M301.79 12.1374H305.03C306.01 12.1374 306.5 12.6011 306.5 13.5284V16.8161C306.5 17.7434 306.01 18.2071 305.03 18.2071H303.212V22.0323H301.79V12.1374ZM305.077 16.5948V13.7497C305.077 13.56 305.046 13.4388 304.983 13.3861C304.919 13.3229 304.793 13.2913 304.603 13.2913H303.212V17.069H304.603C304.793 17.069 304.919 17.0374 304.983 16.9742C305.046 16.911 305.077 16.7845 305.077 16.5948ZM310.308 14.3029H310.624V15.5358H310.055C309.392 15.5358 309.06 15.9257 309.06 16.7055V22.0323H307.637V14.3187H309.06V15.2671C309.144 14.9931 309.291 14.7666 309.502 14.5874C309.723 14.3977 309.992 14.3029 310.308 14.3029ZM311.372 12.8487V11.4419H312.858V12.8487H311.372ZM312.826 22.0323H311.403V14.3187H312.826V22.0323ZM315.003 14.3187L316.015 20.831L317.042 14.3187H318.465L317.042 22.0323H315.003L313.58 14.3187H315.003ZM322.106 14.3187H323.529V22.0323H322.106V21.4158C321.969 21.8268 321.643 22.0323 321.126 22.0323H320.557C319.609 22.0323 319.135 21.5686 319.135 20.6413V15.7255C319.135 14.7876 319.609 14.3187 320.557 14.3187H321.126C321.643 14.3187 321.969 14.5242 322.106 14.9352V14.3187ZM321.031 20.8784H321.585C321.774 20.8784 321.906 20.8362 321.98 20.7519C322.064 20.6676 322.106 20.5254 322.106 20.3252V16.0258C322.106 15.8256 322.064 15.6833 321.98 15.599C321.906 15.5147 321.774 15.4726 321.585 15.4726H321.031C320.842 15.4726 320.715 15.5042 320.652 15.5674C320.589 15.6201 320.557 15.7413 320.557 15.931V20.42C320.557 20.6097 320.589 20.7361 320.652 20.7994C320.715 20.852 320.842 20.8784 321.031 20.8784ZM327.533 15.4726H326.474V20.3568C326.474 20.5465 326.501 20.6729 326.553 20.7361C326.617 20.7888 326.743 20.8152 326.933 20.8152H327.533V22.0323H326.522C325.531 22.0323 325.036 21.5686 325.036 20.6413V15.4726H324.309V14.3187H325.036V13.0068H326.474V14.3187H327.533V15.4726ZM329.821 14.3187H331.37C332.361 14.3187 332.856 14.7876 332.856 15.7255V18.6181H329.742V20.4516C329.742 20.6308 329.774 20.7519 329.837 20.8152C329.9 20.8784 330.027 20.91 330.217 20.91H330.944C331.133 20.91 331.26 20.8784 331.323 20.8152C331.386 20.7519 331.418 20.6255 331.418 20.4358V19.8035H332.809V20.6413C332.809 21.5686 332.319 22.0323 331.339 22.0323H329.821C328.841 22.0323 328.351 21.5686 328.351 20.6413V15.7255C328.351 14.7876 328.841 14.3187 329.821 14.3187ZM329.742 17.5748H331.449V15.8994C331.449 15.7202 331.418 15.599 331.355 15.5358C331.302 15.4726 331.181 15.441 330.991 15.441H330.217C330.027 15.441 329.9 15.4726 329.837 15.5358C329.774 15.599 329.742 15.7202 329.742 15.8994V17.5748ZM337.912 18.0332V22.0323H336.49V12.1374H339.73C340.71 12.1374 341.2 12.6011 341.2 13.5284V16.6265C341.2 17.4273 340.847 17.8857 340.141 18.0016L341.706 22.0323H340.173L338.687 18.0332H337.912ZM337.912 13.2913V16.8952H339.303C339.493 16.8952 339.619 16.8688 339.683 16.8161C339.746 16.7529 339.778 16.6265 339.778 16.4368V13.7497C339.778 13.56 339.746 13.4388 339.683 13.3861C339.619 13.3229 339.493 13.2913 339.303 13.2913H337.912ZM344.006 14.3187H345.697C346.677 14.3187 347.167 14.7876 347.167 15.7255V20.6413C347.167 21.5686 346.677 22.0323 345.697 22.0323H344.006C343.036 22.0323 342.551 21.5686 342.551 20.6413V15.7255C342.551 14.7876 343.036 14.3187 344.006 14.3187ZM345.76 20.4358V15.9152C345.76 15.7255 345.728 15.599 345.665 15.5358C345.602 15.4726 345.476 15.441 345.286 15.441H344.416C344.227 15.441 344.1 15.4726 344.037 15.5358C343.984 15.599 343.958 15.7255 343.958 15.9152V20.4358C343.958 20.6255 343.984 20.7519 344.037 20.8152C344.1 20.8784 344.227 20.91 344.416 20.91H345.286C345.476 20.91 345.602 20.8784 345.665 20.8152C345.728 20.7519 345.76 20.6255 345.76 20.4358ZM351.436 14.3187H352.859V22.0323H351.436V21.4158C351.299 21.8268 350.973 22.0323 350.456 22.0323H349.887C348.939 22.0323 348.465 21.5686 348.465 20.6413V14.3187H349.887V20.42C349.887 20.6097 349.919 20.7361 349.982 20.7994C350.045 20.852 350.172 20.8784 350.362 20.8784H350.915C351.104 20.8784 351.236 20.8362 351.31 20.7519C351.394 20.6676 351.436 20.5254 351.436 20.3252V14.3187ZM356.656 14.3187H357.209C358.168 14.3187 358.648 14.7876 358.648 15.7255V22.0323H357.225V15.931C357.225 15.7413 357.194 15.6201 357.13 15.5674C357.067 15.5042 356.941 15.4726 356.751 15.4726H356.198C356.008 15.4726 355.871 15.5147 355.787 15.599C355.713 15.6833 355.676 15.8256 355.676 16.0258V22.0323H354.254V14.3187H355.676V14.9352C355.813 14.5242 356.14 14.3187 356.656 14.3187ZM362.903 11.4577H364.326V22.0323H362.903V21.4158C362.767 21.8268 362.44 22.0323 361.923 22.0323H361.354C360.406 22.0323 359.932 21.5686 359.932 20.6413V15.7097C359.932 14.7718 360.406 14.3029 361.354 14.3029H361.923C362.44 14.3029 362.767 14.5084 362.903 14.9194V11.4577ZM361.829 20.8784H362.382C362.572 20.8784 362.703 20.8362 362.777 20.7519C362.861 20.6676 362.903 20.5254 362.903 20.3252V16.01C362.903 15.8098 362.861 15.6675 362.777 15.5832C362.703 15.4989 362.572 15.4568 362.382 15.4568H361.829C361.639 15.4568 361.513 15.4884 361.449 15.5516C361.386 15.6148 361.354 15.736 361.354 15.9152V20.42C361.354 20.6097 361.386 20.7361 361.449 20.7994C361.513 20.852 361.639 20.8784 361.829 20.8784ZM371.769 22.0323L371.374 19.7403H369.287L368.924 22.0323H367.501L369.256 12.1374H371.326L373.207 22.0323H371.769ZM369.461 18.5865H371.184L370.283 13.3703L369.461 18.5865Z"
        fill="white" />
    <path
        d="M306.035 42.3471H308.717C311.012 42.3471 312.159 43.3407 312.159 45.3278V50.4761C312.159 52.4813 311.012 53.4839 308.717 53.4839H305.493C303.199 53.4839 302.052 52.4813 302.052 50.4761V47.6581H305.926V49.9613C305.926 50.4129 306.17 50.6387 306.658 50.6387H307.606C308.094 50.6387 308.338 50.4129 308.338 49.9613V45.8697C308.338 45.4181 308.094 45.1923 307.606 45.1923H302.214V36.2503H311.969V39.0955H306.035V42.3471ZM326.989 36.2503H329.889L320.784 53.4839H317.939L326.989 36.2503ZM330.891 50.5574V46.4929C330.891 46.0955 330.683 45.8968 330.268 45.8968H329.78C329.545 45.8968 329.383 45.942 329.292 46.0323C329.22 46.1226 329.184 46.2761 329.184 46.4929V50.5574C329.184 50.7742 329.22 50.9278 329.292 51.0181C329.383 51.0903 329.545 51.1265 329.78 51.1265H330.268C330.503 51.1265 330.665 51.0903 330.756 51.0181C330.846 50.9278 330.891 50.7742 330.891 50.5574ZM318.589 43.2413V39.1768C318.589 38.96 318.544 38.8065 318.454 38.7161C318.381 38.6258 318.228 38.5807 317.993 38.5807H317.478C317.243 38.5807 317.081 38.6258 316.99 38.7161C316.918 38.8065 316.882 38.96 316.882 39.1768V43.2413C316.882 43.4581 316.918 43.6116 316.99 43.702C317.081 43.7742 317.243 43.8103 317.478 43.8103H317.993C318.228 43.8103 318.381 43.7742 318.454 43.702C318.544 43.6116 318.589 43.4581 318.589 43.2413ZM334.007 46.0323V51.0181C334.007 52.662 333.077 53.4839 331.216 53.4839H328.832C326.971 53.4839 326.041 52.662 326.041 51.0181V46.0323C326.041 44.3884 326.971 43.5665 328.832 43.5665H331.216C333.077 43.5665 334.007 44.3884 334.007 46.0323ZM321.705 38.7161V43.702C321.705 45.3458 320.784 46.1678 318.941 46.1678H316.53C314.687 46.1678 313.766 45.3458 313.766 43.702V38.7161C313.766 37.0723 314.687 36.2503 316.53 36.2503H318.941C320.784 36.2503 321.705 37.0723 321.705 38.7161Z"
        fill="white" />
    <defs>
        <filter id="filter0_d_918_103" x="148" y="277" width="160" height="48" filterUnits="userSpaceOnUse"
            color-interpolation-filters="sRGB">
            <feFlood flood-opacity="0" result="BackgroundImageFix" />
            <feColorMatrix in="SourceAlpha" type="matrix" values="0 0 0 0 0 0 0 0 0 0 0 0 0 0 0 0 0 0 127 0"
                result="hardAlpha" />
            <feOffset dy="4" />
            <feGaussianBlur stdDeviation="2" />
            <feComposite in2="hardAlpha" operator="out" />
            <feColorMatrix type="matrix" values="0 0 0 0 0 0 0 0 0 0 0 0 0 0 0 0 0 0 0.25 0" />
            <feBlend mode="normal" in2="BackgroundImageFix" result="effect1_dropShadow_918_103" />
            <feBlend mode="normal" in="SourceGraphic" in2="effect1_dropShadow_918_103" result="shape" />
        </filter>
        <filter id="filter1_b_918_103" x="384" y="-37" width="186" height="158" filterUnits="userSpaceOnUse"
            color-interpolation-filters="sRGB">
            <feFlood flood-opacity="0" result="BackgroundImageFix" />
            <feGaussianBlur in="BackgroundImage" stdDeviation="24" />
            <feComposite in2="SourceAlpha" operator="in" result="effect1_backgroundBlur_918_103" />
            <feBlend mode="normal" in="SourceGraphic" in2="effect1_backgroundBlur_918_103" result="shape" />
        </filter>
        <filter id="filter2_b_918_103" x="488" y="-22" width="187" height="158" filterUnits="userSpaceOnUse"
            color-interpolation-filters="sRGB">
            <feFlood flood-opacity="0" result="BackgroundImageFix" />
            <feGaussianBlur in="BackgroundImage" stdDeviation="24" />
            <feComposite in2="SourceAlpha" operator="in" result="effect1_backgroundBlur_918_103" />
            <feBlend mode="normal" in="SourceGraphic" in2="effect1_backgroundBlur_918_103" result="shape" />
        </filter>
        <filter id="filter3_b_918_103" x="570.247" y="-5.75343" width="231.507" height="216.438"
            filterUnits="userSpaceOnUse" color-interpolation-filters="sRGB">
            <feFlood flood-opacity="0" result="BackgroundImageFix" />
            <feGaussianBlur in="BackgroundImage" stdDeviation="32.8767" />
            <feComposite in2="SourceAlpha" operator="in" result="effect1_backgroundBlur_918_103" />
            <feBlend mode="normal" in="SourceGraphic" in2="effect1_backgroundBlur_918_103" result="shape" />
        </filter>
        <filter id="filter4_b_918_103" x="673.29" y="89.2903" width="329.226" height="206.419"
            filterUnits="userSpaceOnUse" color-interpolation-filters="sRGB">
            <feFlood flood-opacity="0" result="BackgroundImageFix" />
            <feGaussianBlur in="BackgroundImage" stdDeviation="31.3548" />
            <feComposite in2="SourceAlpha" operator="in" result="effect1_backgroundBlur_918_103" />
            <feBlend mode="normal" in="SourceGraphic" in2="effect1_backgroundBlur_918_103" result="shape" />
        </filter>
        <filter id="filter5_b_918_103" x="480.71" y="217.71" width="336.581" height="267.581"
            filterUnits="userSpaceOnUse" color-interpolation-filters="sRGB">
            <feFlood flood-opacity="0" result="BackgroundImageFix" />
            <feGaussianBlur in="BackgroundImage" stdDeviation="40.6452" />
            <feComposite in2="SourceAlpha" operator="in" result="effect1_backgroundBlur_918_103" />
            <feBlend mode="normal" in="SourceGraphic" in2="effect1_backgroundBlur_918_103" result="shape" />
        </filter>
        <filter id="filter6_b_918_103" x="-40.0645" y="194.935" width="323.129" height="270.129"
            filterUnits="userSpaceOnUse" color-interpolation-filters="sRGB">
            <feFlood flood-opacity="0" result="BackgroundImageFix" />
            <feGaussianBlur in="BackgroundImage" stdDeviation="41.0323" />
            <feComposite in2="SourceAlpha" operator="in" result="effect1_backgroundBlur_918_103" />
            <feBlend mode="normal" in="SourceGraphic" in2="effect1_backgroundBlur_918_103" result="shape" />
        </filter>
        <filter id="filter7_b_918_103" x="-59.1129" y="71.3871" width="234.726" height="196.226"
            filterUnits="userSpaceOnUse" color-interpolation-filters="sRGB">
            <feFlood flood-opacity="0" result="BackgroundImageFix" />
            <feGaussianBlur in="BackgroundImage" stdDeviation="29.8065" />
            <feComposite in2="SourceAlpha" operator="in" result="effect1_backgroundBlur_918_103" />
            <feBlend mode="normal" in="SourceGraphic" in2="effect1_backgroundBlur_918_103" result="shape" />
        </filter>
        <filter id="filter8_b_918_103" x="68.1455" y="-11.5161" width="241.371" height="186.032"
            filterUnits="userSpaceOnUse" color-interpolation-filters="sRGB">
            <feFlood flood-opacity="0" result="BackgroundImageFix" />
            <feGaussianBlur in="BackgroundImage" stdDeviation="28.2581" />
            <feComposite in2="SourceAlpha" operator="in" result="effect1_backgroundBlur_918_103" />
            <feBlend mode="normal" in="SourceGraphic" in2="effect1_backgroundBlur_918_103" result="shape" />
        </filter>
        <filter id="filter9_b_918_103" x="237.742" y="-54.1936" width="231.452" height="178.387"
            filterUnits="userSpaceOnUse" color-interpolation-filters="sRGB">
            <feFlood flood-opacity="0" result="BackgroundImageFix" />
            <feGaussianBlur in="BackgroundImage" stdDeviation="27.0968" />
            <feComposite in2="SourceAlpha" operator="in" result="effect1_backgroundBlur_918_103" />
            <feBlend mode="normal" in="SourceGraphic" in2="effect1_backgroundBlur_918_103" result="shape" />
        </filter>
        <linearGradient id="paint0_linear_918_103" x1="477" y1="11" x2="477" y2="73" gradientUnits="userSpaceOnUse">
            <stop stop-color="#54E0FF" />
            <stop offset="0.151042" stop-color="#5160E2" stop-opacity="0.848958" />
            <stop offset="1" stop-color="#0DD3FF" stop-opacity="0.39" />
        </linearGradient>
        <linearGradient id="paint1_linear_918_103" x1="581.5" y1="26" x2="581.5" y2="88" gradientUnits="userSpaceOnUse">
            <stop stop-color="#54E0FF" />
            <stop offset="0.151042" stop-color="#5160E2" stop-opacity="0.848958" />
            <stop offset="1" stop-color="#0DD3FF" stop-opacity="0.39" />
        </linearGradient>
        <linearGradient id="paint2_linear_918_103" x1="686" y1="60" x2="686" y2="144.932"
            gradientUnits="userSpaceOnUse">
            <stop stop-color="#54E0FF" />
            <stop offset="0.151042" stop-color="#5160E2" stop-opacity="0.848958" />
            <stop offset="1" stop-color="#0DD3FF" stop-opacity="0.39" />
        </linearGradient>
        <linearGradient id="paint3_linear_918_103" x1="837.903" y1="152" x2="837.903" y2="233"
            gradientUnits="userSpaceOnUse">
            <stop stop-color="#54E0FF" />
            <stop offset="0.151042" stop-color="#5160E2" stop-opacity="0.848958" />
            <stop offset="1" stop-color="#0DD3FF" stop-opacity="0.39" />
        </linearGradient>
        <linearGradient id="paint4_linear_918_103" x1="649" y1="299" x2="649" y2="404" gradientUnits="userSpaceOnUse">
            <stop stop-color="#54E0FF" />
            <stop offset="0.151042" stop-color="#5160E2" stop-opacity="0.848958" />
            <stop offset="1" stop-color="#0DD3FF" stop-opacity="0.39" />
        </linearGradient>
        <linearGradient id="paint5_linear_918_103" x1="121.5" y1="277" x2="121.5" y2="383"
            gradientUnits="userSpaceOnUse">
            <stop stop-color="#54E0FF" />
            <stop offset="0.151042" stop-color="#5160E2" stop-opacity="0.848958" />
            <stop offset="1" stop-color="#0DD3FF" stop-opacity="0.39" />
        </linearGradient>
        <linearGradient id="paint6_linear_918_103" x1="58.25" y1="131" x2="58.25" y2="208"
            gradientUnits="userSpaceOnUse">
            <stop stop-color="#54E0FF" />
            <stop offset="0.151042" stop-color="#5160E2" stop-opacity="0.848958" />
            <stop offset="1" stop-color="#0DD3FF" stop-opacity="0.39" />
        </linearGradient>
        <linearGradient id="paint7_linear_918_103" x1="188.831" y1="45" x2="188.831" y2="118"
            gradientUnits="userSpaceOnUse">
            <stop stop-color="#54E0FF" />
            <stop offset="0.151042" stop-color="#5160E2" stop-opacity="0.848958" />
            <stop offset="1" stop-color="#0DD3FF" stop-opacity="0.39" />
        </linearGradient>
        <linearGradient id="paint8_linear_918_103" x1="353.468" y1="0" x2="353.468" y2="70"
            gradientUnits="userSpaceOnUse">
            <stop stop-color="#54E0FF" />
            <stop offset="0.151042" stop-color="#5160E2" stop-opacity="0.848958" />
            <stop offset="1" stop-color="#0DD3FF" stop-opacity="0.39" />
        </linearGradient>
    </defs>
</svg>