<svg width="80" height="90" viewBox="0 0 80 90" fill="none" xmlns="http://www.w3.org/2000/svg">
<path d="M70.7263 22.8713V62.1792C70.7263 62.8482 70.3917 63.4615 69.8063 63.7961H69.7784C69.193 64.1306 68.496 64.1306 67.9106 63.7961L63.7289 61.3707L13.4929 32.3777C12.4893 31.7922 11.876 30.7329 11.876 29.562V1.15441C11.876 0.624731 12.2384 0.178685 12.7402 0.039295C13.019 -0.0443387 13.3256 0.0114171 13.5765 0.150807H13.6044L43.0156 17.1563C43.1271 17.24 43.2665 17.2957 43.4059 17.3515C43.6847 17.463 43.9635 17.5187 44.2701 17.5187C44.6883 17.5187 45.1343 17.4351 45.4967 17.24L46.5003 16.7103L47.2531 16.32L52.8008 13.4207C54.6128 12.4728 56.7594 12.5286 58.5157 13.5601L68.8027 19.526C70.0014 20.2229 70.7263 21.5053 70.7263 22.8713Z" fill="url(#paint0_linear_627_19)"/>
<path d="M47.0023 16.6825L40.8413 19.8884C40.0607 20.3066 39.1129 20.2787 38.3602 19.8327L11.8761 4.5277L8.94896 2.82714C8.64231 2.632 8.25202 2.632 7.91748 2.77139L11.9877 0.290253C12.4616 0.0114737 13.047 -0.0164042 13.5767 0.150863H13.6046L43.0158 17.1564C43.1273 17.24 43.2667 17.2958 43.4061 17.3515C43.6848 17.463 43.9636 17.5188 44.2703 17.5188C44.6885 17.5188 45.1345 17.4352 45.4969 17.24L47.2532 16.3201L47.0023 16.6825Z" fill="url(#paint1_linear_627_19)"/>
<path d="M66.0983 25.5474V64.8553C66.0983 65.5244 65.7359 66.1377 65.1784 66.4722L65.0111 66.5558C64.4535 66.8067 63.8402 66.7789 63.3105 66.4722L8.86497 35.0538C7.86136 34.4684 7.24805 33.409 7.24805 32.2381V3.80266C7.24805 3.16147 7.74985 2.65967 8.39104 2.65967C8.58619 2.65967 8.78133 2.71542 8.9486 2.79906L38.3598 19.8046C39.1125 20.2506 40.0604 20.2785 40.8409 19.8603L46.5559 16.8774L47.002 16.6544L48.1728 16.0411C49.9849 15.0932 52.1315 15.149 53.8878 16.1805L64.1469 22.1463C65.3735 22.899 66.0983 24.1535 66.0983 25.5474Z" fill="url(#paint2_linear_627_19)"/>
<path d="M70.1968 20.892L65.5691 23.5683C65.2346 22.9829 64.7606 22.5089 64.1752 22.1744L53.9161 16.2085C52.1598 15.177 49.9853 15.1213 48.2011 16.0691L47.0303 16.6825L47.2533 16.2922L52.801 13.3929C54.6131 12.445 56.7597 12.5008 58.516 13.5323L68.8029 19.526C69.3605 19.8605 69.8623 20.3345 70.1968 20.892Z" fill="url(#paint3_linear_627_19)"/>
<path d="M70.7265 22.8715V62.1793C70.7265 62.8484 70.3919 63.4617 69.8065 63.7962H69.7786L65.1509 66.4446C65.7363 66.1101 66.0709 65.4968 66.0709 64.8277V25.5199C66.0709 24.8229 65.8757 24.1539 65.5412 23.5405L70.1689 20.8643C70.5313 21.5054 70.7265 22.1745 70.7265 22.8715Z" fill="url(#paint4_linear_627_19)"/>
<path d="M63.5061 32.4612V71.769C63.5061 72.4381 63.1715 73.0514 62.5861 73.3859H62.5582C61.9728 73.7205 61.2758 73.7205 60.6904 73.3859L56.5087 70.9884L6.24485 41.9675C5.24124 41.3821 4.62793 40.3227 4.62793 39.1518V10.7443C4.62793 10.2146 4.99034 9.76853 5.49215 9.62914C5.77092 9.5455 6.07758 9.60126 6.32848 9.74065H6.35636L35.7676 26.7462C35.8791 26.8298 36.0185 26.8856 36.1578 26.9413C36.4366 27.0528 36.7154 27.1086 37.0221 27.1086C37.4402 27.1086 37.8584 27.025 38.2487 26.8019L39.2523 26.2723L40.005 25.882L45.5527 22.9827C47.3648 22.0348 49.5114 22.0906 51.2677 23.122L61.5267 29.0879C62.7534 29.8127 63.5061 31.0951 63.5061 32.4612Z" fill="url(#paint5_linear_627_19)"/>
<path d="M39.7817 26.2724L33.6206 29.4783C32.8401 29.8965 31.8922 29.8686 31.1395 29.4226L4.65549 14.1176L1.70043 12.417C1.39377 12.2219 1.00348 12.2219 0.668945 12.3613L4.73912 9.85226C5.21305 9.57349 5.79848 9.54561 6.32816 9.71287H6.35604L35.7672 26.7184C35.8788 26.802 36.0181 26.8578 36.1575 26.9135C36.4363 27.0251 36.7151 27.0808 37.0217 27.0808C37.4399 27.0808 37.8581 26.9972 38.2484 26.7742L40.0047 25.8542L39.7817 26.2724Z" fill="url(#paint6_linear_627_19)"/>
<path d="M58.8503 35.1377V74.4456C58.8503 75.1146 58.5157 75.728 57.9303 76.0625L57.763 76.1461C57.2055 76.397 56.5922 76.3691 56.0625 76.0625L1.61692 44.6441C0.613314 44.0587 0 42.9993 0 41.8284V13.3929C0 12.7796 0.501802 12.2778 1.14299 12.2778C1.33814 12.2778 1.53329 12.3336 1.70055 12.4172L31.1118 29.4227C31.8645 29.8688 32.8123 29.8967 33.5929 29.4785L39.3357 26.4956L39.7818 26.2725L40.9527 25.6592C42.7647 24.7114 44.9113 24.7671 46.6676 25.7986L56.9267 31.7645C58.1255 32.4893 58.8503 33.7438 58.8503 35.1377Z" fill="url(#paint7_linear_627_19)"/>
<path d="M62.9483 30.4819L58.3206 33.1581C57.986 32.5727 57.5121 32.0988 56.9267 31.7643L46.6676 25.7984C44.9113 24.7669 42.7368 24.7111 40.9526 25.659L39.7817 26.2723L40.0048 25.882L45.5525 22.9827C47.3645 22.0349 49.5111 22.0906 51.2674 23.1221L61.5265 29.088C62.1398 29.4504 62.6138 29.9243 62.9483 30.4819Z" fill="url(#paint8_linear_627_19)"/>
<path d="M63.5058 32.4613V71.7691C63.5058 72.4382 63.1712 73.0515 62.5858 73.386H62.5579L57.9302 76.0623C58.5156 75.7278 58.8501 75.1145 58.8501 74.4454V35.1375C58.8501 34.4406 58.655 33.7715 58.3205 33.1582L62.9482 30.4819C63.3106 31.0952 63.5058 31.7643 63.5058 32.4613Z" fill="url(#paint9_linear_627_19)"/>
<path d="M78.9222 78.9339L71.5903 67.1694C70.7261 65.8033 69.4158 64.9949 68.4958 65.19L68.4401 65.1343L65.7638 66.4445L67.7989 68.0336C67.9104 68.3402 68.0498 68.619 68.2449 68.8978L72.2593 75.3376L52.7448 64.4373L56.7592 62.4859C57.7071 62.0398 57.7071 60.4229 56.7871 58.8896C55.8671 57.3563 54.3338 56.4921 53.4139 56.9661L46.082 60.5344C45.3293 60.8968 44.9111 61.7053 44.8832 62.7925C44.8554 63.8798 45.2456 65.1622 45.9426 66.3609L51.3788 75.6443L50.7097 75.8394L53.3302 80.4671L55.7277 79.3241C56.7035 78.906 56.7592 77.3169 55.8671 75.7836L51.9363 69.0651L73.1236 80.9132L69.2207 83.2549C68.3286 83.7846 68.3843 85.4294 69.36 86.9348C69.834 87.6318 70.3915 88.1893 70.977 88.5239C71.6182 88.8863 72.0642 88.8026 72.5381 88.5239L78.9779 84.6209C80.4554 83.7288 80.1209 81.0526 78.9222 78.9339Z" fill="url(#paint10_linear_627_19)"/>
<path d="M76.553 80.0766L69.2211 68.3121C68.2733 66.8067 66.7679 65.9704 65.8479 66.4443C64.9279 66.9183 64.9279 68.563 65.8758 70.0685L69.8902 76.5083L50.3757 65.608L54.3901 63.6565C55.3379 63.2105 55.3379 61.5936 54.418 60.0603C53.498 58.527 51.9647 57.6628 51.0447 58.1367L43.7128 61.7051C42.9601 62.0675 42.542 62.876 42.5141 63.9632C42.4862 65.0504 42.8765 66.3328 43.5735 67.5316L49.9575 78.4318C50.4314 79.2403 51.0726 79.8815 51.7138 80.2439C52.2992 80.5784 52.8847 80.6621 53.3307 80.4669C54.3065 80.0487 54.3622 78.4597 53.4701 76.9264L49.5393 70.2078L70.7544 82.056L66.8515 84.3977C65.9594 84.9274 66.0152 86.5722 66.9909 88.0776C67.4648 88.7745 68.0224 89.3321 68.6078 89.6666C69.249 90.029 69.8902 90.1127 70.3641 89.8339L76.7203 86.0425C78.1421 85.1504 78.0863 82.5299 76.553 80.0766Z" fill="url(#paint11_linear_627_19)"/>
<defs>
<linearGradient id="paint0_linear_627_19" x1="6.50555" y1="12.5571" x2="78.5148" y2="45.7023" gradientUnits="userSpaceOnUse">
<stop stop-color="#FD55A4"/>
<stop offset="0.3" stop-color="#EA50B4"/>
<stop offset="0.92" stop-color="#B844DF"/>
<stop offset="1" stop-color="#B142E5"/>
</linearGradient>
<linearGradient id="paint1_linear_627_19" x1="28.9374" y1="4.97168" x2="16.6352" y2="46.2197" gradientUnits="userSpaceOnUse">
<stop stop-color="#56C3FC"/>
<stop offset="0.15" stop-color="#5FB6FA"/>
<stop offset="0.43" stop-color="#7695F4"/>
<stop offset="0.81" stop-color="#9C60EA"/>
<stop offset="1" stop-color="#B142E5"/>
</linearGradient>
<linearGradient id="paint2_linear_627_19" x1="50.1829" y1="-10.3986" x2="23.8786" y2="76.7746" gradientUnits="userSpaceOnUse">
<stop stop-color="#56C3FC"/>
<stop offset="0.17" stop-color="#53B6F7"/>
<stop offset="0.47" stop-color="#4996EB"/>
<stop offset="0.65" stop-color="#437FE2"/>
</linearGradient>
<linearGradient id="paint3_linear_627_19" x1="69.8265" y1="3.33231" x2="11.3923" y2="83.6569" gradientUnits="userSpaceOnUse">
<stop stop-color="#56C3FC"/>
<stop offset="0.15" stop-color="#5FB6FA"/>
<stop offset="0.43" stop-color="#7695F4"/>
<stop offset="0.81" stop-color="#9C60EA"/>
<stop offset="1" stop-color="#B142E5"/>
</linearGradient>
<linearGradient id="paint4_linear_627_19" x1="57.0478" y1="12.0749" x2="84.6566" y2="93.8134" gradientUnits="userSpaceOnUse">
<stop stop-color="#56C3FC"/>
<stop offset="0.17" stop-color="#53B6F7"/>
<stop offset="0.47" stop-color="#4996EB"/>
<stop offset="0.65" stop-color="#437FE2"/>
</linearGradient>
<linearGradient id="paint5_linear_627_19" x1="-0.730985" y1="22.1459" x2="71.2783" y2="55.291" gradientUnits="userSpaceOnUse">
<stop stop-color="#FD55A4"/>
<stop offset="0.3" stop-color="#EA50B4"/>
<stop offset="0.92" stop-color="#B844DF"/>
<stop offset="1" stop-color="#B142E5"/>
</linearGradient>
<linearGradient id="paint6_linear_627_19" x1="21.7008" y1="14.5598" x2="9.39861" y2="55.8078" gradientUnits="userSpaceOnUse">
<stop stop-color="#56C3FC"/>
<stop offset="0.15" stop-color="#5FB6FA"/>
<stop offset="0.43" stop-color="#7695F4"/>
<stop offset="0.81" stop-color="#9C60EA"/>
<stop offset="1" stop-color="#B142E5"/>
</linearGradient>
<linearGradient id="paint7_linear_627_19" x1="32.6281" y1="-8.10521" x2="26.1152" y2="97.908" gradientUnits="userSpaceOnUse">
<stop stop-color="#56C3FC"/>
<stop offset="0.15" stop-color="#5FB6FA"/>
<stop offset="0.43" stop-color="#7695F4"/>
<stop offset="0.81" stop-color="#9C60EA"/>
<stop offset="1" stop-color="#B142E5"/>
</linearGradient>
<linearGradient id="paint8_linear_627_19" x1="62.5903" y1="12.9215" x2="4.15616" y2="93.2453" gradientUnits="userSpaceOnUse">
<stop stop-color="#56C3FC"/>
<stop offset="0.15" stop-color="#5FB6FA"/>
<stop offset="0.43" stop-color="#7695F4"/>
<stop offset="0.81" stop-color="#9C60EA"/>
<stop offset="1" stop-color="#B142E5"/>
</linearGradient>
<linearGradient id="paint9_linear_627_19" x1="59.6225" y1="17.1388" x2="62.1554" y2="103.071" gradientUnits="userSpaceOnUse">
<stop stop-color="#56C3FC"/>
<stop offset="0.15" stop-color="#5FB6FA"/>
<stop offset="0.43" stop-color="#7695F4"/>
<stop offset="0.81" stop-color="#9C60EA"/>
<stop offset="1" stop-color="#B142E5"/>
</linearGradient>
<linearGradient id="paint10_linear_627_19" x1="89.9609" y1="72.8076" x2="89.9986" y2="72.8076" gradientUnits="userSpaceOnUse">
<stop stop-color="#56C3FC"/>
<stop offset="0.17" stop-color="#53B6F7"/>
<stop offset="0.47" stop-color="#4996EB"/>
<stop offset="0.65" stop-color="#437FE2"/>
</linearGradient>
<linearGradient id="paint11_linear_627_19" x1="68.1943" y1="47.0091" x2="34.2166" y2="160.165" gradientUnits="userSpaceOnUse">
<stop stop-color="#56C3FC"/>
<stop offset="0.1" stop-color="#5FB6FA"/>
<stop offset="0.28" stop-color="#7695F4"/>
<stop offset="0.52" stop-color="#9C60EA"/>
<stop offset="0.65" stop-color="#B142E5"/>
</linearGradient>
</defs>
</svg>
