<svg width="54" height="90" viewBox="0 0 54 90" fill="none" xmlns="http://www.w3.org/2000/svg">
<path d="M45.6876 24.3002V55.2123C39.3947 72.4754 23.4922 73.581 23.4922 73.581C22.8118 73.3046 22.1528 72.9857 21.515 72.6243C8.99282 65.5659 3.59277 42.9878 3.59277 42.9878V11.1403L22.3229 0L45.6876 24.3002Z" fill="url(#paint0_linear_628_73)"/>
<path d="M45.6878 24.3003V55.2124C39.3948 72.4755 23.4923 73.581 23.4923 73.581C22.812 73.3047 22.1529 72.9858 21.5151 72.6243L42.1374 26.4263L45.6878 24.3003Z" fill="url(#paint1_linear_628_73)"/>
<path d="M0 15.2436V45.1565C0 45.1565 5.97407 70.0945 19.8994 75.7497C19.8994 75.7497 35.8019 74.6442 42.1161 57.381V26.4264L18.7513 2.14746L1.67954 12.2885C0.637801 12.905 0 14.0318 0 15.2436Z" fill="url(#paint2_linear_628_73)"/>
<path d="M53.15 86.2094C53.15 87.2087 52.3421 88.0165 51.3642 88.0165C51.0453 88.0165 50.7264 87.9315 50.45 87.7827L47.7074 86.1882L35.1428 78.8747C34.59 78.5558 34.2498 77.9606 34.2498 77.3228V62.5045L30.7632 60.5699L35.2491 58.5289C35.7806 58.2525 36.4396 58.2738 36.9499 58.5714L52.2571 67.3943C52.4059 67.4794 52.5335 67.5857 52.661 67.7132C52.7673 67.8408 52.8736 67.9683 52.9587 68.1172C53.1075 68.3723 53.1713 68.6699 53.1713 68.9676V86.2094H53.15Z" fill="url(#paint3_linear_628_73)"/>
<path d="M38.0555 61.9942C37.6941 62.1643 37.2901 62.1855 36.9075 62.058C36.4397 61.9091 36.1421 61.4627 36.1421 60.9737V55.7012C36.1421 54.4681 36.4823 53.2776 37.1626 52.2358C37.9705 51.024 39.3736 49.8335 41.8185 49.7059C46.8997 49.4508 49.1107 55.2548 49.0257 58.3162V66.7139C49.0257 67.2667 48.6217 67.7131 48.0902 67.7982C47.5375 67.862 46.8784 67.7769 46.3682 67.1391C46.3044 67.0753 46.2831 66.9903 46.2831 66.9053V58.6776C46.2831 58.6776 46.602 54.5744 43.6681 53.0862C40.4579 51.4492 38.672 54.5319 38.672 55.6162L38.7358 60.9099C38.7358 61.3564 38.4594 61.7816 38.0555 61.9942Z" fill="url(#paint4_linear_628_73)"/>
<path d="M53.1498 86.2095C53.1498 86.9323 52.7246 87.5914 52.0443 87.8678L47.4946 89.9087L47.686 86.1669L48.4513 70.6259L52.9159 68.1172C53.0648 68.3723 53.1285 68.6699 53.1285 68.9676L53.1498 86.2095Z" fill="url(#paint5_linear_628_73)"/>
<path d="M29.8701 62.1218V79.2999C29.8701 79.9377 30.2103 80.5329 30.763 80.8518L46.0703 89.7598C46.9207 90.2488 48.0262 89.9724 48.5364 89.1007C48.7065 88.8244 48.7915 88.5055 48.7703 88.1866V70.9234C48.7703 70.2856 48.4301 69.6903 47.8774 69.3714L32.5701 60.5485C31.7197 60.0595 30.6142 60.3572 30.104 61.2076C29.9552 61.484 29.8701 61.8029 29.8701 62.1218Z" fill="url(#paint6_linear_628_73)"/>
<path d="M41.4571 75.2818C41.4359 76.4511 40.8193 77.2165 39.9477 77.2802L39.9264 79.0236C39.9264 79.4062 39.7351 79.6614 39.4587 79.7251C39.3311 79.7464 39.1823 79.7464 39.0548 79.6826H39.0335C38.5658 79.4913 38.1831 78.8747 38.2044 78.322L38.2256 76.6637C37.2689 75.8983 36.5886 74.5377 36.6099 73.2834C36.6311 72.0715 37.2902 71.3062 38.2044 71.2849C38.502 71.2849 38.7996 71.3487 39.076 71.455C39.4374 71.6038 39.7563 71.8164 40.0327 72.0928C40.054 72.1141 40.0965 72.1353 40.1178 72.1778C40.9469 72.9432 41.4784 74.155 41.4571 75.2818Z" fill="url(#paint7_linear_628_73)"/>
<path d="M41.4572 75.2817C41.4359 76.451 40.8194 77.2164 39.9477 77.2802L39.9265 79.0235C39.9265 79.4062 39.7351 79.6613 39.4588 79.7251C39.0123 79.5125 38.6509 78.9172 38.6721 78.3857L38.6934 76.7274C37.7367 75.9621 37.0564 74.6014 37.0776 73.3471C37.0989 72.1353 37.758 71.3699 38.6721 71.3486C38.821 71.3699 38.9698 71.4337 39.1186 71.4762C39.4588 71.625 39.7777 71.8376 40.054 72.0715C40.0753 72.0927 40.1178 72.114 40.1391 72.1565C40.947 72.9431 41.4785 74.155 41.4572 75.2817Z" fill="url(#paint8_linear_628_73)"/>
<defs>
<linearGradient id="paint0_linear_628_73" x1="66.8637" y1="0.386104" x2="2.70857" y2="54.187" gradientUnits="userSpaceOnUse">
<stop offset="0.08" stop-color="white"/>
<stop offset="0.51" stop-color="#FD55A4"/>
<stop offset="0.84" stop-color="#B142E5"/>
</linearGradient>
<linearGradient id="paint1_linear_628_73" x1="33.5877" y1="11.0174" x2="33.5877" y2="45.7092" gradientUnits="userSpaceOnUse">
<stop offset="0.16" stop-color="white"/>
<stop offset="0.32" stop-color="#FD55A4"/>
<stop offset="0.84" stop-color="#B142E5"/>
</linearGradient>
<linearGradient id="paint2_linear_628_73" x1="21.0559" y1="0.877685" x2="21.0559" y2="112.343" gradientUnits="userSpaceOnUse">
<stop stop-color="#FD55A4"/>
<stop offset="0.3" stop-color="#EA50B4"/>
<stop offset="0.92" stop-color="#B844DF"/>
<stop offset="1" stop-color="#B142E5"/>
</linearGradient>
<linearGradient id="paint3_linear_628_73" x1="47.8389" y1="48.3281" x2="33.7151" y2="108.686" gradientUnits="userSpaceOnUse">
<stop stop-color="#F8B65F"/>
<stop offset="0.13" stop-color="#F9A869"/>
<stop offset="0.37" stop-color="#FB8383"/>
<stop offset="0.62" stop-color="#FD55A4"/>
</linearGradient>
<linearGradient id="paint4_linear_628_73" x1="50.2144" y1="41.0132" x2="32.9373" y2="85.6245" gradientUnits="userSpaceOnUse">
<stop stop-color="#F29372"/>
<stop offset="0.15" stop-color="#F4857D"/>
<stop offset="0.44" stop-color="#FB609B"/>
<stop offset="0.51" stop-color="#FD55A4"/>
<stop offset="1" stop-color="#B142E5"/>
</linearGradient>
<linearGradient id="paint5_linear_628_73" x1="72.5302" y1="79.1221" x2="20.1395" y2="78.8809" gradientUnits="userSpaceOnUse">
<stop stop-color="#F8B65F"/>
<stop offset="0.14" stop-color="#F9A869"/>
<stop offset="0.4" stop-color="#FB8383"/>
<stop offset="0.68" stop-color="#FD55A4"/>
</linearGradient>
<linearGradient id="paint6_linear_628_73" x1="35.8793" y1="49.8724" x2="49.6592" y2="150.675" gradientUnits="userSpaceOnUse">
<stop stop-color="#F8B65F"/>
<stop offset="0.14" stop-color="#F9A869"/>
<stop offset="0.4" stop-color="#FB8383"/>
<stop offset="0.68" stop-color="#FD55A4"/>
</linearGradient>
<linearGradient id="paint7_linear_628_73" x1="49.7782" y1="72.2104" x2="36.1873" y2="76.2688" gradientUnits="userSpaceOnUse">
<stop stop-color="#F29372"/>
<stop offset="0.15" stop-color="#F4857D"/>
<stop offset="0.44" stop-color="#FB609B"/>
<stop offset="0.51" stop-color="#FD55A4"/>
<stop offset="1" stop-color="#B142E5"/>
</linearGradient>
<linearGradient id="paint8_linear_628_73" x1="66.7817" y1="70.2866" x2="27.3823" y2="77.7368" gradientUnits="userSpaceOnUse">
<stop stop-color="#F29372"/>
<stop offset="0.15" stop-color="#F4857D"/>
<stop offset="0.44" stop-color="#FB609B"/>
<stop offset="0.51" stop-color="#FD55A4"/>
<stop offset="1" stop-color="#B142E5"/>
</linearGradient>
</defs>
</svg>
